<svg id="Capa_1" data-name="Capa 1" xmlns="http://www.w3.org/2000/svg" viewBox="0 0 1000 1000"><defs><style>.cls-1{fill:#ff3e00}</style></defs><path class="cls-1" d="m539.34 339-21.12 16.4h-10.78l168-123.85c-.77 2.92-32 101.79-38.93 123.83h-54.67l76.28 54.44c.29-.77.55-1.49.78-2.21C684.3 328.27 743 143.85 747 131h-2c-1 .86-1.94 1.79-3 2.57C666 190.11 467 338 443.58 355.39c-21.15 0-87.09 0-87.25.11h-.83s.52 180.81.51 214.58l-141.32 1.6c2-1.73 98-72.61 129.81-96.11v-46.92l-3.25 2.67C263.56 489 102.73 608.16 100 610v2c8 0 178.66-2.61 256-3.9v42.22c0 .87 45 1 66.93 1C449.16 731.52 475.08 810.76 501 890h3c.57-1.37 1.24-2.71 1.69-4.12 22.77-71.13 72.78-227.47 75-234.51h70.21c.87 0 1.06-.19 1.06-1.06v-47.23L900 599v-4c-1.55-.91-352.95-250.53-360.66-256zM435.49 603.84c-.5-.82-.41-1.22.46-1.74 5.19-3.07 10.35-6.22 15.51-9.34 1.78-1.08 3.57-2.12 5.32-3.24.65-.42.92-.34 1.29.33a61.74 61.74 0 0 0 4.12 6.53c4.1 5.68 9.71 7.63 16.48 6.8a14 14 0 0 0 5.86-1.91c3.09-1.95 4.51-5 5.19-8.38a40.26 40.26 0 0 0 .7-7.75v-92.37c0-1.23.34-1.47 1.5-1.47q12.6.07 25.21 0c.92 0 1.12.25 1.12 1.14v75.81q0 10-.06 20a47.05 47.05 0 0 1-3.19 17.2c-.46 1.16-1 2.31-1.56 3.44-4.72 9.25-12.37 14.89-22.27 17.43a54.37 54.37 0 0 1-32.28-1.17 39.3 39.3 0 0 1-16.63-11.3 45.81 45.81 0 0 1-4.69-6.38c-.14-.23-.28-.47-.41-.71-.59-.98-1.08-1.98-1.67-2.92zm70.64 162.56c-1.12-3-26.51-78.7-38.59-115h75.09q-18.2 57.3-36.5 115zm121.41-162.9c-3.57 9.52-10.44 16-19.76 20.1a55 55 0 0 1-19.58 4.4h-.2l-4 .19a67.09 67.09 0 0 1-23.94-4.3 53.14 53.14 0 0 1-7.5-3.65 48.5 48.5 0 0 1-16.1-15.19 53.53 53.53 0 0 1-2.8-4.65c-.41-.77 0-.89.48-1.17l15.06-8.74c1.4-.81 2.81-1.61 4.2-2.44.56-.32 1.11-.66 1.66-1 .72-.45 1-.26 1.38.37a45.68 45.68 0 0 0 4.57 6.18 31.65 31.65 0 0 0 5 4.61 27.14 27.14 0 0 0 13.43 5 28.91 28.91 0 0 0 12.87-1.21 18 18 0 0 0 5.06-2.64 12.5 12.5 0 0 0 4.3-13.36 13.37 13.37 0 0 0-4.22-6.33c-3.39-2.87-7.42-4.63-11.4-6.46-5.41-2.48-11-4.62-16.33-7.2-.9-.43-1.8-.88-2.69-1.34A58.22 58.22 0 0 1 552 554a35.42 35.42 0 0 1-10-20.58c-1-6.89-.64-13.69 1.9-20.24 4.06-10.46 11.7-17.21 22.16-20.89a51.09 51.09 0 0 1 20.84-2.41 54.37 54.37 0 0 1 6.66.86 41 41 0 0 1 10.23 3.34 39 39 0 0 1 14.68 12.72c1 1.43 1.91 3 2.9 4.44.34.51.37.77-.21 1.14q-10.16 6.53-20.36 13.1c-.53.35-.73.27-1-.24a33.36 33.36 0 0 0-3.53-5.13 16.74 16.74 0 0 0-10.12-5.84 20.73 20.73 0 0 0-4.43-.28c-4 .16-7.53 1.4-10.21 4.55-3.63 4.26-3.92 13.22 2.76 18a40.81 40.81 0 0 0 4 2.52c2.66 1.45 5.43 2.67 8.22 3.88 7.4 3.21 14.88 6.25 21.83 10.4 1.08.65 2.14 1.31 3.17 2a43.54 43.54 0 0 1 12.34 11.71l.34.5a35.71 35.71 0 0 1 5.5 16.09 43.7 43.7 0 0 1-1.55 18.26c-.18.54-.36 1.08-.56 1.6zm147.37-38.31-122.93 1.5v-94.75c42.35 30.76 124.08 93.23 122.93 93.25z"/><path class="cls-1" d="M344.5 344.5h20.74q-17.46-52.5-34.92-104.88c2.22.47 86.33 61.44 126.91 91.17 3.62 2.65 5.91 2.57 9.43.07 8.94-6.38 18.22-12.29 27.35-18.42 1.27-.85 2.46-1.83 3.95-2.95L255.63 136.94l-.87.71q44.92 137.19 89.74 274.09zM729.19 240.47q2.13 2 4.21 4.13A320.92 320.92 0 0 1 828 473a327.26 327.26 0 0 1-3.68 49.07l36 25.62a362.59 362.59 0 0 0-98.64-331.37q-9.25-9.25-19.08-17.78-6.69 20.94-13.41 41.93zM505 150a321.54 321.54 0 0 1 143.25 33.33L683.73 157a362.9 362.9 0 0 0-365.68 4.79L354 187.32A321.32 321.32 0 0 1 505 150zM733.4 701.4a320.58 320.58 0 0 1-181.06 91.18q-6.69 20.92-13.34 41.85A363.47 363.47 0 0 0 838.73 616l-44.3.73a323.43 323.43 0 0 1-61.03 84.67zM186.38 526.45A326.71 326.71 0 0 1 182 473a320.88 320.88 0 0 1 91.85-225.62l-12.27-37.48-1.58-4.77q-6 5.44-11.7 11.19a363.81 363.81 0 0 0-97.5 336.55zM276.6 701.4a324.27 324.27 0 0 1-56-75l-44.32.74a362.73 362.73 0 0 0 289.54 206.78L452 791.69a320.57 320.57 0 0 1-175.4-90.29z"/></svg>