<svg id="Capa_1" data-name="Capa 1" xmlns="http://www.w3.org/2000/svg" viewBox="0 0 1000 1000"><defs><style>.cls-1{fill:#61dafb;}</style></defs><path class="cls-1" d="M348.91,420.56a.36.36,0,0,0,0,.09h0a.16.16,0,0,1,0-.07Z"/><path class="cls-1" d="M349.06,420.59h0Z"/><path class="cls-1" d="M637.74,400.79l-.06-.05v.09Z"/><path class="cls-1" d="M349,420.58h.06a.14.14,0,0,1,0-.06Z"/><path class="cls-1" d="M219.29,508.65l-2.3,0A17.65,17.65,0,0,0,219.29,508.65Z"/><path class="cls-1" d="M637.83,400.73l-.08,0v.08Z"/><path class="cls-1" d="M800.73,494c-13.43-9.38-26.74-18.94-40.2-28.27-5.47-3.8-10.39-8.43-16.6-11.12.64,2.1.12,3.73-2.06,4.49a2.66,2.66,0,0,1-3.36-1.49c-.91-1.82-.76-3.65,1.11-4.92.57-.39,1.16-.67,1-1.5-9.84-6.69-19.78-13.24-29.5-20.1-18.26-12.88-36.37-26-54.61-38.88-1.77-1.26-3.27-3.83-6.28-2.33-.59.29-1.63-.73-1.6-1.49.1-2.59-2-3.27-3.56-4.38-4.9-3.56-9.87-7-14.81-10.51-2-1.4-4.18-2.57-5.85-4.27s-4,.22-5.63-2.16c-.85-1.28-1.43-3-3-4.05-9.49-6.6-18.86-13.38-28.27-20.12-1.06-.76-1.71-1-3,.15-3.1,2.86-6.85,2.91-9.35.35-3-3.06-1.48-5.82,1-8.44-17-12.22-33.91-24.37-50.77-36.63-1.49-1.08-2.22-.6-3.35.29-3.9,3.09-8,5.91-11.76,9.21-2.95,2.62-6,2.44-10.09,2,1.19-.95,1.79-1.47,2.43-1.94q23.55-17.36,47.09-34.72c1.14-.84,2.64-1.37,2.94-3.11.45-2.53,2.05-3.69,4.62-3.32,1.24.18,2-.59,2.86-1.22l39.62-29.18c9.3-6.85,18.59-13.72,28-20.68.56,2.35-.46,4.05-1,5.81q-7.42,23.58-14.95,47.12-6.55,20.46-13.21,40.9c-.06.12-.09.29-.19.35-2.39,1.44-4.64.84-7.36.65-11.11-.8-22.32-.24-33.49-.19,7.93,5.78,15.83,11.59,23.8,17.31,11.34,8.14,22.74,16.21,34.33,24.47.46-1.31.84-2.31,1.16-3.32q27.89-87,55.77-174.07a1.93,1.93,0,0,0-.81-2.57c-3.28-2.45-5.18-6-6.86-9.61a3.32,3.32,0,0,1,1.15-4.31c1.39-1,2.82-.55,4,.56,1.87,1.69,3.73,3.4,5.85,5.35,2.16-6.94,4.18-13.59,6.32-20.2.48-1.47-1.24-2.94.09-4.21.85-.8,2.43-1.46,1.13-2.67-.89-.85-1.85.6-2.67,1.21Q662.41,151.94,644,165.69c-2.25,1.68-5.69,2.89-3,6.86a1.83,1.83,0,0,1-.5,2.24c-1-.3-2.52-.3-2.92-1-1.68-2.83-3-1.12-4.53,0-4.52,3.38-9,6.89-13.66,10-2.14,1.42-2.37,3.43-3.25,5.4-1.17,2.64-3.93-.22-6.23,1.54-21.41,16.3-43.08,32.26-64.67,48.33-1.2.89-2.82,1.38-1.53,3.65.63,1.12-.7,2.51-2.13,1.5-1.8-1.26-2.84-.41-4.21.62q-25.86,19.33-51.77,38.6c-2.18,1.63-4.81,2.72-5.1,6.19-.14,1.69-2.2,2.94-4,2.9-3.89-.09-6.36,2.34-9.11,4.41-4.73,3.55-9.56,7-14.2,10.66a11.71,11.71,0,0,1-7.8,2.51c-19.28,0-38.57.38-57.86.09-3.71-.06-1.51,5.26-5.12,4.09a2.66,2.66,0,0,0-.37,1c0,.49,0,1,.87.72,2-.68,3.32,0,3,2.25-.35,2.79-2.59.88-3.62,1.08v58.26c1.18-.54,2.51-1.11,3.8-1.73,2.93-1.41,4.81-1.22,4.94,2.71,0,1.2,0,2.88,1.42,3.56,3.22,1.54,4.61,4.35,5.56,7.52,1.14.11,1.65-2.12,3.06-.84a1,1,0,0,1,.05,1c-.83.76-1.6,2-3,.8.13,1.78.43,3.7-2.18,3.89-2.44.18-3.56-.87-3.81-3.49-.18-1.91-.26-4.85-3.36-4.5a8.49,8.49,0,0,1-7-2.14c0,19.45,0,38.34,0,57.23,0,1.74-.72,3.75,1.8,4.72a1.39,1.39,0,0,1,.11,2.39c-2.6,1.84-1.9,4.47-1.91,6.92,0,6.6,0,13.21,0,19.81a7,7,0,0,1,.79,0c1-.75,2.06-1.37,2.93.12.66,1.14-.38,1.7-1.06,2.19-1,.76-2.05,1.69-3.47,1.72l-.93-1c-1.27.37-2.65,1.09-3.45-.69s-2.33-1.88-4-1.86q-33.11.39-66.2.73c-1.63,0-3.59-.53-3.35,2.45a2,2,0,0,1-2.54,1.9c-1.43-.45-2.16-1.6-1.12-3.16-.3-1.36-1.41-1-2.27-1-7,0-13.93,0-20.79,0a2.42,2.42,0,0,0-.52.23c-.35,1.22.81,1.61.88,2.5.13,1.89-1.08,2.62-2.46,3.25-.65.29-1.34,1.18-2.09.18a3.06,3.06,0,0,1,.31-3.74c1-1.33,1.5-3.12,3.24-3.82a17.78,17.78,0,0,1,1.74-1.63c15.69-11.57,31.45-23.05,47.07-34.71,8.21-6.13,16.86-11.68,24.5-18.56l-.11.06h0a.36.36,0,0,1,0-.09,2.3,2.3,0,0,1-1-.28c-1.57-1.2-3.27-2.46-2.9-4.72.2-1.19,1.67-1.18,2.26-.6,1.52,1.49,3.45,3.06,1.72,5.56a.14.14,0,0,0,0,.06c8.09-4.75,15-11.13,22.83-16.29a2.25,2.25,0,0,0,1.05-2q0-17.31,0-34.64c-.62.06-.93,0-1.1.12L301,420.46Q271.7,442.24,242.36,464c-1.84,1.35-3.22,4.57-4.14,4.65-4.83.39-6.94,4.68-10.68,6.36-1.62.72-.12,3.74-2.36,3.17s-2.93.9-4.11,1.76q-17.53,12.75-35,25.62c-.83.62-2.13,1.15-1.74,2.44.44,1.44,1.85.69,2.78.69,9.95,0,19.91,0,29.87,0,1.58-.15,3.17-.25,4.74-.49a9.7,9.7,0,0,1,2,0c.87-.12,1.75-.24,2.62-.33.68-.42,1.11-1.28,1-3,0-.52.81-1.09,1.57-.92,1,.22,2,.93,1.78,1.83-.4,1.33-.2,1.91.26,2.16.31,0,.61.09.92.16s1-.07,1.4-.06c3.35,0,6.69,0,10,0h0q67.77-1.25,135.54-2.54c2.73-.05,3,.94,3,3.23-.11,9-.05,18.08,0,27.12,0,1.44-.35,3,2,3.13,2.59.17,1.84-1.48,1.94-2.84.32-4.09,3.16-6.63,7.13-6.49a5.62,5.62,0,0,1,5.55,6.8c-.4,2.72.76,2.5,2.48,2.49,9.58,0,19.17.14,28.74-.1,3.11-.08,4.42.88,5.38,3.82,11.85,36.61,23.88,73.17,35.74,109.79.94,2.9,1.67,4.59,5.08,2.89,1.05-.52,2.63,0,4,.06h0c-.22-1-1.88-1.93-.55-3.13,1-.86,2.1-.23,3,.34s3.38.58,1.62,2.81c-.27.46-.53.92-.79,1.38,1.43,1.54,1.3,3.32.93,5.22-.32,1.64-.7,3.48-2.22,4s-2.52-1.18-3.71-2c-1.78-1.23-2.18-3.87-4.47-4.65-.19.38-.32.52-.29.61q10,30.56,20,61.1c.33,1,.33,2.09,1.84,2.24,1.72.17,2-1.12,2.42-2.16,2.55-6.67,4.22-13.62,6.43-20.4,11.31-34.65,22.28-69.4,33.37-104.11l4-12.61c-3.6,1.63-6.67,2.29-9.91,1.53,1,1.53,2,3.21-.63,4-1.12.34-3,.63-3.13-1.28s.5-3.74,3.13-3.39c-1.79-4.18-1.22-6.7,2-8.11a6.69,6.69,0,0,1,7.2.68c2.39,1.81,3.28,1.1,4.13-1.72,3.27-10.91,6.85-21.73,10.33-32.57,1.49-4.65,4.64-5.75,9.65-4.79,3.07.58,7.27,2.85,9.3-2.6a2.12,2.12,0,0,1,3.93.79c.46,2.59,1.93,2.31,3.66,2.31,8.9,0,17.8-.11,26.7.06,2.64,0,3.4-.68,3.35-3.35-.16-10.11.07-20.23-.14-30.33-.06-3,.74-3.8,3.76-3.82q36.81-.28,73.61-.91c22.64-.37,45.28-.9,67.92-1.34,1.64,0,3.29.13,3.79-2l-.08,0h0l0-.07c-1.68.32-2.79-.31-2.54-2.14.13-.94,1.17-2.29,2.2-1.68,1.4.85,2,2.36.47,3.8h0a.43.43,0,0,1,0,.05c2.65-1.21,3.93,2,6.49,1.91,11-.42,22-.43,33.05-.64,1.06,0,2.57.53,2.9-1.3C802.75,495.68,802,494.88,800.73,494ZM588.37,320.83c-1.36,0-2.49-.44-2.58-1.92a2.48,2.48,0,0,1,2.47-2.93c1.69-.08,2.24,1.4,2.34,2.65S589.71,320.73,588.37,320.83Zm63.94-97.63a1.63,1.63,0,0,1-1.79,1.25c-.93,0-1.76-.56-1.79-1.29s.73-1.28,1.72-1.21A1.93,1.93,0,0,1,652.31,223.2Zm-5.8-35.72c2,1.05,3.76,2.38,4.19,4.89.19,1.06-.47,1.66-1.37,1.36-2.14-.71-4.45-1.5-5-4.07C644.17,188.59,645.1,187.69,646.51,187.48Zm-1.67-5c-.09.74-.55,1.55-1.5,1.47s-1.59-.57-1-1.5c.32-.54-.28-1.8,1.07-1.65C644.08,181.18,644.94,181.55,644.84,182.45ZM640,177.19a1.4,1.4,0,0,1,1.69-1.29,1.64,1.64,0,0,1,1.37,1.68c-.3.79-.65,1.6-1.59,1.56A1.54,1.54,0,0,1,640,177.19Zm-5.88,81.54a1.92,1.92,0,0,1,1-1.07c.44-.18,1.09-.1,1,1.64,0-.13-.52.32-1.2.43A.73.73,0,0,1,634.15,258.73Zm-8.41-15.26a2.18,2.18,0,0,1,2.52,1.92c0,1.1-1.3,1.48-2,1.88a1.72,1.72,0,0,1-2.18-1.52A1.83,1.83,0,0,1,625.74,243.47ZM616.61,330c-1.67,0-2.26-1.19-2.52-2.59a1.92,1.92,0,0,1,1.92-2.45c1.78-.11,2.39,1.34,2.82,2.61C618.76,329.16,618.08,330,616.61,330Zm5.46-46.51c-1.46-.16-1.9-1.33-1.59-2.71.27-1.21-.08-3,2-2.83,1.55.15,1.69,1.47,1.57,3C623.8,281.92,624.14,283.7,622.07,283.47Zm3.78,24.34c-.11.66-.35,1.35-1.15,1.45a1.34,1.34,0,0,1-1.51-1c-.12-.91.62-1.39,1.48-1.59C625.44,306.66,626,306.94,625.85,307.81Zm-1.26-18.95c-1.18-.19-2.37-.81-2.14-2.37a2.13,2.13,0,0,1,2.24-1.88,2.11,2.11,0,0,1,2.32,2.12C626.77,288.17,626,289.07,624.59,288.86Zm2.89-35.33c-.6-.13-1.5-.55-1.59-1-.21-1,1-.88,1.33-1.34.95-.08,1.53.26,1.65,1C629,253.21,628.41,253.73,627.48,253.53ZM629,201.16A1.85,1.85,0,0,1,630.4,203c-.29.26-.74.92-1,.86a1.86,1.86,0,0,1-1.41-1.92A.73.73,0,0,1,629,201.16Zm-15.67,11.38c.57.09,1.07.64,1.5.92-.08,1-.52,1.45-1.27,1.47a1.21,1.21,0,0,1-1.38-1.13C612.15,213.16,612.57,212.42,613.32,212.54ZM596.4,228.68a2.1,2.1,0,0,1,2.4-2c1,.12,2.38.15,1.72,2.05-.08,1.52-1.55,1.82-2.71,1.94C596.92,230.74,596.22,229.79,596.4,228.68Zm-51.75,23.84c.15-1.34.74-2.77,2.25-2.81,1.06,0,1.73,1.07,1.82,2.33-.23,1.18-.69,2.24-2.15,2.36A1.58,1.58,0,0,1,544.65,252.52Zm-30.51,15.83c3.4-.09,3.48,3,4,5.47.12,1.29,0,2.41-1.74,2.43-1.93,0-6.78-3.11-6.61-4.43A4.18,4.18,0,0,1,514.14,268.35Zm-2.28,21a2.8,2.8,0,0,1,2.8,2.87c0,1.81-1.12,2.58-2.87,2.71a2.68,2.68,0,0,1-2.76-2.78A2.71,2.71,0,0,1,511.86,289.35Zm-11,5c.06-.79.37-1.24,1.16-1.1s1.45.56,1.31,1.57c-.38.59-.49,1.64-1.45,1.4C501.1,296.06,500.8,295.26,500.85,294.38ZM384.07,427.45a2,2,0,0,1-1.42-1.56c-.23-.94.51-1.45,1.3-1.58,1-.15,1.45.58,1.49,1.4A1.61,1.61,0,0,1,384.07,427.45ZM350.48,410c1-.23,1.4.42,1.65,1.21-.08.72-.3,1.4-1,1.58-1,.27-1.3-.68-1.56-1.34S349.77,410.15,350.48,410Zm-10.29,4.81a1.41,1.41,0,0,1,1.46-1.24c.51.62,1.37,1.15,1.23,2.14-.09.62-.55,1.37-1.3,1.19A1.74,1.74,0,0,1,340.19,414.79Zm-32,9.07c.89-3.1,3.56-3.12,5.91-2.52,1.75.45,3.26.89,5,.13a2.55,2.55,0,0,1,3.26.72,2.45,2.45,0,0,1,.3,2.66,2.85,2.85,0,0,1-3.38,1.51c-1.49-1-1.79,0-2.49,1.18-1.35,2.31-3.47,3.3-6.14,2A4.41,4.41,0,0,1,308.15,423.86Zm1,10.28c2.69-.09,3.9,1.11,3.88,3.35a3.27,3.27,0,0,1-3.15,3.51c-2.38.12-3.77-1.53-3.77-3.78A2.81,2.81,0,0,1,309.12,434.14Zm-4.59,8.14c.54,0,1,.07,1.17.82s-.46.84-1,.79-1.31-.2-1.35-.41C303.2,442.7,303.79,442.34,304.53,442.28Zm-17.79,1.59c1.22,0,1.4,1,2,1.45a2.07,2.07,0,0,1-2.06,1.74c-1.26.09-1.46-.92-1.48-1.88S285.8,443.89,286.74,443.87Zm-1.85,14.77c.3-.07.75.47,1.29.85-.39.5-.6,1.07-1,1.2-.8.29-1.22-.45-1.28-1C283.9,459.35,284.49,458.74,284.89,458.64Zm-65.2,39.91c-1.53,1.17-2.27,0-3.05-1.05l-.13,0v-.06c-1.26.9-2.41,1-3.08-.68-.4-1,.44-1.6,1.16-1.72,1.92-.32,2.22.86,1.92,2.4l.06,0h0l.07.08a.41.41,0,0,0,.25-.06c1.12-.92,2.24-1.36,3.35,0C220.82,498.17,220,498.35,219.69,498.55Zm10.88-19.22a1.54,1.54,0,0,1-1.37-1.65,2,2,0,0,1,1.37-1.19c1-.22,1.28.62,1.47,1.37C231.92,478.77,231.4,479.46,230.57,479.33Zm3.83,13.22A2.67,2.67,0,0,1,232,489.8a2.33,2.33,0,0,1,2.3-2.65A2.53,2.53,0,0,1,236.9,490C236.9,491.63,235.42,491.91,234.4,492.55Zm21.41-25.12c.47.44,1.12.77,1.14,1.13a1.05,1.05,0,0,1-1.2,1.1,1.45,1.45,0,0,1-.92-1.05C254.83,468.24,255.41,467.87,255.81,467.43Zm-10.69,26.73a1,1,0,0,1-1.18-.78,1.1,1.1,0,0,1,.82-1.51c.72-.19,1.16.42,1.53,1A1.37,1.37,0,0,1,245.12,494.16Zm1.48-6.07a1.32,1.32,0,0,1-1.36-1.19,1.55,1.55,0,0,1,1.39-1.64c.94-.17,1.3.61,1.59,1.34A1.69,1.69,0,0,1,246.6,488.09Zm7.07-.59c-1.65.54-2.84-.95-2.75-2.54s1.24-2.88,3.36-3.06c1.46.94,4,1.77,4,3.6C258.17,487.81,255.26,487,253.67,487.5Zm7,4.68c-1.08-.5-2.72-.74-2.33-2.55.16-.73.7-1.87,1.44-1.59,1.21.45,1.69,1.82,2.31,3.19C261.63,491.57,261,492.3,260.69,492.18Zm7.51,8.4c-1.67-.05-1.34-1.35-1.43-2.36-.1-1.2.54-1.64,1.68-1.66,1.44,0,1.71,1,2,2.06C270,499.63,269.53,500.62,268.2,500.58Zm26-6.44c-.22.92.12,2.77-2,2.37A3.31,3.31,0,0,1,289.6,493a2.38,2.38,0,0,1,2.88-2.14C294.2,491.08,294.53,492.34,294.21,494.14Zm-.42-13.81c-.85.1-1.67-.17-1.74-1.12a1.33,1.33,0,0,1,1.23-1.29c.91-.15,1.41.5,1.83,1.19A1.49,1.49,0,0,1,293.79,480.33Zm13.47,11.86c-.69-.3-1.66-.38-1.48-1.43s1.11-.82,1.84-.78,1.41.1,1.32,1S308.07,492.11,307.26,492.19ZM317,503.51c-2.42-.08-3.93-1.53-4-4.37.25-2,.95-3.52,3.68-3.49s4.39,1.14,4.43,3.93S319.43,503.58,317,503.51Zm23.09-16.64c-.51.08-1.1,0-1.27-.58-.22-.78.31-1.24.95-1.49s1.19.15,1.49.74A1.21,1.21,0,0,1,340.06,486.87Zm5.69,15.18a2.49,2.49,0,0,1-2.71-2.42c-.13-1.37.59-2.26,2.22-2.36s2.36.87,2.55,2.33A2,2,0,0,1,345.75,502.05ZM364,493.61c-1,.16-1.29-.79-1.49-1.45-.29-.94.41-1.41,1.26-1.63.86.06,1.66.36,1.57,1.35A1.72,1.72,0,0,1,364,493.61Zm3.81-13.37c-.44-.05-1-.85-1.12-1.4-.27-1,.73-.87,1.28-1.11.93-.41,1.13.24,1.31.91C369.05,479.48,368.7,480.34,367.77,480.24Zm6.13,20.46c-.15,1.34-1.25,1.67-2.4,1.45-.95-.19-1.89-.78-1.71-1.85a3.23,3.23,0,0,1,2.22-2.48C373.15,498.52,374,499.38,373.9,500.7ZM703,443.88A2.19,2.19,0,0,1,705,445.4c-.14,1.12-1,1.46-1.91,1.65s-1.45-.52-1.55-1.35S701.55,443.83,703,443.88Zm-1.69,14.41c.42.52,1,.89,1,1.28,0,.6-.33,1.32-1.09,1.15a1.45,1.45,0,0,1-.9-1.09C700.25,459.24,700.81,458.85,701.26,458.29Zm-8.81-26.05c1.73-.08,2.49,1.23,2.82,2.63,0,1.54-.55,2.56-2,2.59-1.77,0-2.6-1.2-2.83-2.78A2,2,0,0,1,692.45,432.24ZM677,423.55c2.08-.25,2.94.78,3.08,2.4a2.43,2.43,0,0,1-2.53,2.84c-1.7,0-2.57-1.18-2.6-2.85C674.88,424.44,675.33,423.29,677,423.55ZM670,406a1,1,0,0,1,1-.94,1.13,1.13,0,0,1,1.11,1.27c0,.55-.37,1.27-1.6,1C670,407.23,669.88,406.65,670,406Zm-.11,13.53c-.87,0-1.3-.68-1.33-1.54,0-.68.45-.81.84-.83.86.05,1.46.31,1.56,1.05A1.1,1.1,0,0,1,669.85,419.51Zm.49-7.48c.06,1.42-.56,2-2.16,2.09-1.86.1-2.78-.51-3-2.26s.88-2.36,2.39-2.64A2.77,2.77,0,0,1,670.34,412Zm-3.76-4.43a9.64,9.64,0,0,1-1.13-1.78c-.21-.66.39-1,.88-.82a1.71,1.71,0,0,1,1,1C667.38,406.4,667,406.86,666.58,407.6Zm-.7-5.22c.39.16.65.66,1.1,1.16-.45.31-.7.59-1,.66-.74.18-.87-.48-.86-.93S665.05,402.05,665.88,402.38Zm-2.8-3c1,0,1.58.19,1.42,1.32a1.27,1.27,0,0,1-1,1.51c-.92.11-1.24-.75-1.41-1.52S662.17,399.38,663.08,399.34Zm-3.17,3.3c.82.22,1.49.71,1.3,1.61-.11.55-.72,1.42-1.06,1.41-.83,0-1.16-.93-1.31-1.67S659.18,402.81,659.91,402.64Zm-17.62-10.15c1.48-1.51,2.32-1.59,3.68.37a43.15,43.15,0,0,0,7.5,8.7,7.14,7.14,0,0,1,2,4.33c.42,2.16-.09,4.09-2.22,5.13s-4,.24-5.5-1.26a25.71,25.71,0,0,1-2.69-4c-.62-.1-1.2-.32-1.73.34-1,1.21-2.3,1.86-3.79,1.11-1.65-.82-1.25-2.37-1-3.79l-.74-.81c-.62.34-1.21,1.27-1.93.13-.34-.54-.92-1.06-.26-1.73s1.26-.89,2-.29v-.05h0l.08,0c-.07-2.15.61-3.57,3.16-3.16C640.09,395.51,640.85,394,642.29,392.49Zm12.79,27.13c.1,1.18-.73,1.57-1.82,1.59-1.14-.24-1.92-.86-1.8-2.15.09-1,.54-2,1.67-1.71A2.51,2.51,0,0,1,655.08,419.62Zm-17.89-30.17c.71.23,1.5.63,1.24,1.55-.18.59-.41,1.61-1.45,1.37a1.63,1.63,0,0,1-1.17-1.8C635.83,389.87,636.33,389.41,637.19,389.45Zm-4.39-10.32a3.17,3.17,0,0,1,3.23,3.36c.06,1.91-1.26,2.77-3,3.07-2-.45-3.3-1.57-3.33-3.51A2.71,2.71,0,0,1,632.8,379.13Zm-23.72,111.5c0,1.68-1.8,1.66-2.58,2.46-1.09-.15-2-.7-1.89-1.43.12-1.49,1.48-2.08,2.74-2.36A1.54,1.54,0,0,1,609.08,490.63ZM601.27,371c.63,0,1,.36.87.94a1.76,1.76,0,0,1-1,1.05c-.6.15-.86-.4-.92-1C600.43,371.49,600.63,371,601.27,371Zm-.81,12.08c1.1.18,2.4.39,2.53,1.52.18,1.49-1.18,1.76-2.39,2-1.53.29-1.75-.68-1.77-1.8S599.35,383,600.46,383.06Zm-.1,32.46c1.45,0,1.71,1,1.92,1.94-.19,1.15-.56,2.15-1.69,2.07a2.57,2.57,0,0,1-2.37-2.75C598.21,415.67,599.35,415.52,600.36,415.52Zm-2.18,27.73c.09-.41.56-.72.82-1,.85.29,1.43.66,1.21,1.4-.13.41-.71,1-1,1A1.15,1.15,0,0,1,598.18,443.25ZM600,465c1.66,0,2.18,1.22,2.29,2.6-.1,1.31-.77,2.17-2,2.15a2.24,2.24,0,0,1-2.26-2.66C598.15,465.92,598.75,465,600,465Zm-9.72-55.4a2.25,2.25,0,0,1,2.41,2.58c-.2,1.81-2.35,1.86-3.22,2.93a2.36,2.36,0,0,1-2.07-2.79C587.5,410.51,588.74,409.71,590.32,409.6Zm-13.85-15c.77-.23,1.19.3,1.36,1s-.36,1.42-1.08,1.28c-.5-.11-1-.78-1.26-1.31C575.42,395.46,576.06,394.72,576.47,394.59Zm-2.92-36.2c.59,0,1.25.47,1.15,1.55a1.45,1.45,0,0,1-1.62,1.08c-.56-.09-1.48-.67-1.48-1C571.59,358.87,572.65,358.46,573.55,358.39Zm-.27,30.52c-.34-.38-.87-.7-1-1.13a1.13,1.13,0,0,1,1.11-1.29c.32,0,.94.52,1,.91C574.66,388.16,573.92,388.46,573.28,388.91Zm-5.15,15.64a1.7,1.7,0,0,1-1.27,1.72,1.86,1.86,0,0,1-1.54-1.68c-.19-.87.47-1.17,1.15-1.31A1.32,1.32,0,0,1,568.13,404.55ZM565,333.88c.94-.16,1.49.5,1.55,1.39s-.65,1.36-1.27,1.72c-1-.17-1.87-.51-2-1.3C563,334.57,564,334,565,333.88Zm-2.35,49.39a2.57,2.57,0,0,1,2.06,1.85c-.39.41-.76,1.2-1.25,1.27-1.18.17-1.48-1-1.8-1.8S562,383.08,562.62,383.27Zm-1.22,23a1.4,1.4,0,0,1,1.51,1c.27.87-.38,1.19-1,1.27a1.76,1.76,0,0,1-1.83-1.17A1.25,1.25,0,0,1,561.4,406.25ZM553.66,333c1-.12,1.16.79,1.53,1.18-.05,1.14-.53,1.79-1.36,1.87s-1.32-.76-1.46-1.51C552.19,333.65,552.85,333.13,553.66,333Zm-14.83-8.11c.94-1.81,2.32-.78,3.68-.63-.49,2-1.69,2.5-3.3,2A1.48,1.48,0,0,1,538.83,324.93Zm.84,56.37c0,1.5-1.21,2.29-2.7,2.41-1.78-.49-3-1.52-2.82-3.41a2.31,2.31,0,0,1,2.7-2.35A3.08,3.08,0,0,1,539.67,381.3ZM536.39,344c1.82,1.49-.48,1.76-.71,2.63a2.4,2.4,0,0,0,.07.79c.8.4,2.29-2.06,2.55.63.16,1.71-.41,3.1-2.21,3.19-2.1.12-1.72-1.47-1.45-2.81-1.39-.11-1.5-1.39-2-2.26-.7-1.21-.93-2.72.33-3.51S535.36,343.18,536.39,344Zm-6-24a3.23,3.23,0,0,1,3.3,2.9,2,2,0,0,1-2.21,2.06c-1.86,0-2.75-.85-2.92-2.51C528.41,321.19,528.72,319.88,530.37,320Zm-.13,9c.79-.16,1.14.52,1.44,1.14a2.42,2.42,0,0,1-1.82,1.95,1.26,1.26,0,0,1-1.39-1.16A2.05,2.05,0,0,1,530.24,329Zm-12,143.32c.31-3.15,2-5.2,5-5.38s4.26,1.85,4.34,4.64a5.22,5.22,0,0,1-5.1,5.55C519.45,477,518.6,474.8,518.25,472.29Zm.76,57.54c.13-1,.64-2.29,1.79-2.25.79,0,1.25,1.17,1.43,2.15a1.74,1.74,0,0,1-1.84,1.63A1.34,1.34,0,0,1,519,529.83ZM514.75,354.1c.1-2,1.53-2.92,3.9-2.72,1.8-.5,2.79.66,2.86,2.48.08,2.09-1.53,3.2-3.32,3.3S514.64,356.23,514.75,354.1ZM518,501.89c-.22,1.4-1.21,2.76-2.43,2.74a3,3,0,0,1-2.61-3c-.14-1.82,1.26-2.08,2.61-2.2C517.05,499.62,518.26,500.11,518,501.89Zm-1.52-161.84a1.65,1.65,0,0,1,2.17-1.24c1.22.34,2.2.92,2.3,2.22-.46,1.33-1.35,2-2.49,1.6S516.24,341.36,516.46,340.05Zm5.75,35.76a2.66,2.66,0,0,1,.81-2.11,2.21,2.21,0,0,1,3,.17c1.52,1.6,4,2.14,4.94,4.06-.1,1.55-4,3.34-5.33,2.59A6.44,6.44,0,0,1,522.21,375.81Zm3-53.48a3,3,0,0,1,3.07,2.5c.26,1.64-.82,2.44-2.39,2.46a2.67,2.67,0,0,1-2.92-2.66C522.89,323.26,523.68,322.4,525.26,322.33Zm-3,5.91a5.61,5.61,0,0,1,5,4.76c-.89,2.15-1.71,4.59-4.67,4.56s-4.43-2.06-4.4-4.77C518.21,330.33,519.51,328,522.25,328.24Zm-15.44,2.08c.4-1.62,1.75-2.95,3.63-2.23,2.58,1,2.31,2.87,1.05,4.84.53,0,1.07,0,1.6,0,2.25.16,4.82.87,4.31,3.41-.49,2.38-3.44,2.42-5.5,2-3-.57-2.16-2.71-1.28-4.64C508.25,333.82,506.05,333.48,506.81,330.32Zm-.88,79.59c-.32-.34-.83-.65-.93-1.06a1,1,0,0,1,1.09-1.23,1.54,1.54,0,0,1,1.15.9C507.44,409.31,506.56,409.42,505.93,409.91Zm.14-54.52a2.29,2.29,0,0,1-.46,3.21,25.42,25.42,0,0,1-4.59,3.93c-2.35,1.37-4.49.5-5.82-1.77s-.32-3.93,1.71-5.05c1.85-1,3.81-1.84,4.95-2.38C504.53,352.9,505.24,354,506.07,355.39ZM502.61,406c-.15.08-.67.59-1,.5-.53-.13-1-.7-1.43-1.08.35-.36.65-.88,1.07-1C502,404.08,502.36,404.66,502.61,406Zm-3.81-77.88a4.47,4.47,0,0,1,3.67,3.71c.16,1-.42,2.15-1.51,1.9a5,5,0,0,1-3.72-3.77C497,329,497.59,328.14,498.8,328.07Zm-9.67-37.26c2.11-1.2,4.44-1.63,8-2.45-1.65,1.75-3.7,2.33-1.35,4.3,1,.86.31,3.82-1.93,4.42-1.74.46-4,1.68-5.35-.43C487.31,294.81,486.24,292.45,489.13,290.81Zm-4.67,15.4c1.35.4,2.63,1,2.64,2.57a2.15,2.15,0,0,1-2.24,2.31,2.32,2.32,0,0,1-2.6-2.41C482.18,307.24,483.23,306.62,484.46,306.21Zm-.27,127.65c-.18,1.52-1,2.62-2.47,2.64a2.07,2.07,0,0,1-2.14-2.35,2.23,2.23,0,0,1,2.45-2.46C483.67,431.63,484.08,432.55,484.19,433.86Zm-3.93,62.3c-1.5.1-2.32-1.06-2.48-2.83a2.41,2.41,0,0,1,2.19-2.56c1.8-.2,2.68,1.26,2.93,2.62C483.23,495.15,481.74,496.07,480.26,496.16Zm-5.7-200.78a2.85,2.85,0,0,1,4.16-1.16,3.09,3.09,0,0,1,1.46,4.43c-.32.63-.7,1.23-1.06,1.85h.05l-.05.11c1.11-.05,2.47-.47,2.77,1.11a1.25,1.25,0,0,1-1.57,1.28c-1.45-.3-1.78-1.14-1.2-2.39h-.07l.07-.11a4.82,4.82,0,0,1-3-.67C474.57,298.67,473.53,297.34,474.56,295.38Zm-2.79,41.24a2.8,2.8,0,0,1,2.88-2.75,2.76,2.76,0,0,1,2.83,3.14c-.13,1.89-1.43,2.68-3.09,3.15C472.76,339.51,471.64,338.43,471.77,336.62Zm1.55,125.69c0,.74-.56,1.09-1.31,1.05-.59,0-1.05-.33-.84-.94s.4-1.22,1.34-1.25C472.77,461.51,473.3,461.9,473.32,462.31ZM474,323.42c1.83.39,3,1.34,2.82,3.29a2.8,2.8,0,0,1-3.25,2.75,2.68,2.68,0,0,1-2.61-3C471,324.57,472.28,323.72,474,323.42ZM467.4,468.71c2.63.4,4.55,1.82,4.58,4.92s-2.31,5.14-5.42,5.15c-3.4,0-4.38-2.21-4.49-4.94A5.06,5.06,0,0,1,467.4,468.71Zm-4-64.4c1.53,2.1,3.05,4.36,1.7,7s-4,2.9-7.16,2.49c-5,2.85-5.69-1.31-7.06-4.93-.8-2.1-2.25-4-3.39-5.93a5.17,5.17,0,0,1,.18-6.07c1.37-1.72,3.44-.91,5.21-.36A20.21,20.21,0,0,1,463.39,404.31ZM462,462.88a1.24,1.24,0,0,1-1.28,1.21,1.59,1.59,0,0,1-1-1c-.23-.76.4-1.13.93-1.39C461.47,461.72,462,462.18,462,462.88Zm-18.52,9.86c.79-.09,1.07.58,1.23,1.17a1.7,1.7,0,0,1-.91,1.94c-.82.26-1.39-.59-1.55-1.37S442.54,473,443.47,472.74Zm-1.65-7.45c.1-1,.92-1.2,1.65-1.4,1.06-.29.89.63.9,1.16a1.46,1.46,0,0,1-1.43,1.53C442.22,466.45,441.73,466.09,441.82,465.29Zm1-80.05c0-1.09.82-2.24,2-2s2.6.75,2.66,2.49c-.15,1.33-.89,2.33-2.25,2.18A2.57,2.57,0,0,1,442.82,385.24ZM447,411.13a2.15,2.15,0,0,1,2.12,2.22c.07,1.2-.19,2.2-1.6,2.19a2.5,2.5,0,0,1-2.66-2.4C444.65,411.7,445.93,411.56,447,411.13Zm6.64,72.25c2.72-.35,5.18-.42,5.25,2.87.06,2.94-2.17,4.33-4.72,4.53-2.83.22-5.24-1.35-5.4-4.24C448.54,483.07,451.38,483.15,453.61,483.38Zm3.49-109.13a2.16,2.16,0,0,1-2.08-1.49c-.25-.93.68-1.44,1.38-1.59,1.27-.27,1.71.88,2.31,1.68C458.49,373.73,458,374.29,457.1,374.25Zm-.79-11.37a1.34,1.34,0,0,1-1.45-1.53c.1-.75.48-1.64,1.46-1.64s1.64.77,2.08,1.72A2.25,2.25,0,0,1,456.31,362.88ZM450,329.64c2.12,0,2.29,1.44,2.37,3.84a2.3,2.3,0,0,1-2.46,2.59c-1.91,0-2.06-2-2.16-3.37S447.83,329.65,450,329.64ZM452,339.4a5.91,5.91,0,0,1,5.93,6.19c0,3.21-3.43,6.7-6.35,6.53s-5.88-3.86-5.88-7.58C445.73,342.53,449.49,339.46,452,339.4Zm-7.58-16.74c1-.22,1.06.83,1.48,1.12.12,1-.28,1.56-.93,1.71-1,.24-1.25-.73-1.49-1.39A1.13,1.13,0,0,1,444.46,322.66Zm-.29,9.48c1-.05,1.86.07,2.26,1.37-.29.26-.71.89-1.22,1a1.62,1.62,0,0,1-2-1.39C443.13,332.61,443.51,332.17,444.17,332.14Zm-5.11-10.56a2.13,2.13,0,0,1,.7,4.06c-1.53-.4-2.49-1.07-2.5-2.48C437.25,322.05,437.9,321.48,439.06,321.58Zm-5.94-1.52a3.71,3.71,0,0,1,3,3.29c-.4,1.55-1.29,2.45-2.88,2.32a3.07,3.07,0,0,1-3-3.54A2.23,2.23,0,0,1,433.12,320.06Zm-4.57,89.13c.17.54,0,1.23-.58,1.18a2.63,2.63,0,0,1-2.58-2.06,1.16,1.16,0,0,1,.82-1.53A3,3,0,0,1,428.55,409.19Zm-5.26-40c.92-.1,1.37.54,1.47,1.43a1.68,1.68,0,0,1-1.45,2,1.6,1.6,0,0,1-1.78-1.66C421.49,369.84,422.34,369.31,423.29,369.2Zm-4.21.29c-1.86-.05-3.1-.87-3.22-2.78a3.22,3.22,0,1,1,6.42-.55C422.38,368.17,421,369.22,419.08,369.49Zm4,95.74c.2-.44.49-1.15,1.31-.92.61.17,1.28.59.95,1.39a1.3,1.3,0,0,1-1.59.87C423.12,466.42,422.84,466,423,465.23Zm.87-133.43a4,4,0,0,1,3.81,3.95c.06,1.79-1.31,2.51-3.18,2.13a3.18,3.18,0,0,1-3.48-3.38A2.53,2.53,0,0,1,423.91,331.8Zm-17.14,2.76c2.45-1.76,5.45-2.63,7.53-5.1,1.1-1.31,2.78-.38,3.94.61a3.07,3.07,0,0,1,.78,3.68,2.75,2.75,0,0,1-3.28,1.66c-.77-.12-1.53-.35-2.7-.62.16,2,.34,3.59.39,5.18.09,2.73-1.29,4.43-4,4.44s-4.63-1.3-5-4.18A5.81,5.81,0,0,1,406.77,334.56Zm1.08,32.1c1.13,1.62-.6,2.73-1.82,4.24l-2.94-4.5C405.13,365.61,407,365.36,407.85,366.66Zm-9.92-22.58c1.63-.06,2.32.94,2.54,2.34a2.4,2.4,0,0,1-2.61,2.46,2.16,2.16,0,0,1-2.28-2.24A2.24,2.24,0,0,1,397.93,344.08Zm2.48,39.15c-1.14,3.12-3.05.8-4,.19-2.42-1.48,1.12-1.58.89-2.7-2.26-1.44-1.54-3.38-.89-5.29.77-2.24,1.82-2.44,3.79-.95s2.55,5.38,6.37,4.55c.46-.1.59.75.47,1.29-.45,2.09-2.32.52-3.3,1.25C403,382.93,401.2,382,400.41,383.23Zm-3.9,42.09c.78-.21,1.66-.16,1.62,1.79a.94.94,0,0,1-1,.57,2,2,0,0,1-2.12-1.32C395,426.16,395.93,425.47,396.51,425.32Zm-7.45-16.88a2.41,2.41,0,0,1,2.51,2.49c-.17,1.53-1,2.5-2.51,2.49a2.23,2.23,0,0,1-2.47-2.45A2.37,2.37,0,0,1,389.06,408.44ZM387.7,428.5a1.9,1.9,0,0,1,1.95,1.65c-.26,1.11-.74,2.3-1.91,2.3s-1.81-1.09-1.84-2.26A1.56,1.56,0,0,1,387.7,428.5Zm.15,30.28a1.68,1.68,0,0,1-1.62-1.51c-.2-.93.39-1.45,1.31-1.69a1.84,1.84,0,0,1,1.55,1.53A1.36,1.36,0,0,1,387.85,458.78Zm10.49,7.44c.61,1.82,2.27,1.71,3.48,2.4,1,.58,2.53.74,2.36,2.31s-1.76,1.43-2.81,1.84a7.36,7.36,0,0,1-4.21,0c-1.86.28-3.62.91-5.05-.65s-1.82-3.27-.29-5a12,12,0,0,1,1.77-1.64c1.38-1,1.81-3.73,3.54-3.46C399.07,462.31,397.86,464.77,398.34,466.22Zm.36,18.22c0-.07,0-.12,0-.18,0-.22-.17.15-.77.07-.91-.11-.79-.88-.81-1.48s0-1.1.81-1,.94.71.77,2.36C398.72,484.3,398.71,484.35,398.7,484.44Zm-5.21,4.64a1.91,1.91,0,0,1-1.6-2.36,1.85,1.85,0,0,1,2.36-1.54c1.36.24,1.5,1.31,1.57,2.38A1.71,1.71,0,0,1,393.49,489.08Zm5.76,19.6c-1.51.09-2.14-.91-2.16-2.19s.76-1.89,2.16-1.88,1.71.91,1.8,1.95A1.81,1.81,0,0,1,399.25,508.68Zm5.89-6.11c-.17.91-.79,2-1.73,2a2,2,0,0,1-1.73-2.28c.05-1,.89-1.55,1.94-1.65C404.62,500.88,405.34,501.51,405.14,502.57Zm-4-4.12c-1.24.76-7.43-4.7-6.64-5.37,2.18-1.84,4.9-3,7.4-4.47.06,3.06,4.22,2.83,4.62,5.91C405.89,497.11,403.08,497.28,401.18,498.45Zm4.95-9.57c-.3-1.24.77-1.45,1.71-1.68,1.06.07,1.68.59,1.62,1.73s-.53,1.89-1.59,1.86S406.33,489.72,406.13,488.88Zm4.61,14.37a2.11,2.11,0,0,1-1.37,1.17c-1,.26-.79-.76-1-1.27-.4-.86.15-1.13.84-1.27C409.85,502.22,411,502.17,410.74,503.25Zm-1-19.23c-.21-.55.42-1.16,1.3-1.28.89.26,2,.59,2.1,1.78,0,.4-.74,1.15-1.27,1.29C410.51,486.17,410.07,484.91,409.74,484Zm3.46,25.4c-1-.06-.65-1-.91-1.53s.22-.76.57-.74c1,.07.58,1,.84,1.42C414,509.27,413.57,509.45,413.2,509.42ZM401.29,448.8c-2.05-.38-3-1.12-3.64,1.35a4.94,4.94,0,0,1-3.89,3.21c-2.3.57-5.38-1.93-4.41-3.78,1.82-3.49,3.18-7.55,7-9.51s6.16-.42,6.82,4.82c2.45.37,4.5-3.17,6.7-1.33s6.42.22,6.71,4.49h.4c1.23,0,2.63-.92,3.58.51.16.24-.18,1-.5,1.34-1.57,1.45-2.2-.73-3.35-.94C411.6,452.28,406.35,449.72,401.29,448.8Zm14.44,63.44a3.18,3.18,0,0,1,3.51-3.44c1.92,0,4.1.72,4.16,3.21.07,2.78-2.21,2.41-4.27,2.47C417.93,514.12,415.67,515.28,415.73,512.24ZM423.46,537a1,1,0,0,1-1.68-.06c-1.28-1.57-.18-2.66,1-4C423.79,534.38,425.09,535.48,423.46,537Zm.87-31.44c-2,.16-2.61-1.3-2.67-2.79A2.05,2.05,0,0,1,424,500.6c1.58.1,2.27,1.18,2.49,2.59C426.61,504.82,425.72,505.45,424.33,505.57Zm1.58-8.1c-.75.16-1.24-.17-1.19-1s-.1-1.75,1-1.67c.48,0,.9.78,1.27,1.13C427,496.82,426.6,497.33,425.91,497.47Zm3.3,10.5c-1,.17-1.2-.88-1.3-1.65a1.26,1.26,0,0,1,1.35-1.56,1.48,1.48,0,0,1,1.27,1.37A1.87,1.87,0,0,1,429.21,508Zm1.52-127.3a1,1,0,0,1-1.1.87.87.87,0,0,1-.92-1c0-.68.53-.78,1.11-.8C430.19,380,430.9,379.87,430.73,380.67Zm4-7.31c-1.51-.09-2.19-1.47-2.42-2.81a1.65,1.65,0,0,1,1.67-1.87c1.48,0,2.26,1.19,2.73,2.52C436.48,372.34,435.9,373.44,434.74,373.36Zm1.08-35.53c-1.36,0-5.63-3.46-5.25-4.48a3.24,3.24,0,0,1,2.59-1.87c2.34.86,3,3,3.77,5.15C437.17,337.32,436.7,337.83,435.82,337.83Zm1.25-6c-.4-1.32.36-2.08,1.63-2.09a2,2,0,0,1,2.05,2,2.93,2.93,0,0,1-1.9,2.83C437.29,334.29,437.39,332.87,437.07,331.81Zm2.25,33.51a2.19,2.19,0,0,1,2.41-2.18,2.48,2.48,0,0,1,2.21,2.47c-.34,1.33-1,2.31-2.5,2.16A2.14,2.14,0,0,1,439.32,365.32Zm.08,128.76a2.53,2.53,0,0,1,2-2.27c1-.18,1.44,1,1.91,1.84-.71.67-.62,2.11-2,2.08C440.18,495.71,439.35,495.16,439.4,494.08Zm1.8,11.42c-.72-.06-1.11-.46-1.07-1s.55-1.28,1.29-1a1.67,1.67,0,0,1,.78,1.21C442.3,505.36,441.61,505.38,441.2,505.5Zm6.66,42.87a1.84,1.84,0,0,1-1.7-1.43,2.27,2.27,0,0,1,1.87-1.77,1.26,1.26,0,0,1,1.35,1.19C449.27,547.18,449,548.34,447.86,548.37Zm-2.74-43.14c-1-1.64-1.62-3.54-3.67-4.49a1.65,1.65,0,0,1-.38-3c1.13-.87,2.61-.73,2.94.72.57,2.45,1.61,1,2.44.47,4.16-2.46,8.24-5.07,12.45-7.45,2-1.13,4.42-2.8,4.26,1.93-.05,1.26.39,4.26,3.54,3.16.86-.3,1.95.34,1.8,1.11-.89,4.56,3,2.6,4.73,3.64-1.4-2.28-.46-4,1.59-5.69.47,1.69,4.6,2.84.27,5,3.93,1.37,8-.69,9.59-5,1.18-3.09,1.07-6.36,1.07-9.59,0-22.25.07-44.51-.11-66.76,0-3.59,1-4.74,4.56-4.49a95.79,95.79,0,0,0,13.34,0c3.55-.27,4.22,1.11,4.16,4.33-.2,9.84-.08,19.69-.09,29.54,0,11.4,0,22.8-.07,34.2,0,2.12.13,3.51,2.76,3.78s3.59,2.28,3.5,4.68a4,4,0,0,1-4,4.24c-2.48,0-2.73,1.31-3.17,3.11-2.13,8.67-6.65,15.51-15.1,19.26-.8.36-1.81.46-2,1.7a2,2,0,0,1-2.12,1.57c-7.07-1.75-14.29.81-21.43-1.13C457,517.7,450,513,445.12,505.23Zm62,24.09c2.54.51,3.21,3.09,4.06,5.07.31.75-1.29,1.88-2.84,2-2.32-.53-3.1-2.55-3.56-4.67A1.9,1.9,0,0,1,507.15,529.32Zm-.88-16.88c.06-.28.49-.57.81-.68.57-.18,1.05,0,1.07.82a1,1,0,0,1-1,.93A.85.85,0,0,1,506.27,512.44ZM504,529.93c-1.36,1.81-2.27,4-4.65,4.73-.66.2-1.47.15-1.69-.6a2.41,2.41,0,0,1,1.29-3c1.49-.73,2.49-2.53,4.48-2.12C503.7,528.94,503.83,529.53,504,529.93Zm-37.93-7c0,1-.55,1.58-1.39,1.4-1.14-.25-2.47-.76-2.7-2-.2-1,.89-1.39,1.79-1.5C465.3,520.77,466.07,521.41,466.11,522.9Zm-11.82,46.61c-.85-.06-2.09.41-2-1.09a2.39,2.39,0,0,1,2.43-2.16c1.11,0,1.5.85,1.7,1.8C456.45,569.62,455.4,569.57,454.29,569.51Zm46.88,91.16c-2.05,2.15-5,2.49-7.61,3.38-1.57.53-2.49-1.06-2.37-2.48.41-5-3.4-7.51-6.35-10.33a7.27,7.27,0,0,1-2.64-5.54c-.39-.33-.82-1-1.32-.55-.93.75-1.68,1.83-3.05.92-.48-.32-.78-1-.2-1.27,1.13-.59,2-2.44,3.7-.92,0-2.32-.2-4.91,3-5.11,2.91-.19,4.52,1.07,4.83,4.42.5,5.29,1.44,5.75,6.67,5.63a6.48,6.48,0,0,1,6.47,4C503.5,655.54,503.38,658.35,501.17,660.67ZM481.36,597.5a1.7,1.7,0,0,1,1.68-1.8c1.08,0,2.32.73,2.29,1.72s-1.16,1.61-2.2,1.93C482.23,599,481.34,598.57,481.36,597.5Zm27.58,66.36a2.88,2.88,0,0,1-3.16-2.91,2.2,2.2,0,0,1,2.36-2.53c2.13-.18,2.94,1.24,3.23,2.88S510.25,663.78,508.94,663.86Zm-2.52-46.37a1.85,1.85,0,0,1,1.5-2,2.36,2.36,0,0,1,2.51,2.06c0,.74-1.27,1.52-1.89,2.2A2.19,2.19,0,0,1,506.42,617.49ZM521,614.64c0,.45-.11,1.24-.31,1.3-.72.18-1.08-.43-1.35-1-1.18-.11-2.35-.3-3.53-.33-5.56-.11-8.56-2.73-9.3-8.19-.1-.74.22-1.63-.76-2-3,6-4.1,12.69-6.49,18.92-.39,1-.7,2-1.21,3.48-.6-1.64-1.1-2.82-1.46-4-.49-1.63-1-2.89-3.21-2.3-1.7.44-2.87-.57-3.18-2.29s.16-3.34,1.89-3.46c2.46-.16,1.29-1.24.94-2.27-3.3-9.89-6.65-19.76-9.83-29.69-.58-1.81-1.28-2.11-3.1-2.08-3.09.06-5.17-1.65-4.76-5,.37-2.92-1.42-2.93-2.69-1.8-4.72,4.23-8.6-.9-12.9-1-1.42,0-2.52-2.77-2.55-4.45,0-1.49,2-1.23,3.27-1.61,6.06-1.83,11.69,1.63,17.81,1.16-2.88-8.57-5.76-17.28-8.75-26-.79-2.3-.67-3.08,2.22-3.27,4-.26,7.86-2.11,12.12-1.66,2,.2,3.93-.38,5.62,1.23,1.07,1,2.58.54,3.89.55,10.75,0,21.49,0,32.66,0-2,6.34-3.89,12.31-5.79,18.29-.51,1.62-1.13,2.89.59,4.61s1,4.13-1.7,4.4c-1.95.19-2.08,1.32-2.51,2.52-3.78,10.68-6.26,21.8-10.77,32.24a7,7,0,0,0-.11,2.39c1.87.52,2.06-1.39,3-2.16,4.59-3.91,9.85-4.59,13.16-1.53s3,7.36-.87,12.66C521.06,613.09,521.09,613.87,521,614.64Zm6.29,3.69a1.49,1.49,0,0,1-1.28-1.67c.11-.82.39-1.93,1.58-1.81.84.08,1.18.92,1.43,1.67C528.86,617.51,528.34,618.37,527.33,618.33Zm1.86-16.25c2.88.44,2.45,3.43,3.1,5.42a1.77,1.77,0,0,1-2,2.28c-2.27-.58-2.39-2.86-2.82-4.76C527.71,603.77,527.38,601.8,529.19,602.08Zm-.56-28.67c-1.1.17-1.73-.56-1.8-1.65s.41-1.54,1.41-1.5a2.16,2.16,0,0,1,2,1.61A1.91,1.91,0,0,1,528.63,573.41Zm5.93-7.27c-2.81.12-3.33-2.11-3.8-4.3.46-1.75.27-4,3.08-3.78,2.61.2,3.74,2.25,4,4.31A3.26,3.26,0,0,1,534.56,566.14Zm61.18-80.67c-2.83-.52-2.36.16-2,2.58a26.85,26.85,0,0,1-5.28,20.47c1.36.66,3.82-1.11,4.12,1.81a2.07,2.07,0,0,1-1.67,2.43c-1.9.41-3.17-.22-3.39-2.32h0c-15.06,14.8-44.42,13.61-60,.28,0,.53.05,1.06.09,1.58a1.66,1.66,0,0,1-1.43,2.05,1.58,1.58,0,0,1-1.75-.7c-.64-1-.08-1.75.51-2.54s1.37-.7,2.17-.73c-2.23-3-5-5.62-6.88-8.89-1.13-1.91-1.14-3,1-4.09,3.43-1.82,6.74-3.87,10.28-5.93-.67-.88-1.23-1.7-1.87-2.45s-2.61-1.2-1.89-2.64,2.73-1.84,4.24-1.83,2.26,1.27,2.16,2.87c-.08,1.25-.3,2.43,1.82,1.68,1.41-.49,1.83,1.27,2.48,2.18,6.4,8.89,15,11.74,25.51,9.38,4.15-.93,7.05-3.43,8-7.61s-.74-7.69-4.24-10.14c-6.65-4.64-14.54-6.72-21.66-10.39.08.39,0,.92.27,1.14,1.7,1.53,3.11,3.14,1.07,5.32-1.26,1.35-5.92.29-7-1.74-1.19-2.3-1.36-4.63,1.71-5.84-.56-1.88-2.34-2.47-3.71-3.46-10.49-7.5-14.35-17.75-12.68-30.33.17-1.31.67-2.61-.24-3.9a1.81,1.81,0,0,1,.33-2.25c5.38-6.08,9.84-13.16,18.35-15.69a42.7,42.7,0,0,1,27,.34c6.79,2.38,11.6,7.13,15.46,13.05.92,1.42,1.08,2.23-.47,3.19-4.47,2.76-8.91,5.56-13.29,8.47-1.71,1.14-2.55.59-3.54-.94-2.19-3.36-4.94-6.07-9.19-6.64l-3.18.13c.61,3.07-1,5.58-4,5.6-3.46,0-1.56-2.49-1.66-4-5.27,2.59-6.1,10.23-1.19,14.25,4.07,3.33,8.72,5.77,14.21,6.23,1.75.15,2.24,2.42,4.09,3.13a55,55,0,0,1,13,7.15,32.57,32.57,0,0,1,8.35,8.65c1.52,2.4,1.78,6.25,6.58,4.32,1.8-.72,3.4,1.55,3.26,3.66A3.12,3.12,0,0,1,595.74,485.47Zm-57.51.81c.13-1.87,1.23-3.42,3.28-3.45a2.73,2.73,0,0,1,3,3.08c-.17,1.75-1.06,3.38-3.3,3.4A2.63,2.63,0,0,1,538.23,486.28Zm21.85,6.31c0-1.23,1-1.78,2.2-1.72a1.73,1.73,0,0,1,1.8,1.78c-.38,1.13-1.1,2.31-2.28,2.29S560,493.67,560.08,492.59Zm22-42.33c-.28,2.94-1.4,4.46-3.89,4.25s-3.7-1.82-3.61-4.36,1.47-4,4.06-3.8C581.39,446.53,581.56,448.84,582.06,450.26ZM600,506.88c-.35,0-.85-1-1-1.57a1.35,1.35,0,0,1,1.24-1.67c.9-.12,1.39.52,1.54,1.39C601.37,505.87,601,506.89,600,506.88Zm4.09-21.75c-1.1-.24-2.51-.77-2.54-2.09,0-.8,1-1.46,2.09-1.33s2.23.29,2.19,1.72C605.78,484.44,605.12,485.34,604.07,485.13ZM607,532.58a2.15,2.15,0,0,1-2.39-2.51c.06-1.74.72-3.27,2.58-3.46,1.57-.15,2.5,1.07,3.13,2.15C609.75,530.89,609,532.49,607,532.58Zm2.69-33.89a1.75,1.75,0,0,1-1.76-1.84,2.06,2.06,0,0,1,1.86-1.86c1-.1,1.34.69,1.39,1.6C611,497.53,610.59,498.59,609.64,498.69Zm11.17-6.2c-1,.18-1.93,0-1.88-1.37,0-.84.34-1.81,1.26-1.69s1.51.87,2.22,1.31A1.85,1.85,0,0,1,620.81,492.49ZM623.52,481c-.6.1-1.12-.57-1.25-1.26a1.1,1.1,0,0,1,1-1.41c.7-.06,1.15.47,1.36,1.44C624.33,480.11,624,480.9,623.52,481Zm9.3,16.56-.1,0a.09.09,0,0,0,0,0c-1.34.94-2.48.78-3-.86A1.33,1.33,0,0,1,631,495c1.92-.18,2.2,1,1.75,2.51l0,0h0l0,0c1.37-.72,2.75-1.7,4.06.18C635.44,499.78,634.11,499.05,632.82,497.54ZM641.54,478c-1.07.16-1.78-.2-1.55-1.19.11-.49.94-1.24,1.3-1.17.66.14,1.62.73,1.71,1.26C643.15,477.71,642.36,478.17,641.54,478ZM647,479.3c-.47,0-1.19-.67-1.39-1.2-.4-1,.72-1.17,1.26-1.65a1.43,1.43,0,0,1,.13,2.85Zm3.77,13.21a2.56,2.56,0,0,1-2.5-2.63,2.38,2.38,0,0,1,2.26-2.73,2.46,2.46,0,0,1,2.65,2.76A2.62,2.62,0,0,1,650.8,492.51ZM661,494.09a1,1,0,0,1-.69-1.23c.17-.73.59-1.18,1.44-.86.49.19,1,.35,1.24.43C662.2,493.81,661.75,494.3,661,494.09ZM660,490.9c-1.11-.66-2.94-.59-2.91-2.88s1.44-3.1,3.24-3.24a2.76,2.76,0,0,1,3.17,2.82C663.61,489.7,662.17,490.58,660,490.9Zm10-3.22c-1.92-.24-2.87-1.26-2.77-2.68a3,3,0,0,1,3.06-3c1.63,0,2.36,1,2.35,2.55C672.65,486.51,671.15,487.07,670,487.68Zm12.93,10.41a1.12,1.12,0,0,1-1.3-1.14,1.49,1.49,0,0,1,1.1-1c.4,0,.83.54,1.15.79C683.81,497.56,683.55,498,682.94,498.09Zm10.12-17.82c-.22,2.16-2.32,2.34-3.62,3.28-1.28-.35-1.37-1.25-1.26-2.23.2-1.85,1-3.71,2.77-4C692,477.16,693.23,478.71,693.06,480.27Zm2.25,5.61c0-1,1-1.59,1.93-1.8a1.64,1.64,0,0,1,2.12,1.76c0,1-.81,1.61-1.82,1.88C696.54,487.4,695.27,487.24,695.31,485.88Zm5.54,11a2.33,2.33,0,0,1-2.39-2.63c.1-1.47.74-2.8,2.4-2.53a2.71,2.71,0,0,1,2.5,2.71C703.13,495.81,702.51,497,700.85,496.89Zm6.61-25.16a3,3,0,0,1-3.12,1.4c-10.5-2-21.08-.62-31.63-.61-6.64,0-13.29.17-19.93.23-12.94.12-25.88.16-38.82.35-2.16,0-3-.37-3-2.79.1-22.65.06-45.29.07-67.94a11.21,11.21,0,0,1,.25-1.51c10.64,7.7,21,15.26,31.43,22.74,4.23,3,8.21,6.44,12.83,8.91.07-1.44.41-2.49,2.24-2.49,1.07,0,1.7.2,2.11,1.21.83,2-1.48,2.42-1.93,3.77q19,13.63,37.93,27.25c3.38,2.43,6.82,4.77,10.17,7.23C706.8,470,708.39,470.4,707.46,471.73Zm2.47,8.59c-.74,0-1.47-.24-1.53-1-.09-.93.63-1.41,1.53-1.39s1.13.62,1.47,1.21A1.58,1.58,0,0,1,709.93,480.32Zm7.35.8a1.85,1.85,0,0,1-2-2,2.58,2.58,0,0,1,2.37-2.75c1.22-.09,1.89.8,1.92,2.31A2.34,2.34,0,0,1,717.28,481.12ZM721,443.89c-.57,0-1.52.33-1.34-.78.06-.42.64-.75,1.12-1.27.46.44,1,.71,1.13,1.11C722.11,443.56,721.63,443.93,721,443.89ZM734.63,461c-1.2.79-2.19,0-2.68-.88a8.26,8.26,0,0,0-3.68-3,3,3,0,0,1-1.55-3.38,2.71,2.71,0,0,1,2.35-2.42,2.66,2.66,0,0,1,3.22,1.81c.61,2.41,3.72,2.72,4.06,5A3.85,3.85,0,0,1,734.63,461Zm7.79,13.76c-1.61.15-2.19-.94-2.18-2.19a1.87,1.87,0,0,1,2-2c1.36,0,1.84.81,2,2C744.07,473.6,743.78,474.59,742.42,474.71Zm10.21-2.34c-1.47,0-2.25-.54-2.31-2s.39-2.25,2-2.2,2,.92,2.17,2.27C754.39,471.54,754.11,472.38,752.63,472.37Zm22.72,15.78c-.36,1.9-1.52,3.56-3.83,3.31a2.54,2.54,0,0,1-2.49-3,3.52,3.52,0,0,1,3.58-3.14C774.25,485.6,775.68,486.36,775.35,488.15Zm6.26,3.75c-.1.77-.46,1.59-1.37,1.69s-1.3-.8-1.47-1.48c-.25-1,.52-1.34,1.34-1.58C780.92,490.64,781.74,490.88,781.61,491.9Z"/><path class="cls-1" d="M760,497.3l.08,0a.43.43,0,0,0,0-.05Z"/><path class="cls-1" d="M760.05,497.21Z"/><path class="cls-1" d="M759.92,497.23l0,.07h0l.08-.08Z"/><path class="cls-1" d="M357.55,306.23a.43.43,0,0,0,0,.42A2.08,2.08,0,0,1,357.55,306.23Z"/><path class="cls-1" d="M318.57,187c2.46,7.52,4.54,15.19,7.45,22.54,2.82,7.15,2.72,15.55,8.84,21.32-1.56,8.37,3.69,15.09,5.61,22.61s4.72,14.85,7,22c2-.13,1.14-2,2.52-2.25a9.45,9.45,0,0,0,.75.84c3.25,3,5.16,6.06.68,9.63A1.91,1.91,0,0,0,351,286c1.18,3.39,1.34,7.46,6,8.45a16.14,16.14,0,0,1,3.27,1.53c1.43.67,2.73,1.54,2.18,3.34a3.55,3.55,0,0,1-3.64,2.63,11.67,11.67,0,0,1-3-1c.66,2,1.19,3.62,1.72,5.25.51.33.95,1.1,1.67.57.9-.65,1.66-.77,2.33.22a1.35,1.35,0,0,1,0,1.79c-.95,1.06-1.87.54-2.79-.06.92,5,2.92,9.75,4.47,14.59,3,9.36,6.11,18.69,9.17,28l.57-.14v-1.91c0-14.83.07-29.67-.05-44.5,0-2.61.6-3.55,3.31-3.37,3.49.25,7,0,10.52.1,2.3.08,2.67-.42,1.88-2.73C384.51,287,380.65,275,376.7,263.07c-.42-1.26-.78-2.48-2.6-2.33-2.16.17-2-2-2.45-3.12-.61-1.64.6-1.37,1.76-1.14.68.14.57-.87.41-1.2-2.43-4.89-1-11.53-6.79-14.9-.47-.28-.77-1-.14-1.25,2.55-1.14.75-2.72.41-4-1.18-4.57-3.35-8.87-4.22-14.12,1.18.73,1.84,1.16,2.52,1.56,3.23,1.91,5.73,5.5,10.32,4.24A1.73,1.73,0,0,1,378,228.3c.52,5.66,5.84,6.82,9.16,9.81,1.11,1,2.38,2.47,4.48.86,1.2-.92,2.19.15,2,1.79-.35,3.17,1.25,4.15,4.07,3.33,1.52-.44,2.77.09,2.74,1.37-.08,3.85,2.61,4.29,5.28,4.56,2.52.26,3.58,1.67,3.77,4.07,1.73-1.17,2.32-3.44,4.48-3.21.5.05,1.13,1.2,1.25,1.92.38,2.21-2.1,1.89-3,3,.14.32.18.66.36.8q17,12.42,34,24.83c1.19.86,2,.95,2.93-.34s2.67-1.66,3.85-.35c1.47,1.62-.81,2.13-1.33,3.18a9.8,9.8,0,0,1-.66.95c3.11,2.28,6.1,4.56,9.19,6.7,2.52,1.75,5,1.31,7.46-.37,1-.7,1.38-1.53.44-2.18-2.89-2-1.79-5.48-3.19-8.06-.8-1.49-1-3.9.92-5.13s3.26.29,4.63,1.36h0a8.41,8.41,0,0,1,3.47,2.2c4.77,5,8.89,2.34,13-1.1a23.76,23.76,0,0,1,2.95-2.09c1.6-1,1.56-1.89.06-2.92-2.66-1.83-5.29-3.69-7.92-5.55l-28.24-20c-2.68,6.55-2.68,6.46-9.3,5.91-2.16-.18-3.54-1.37-3.66-3.1-.38-5.5,4.78-4.58,8.17-6.2C443,239.73,437,235.24,430.82,231c-1.89-1.3-3.59-3.93-6.7-2.24-.36.19-2-.59-1.8-1.75.36-2.33-1.4-3-2.79-4-13.21-9.25-26.25-18.74-39.51-27.92-17.12-11.86-33.86-24.29-50.8-36.41-2.56-1.83-4.88-5-8.78-2.6-.14.09-.63-.4-1-.62-.2.15-.52.27-.57.46-.5,1.85-1.53,2.79-3.46,1.94a1.69,1.69,0,0,1-.75-2.38c.9-2,2.42-1.51,3.93-.75-1.05-1.18,1.6-2.54-.31-3.84-4.63-3.13-9.14-6.43-13.7-9.67a198,198,0,0,0,6.45,22.93Q314.82,175.61,318.57,187Zm148.74,75.2a1.69,1.69,0,0,1,1.83-1.25,2.54,2.54,0,0,1,1.75,2c-.47.69-.94,1.43-1.91,1.14S467.07,263.32,467.31,262.23Zm-11.66,1.26c.76-1.42,2.06-2.25,3.69-1.61,1.81.7,3.38,1.55,5.59,1.27,1.79-.22,1.2,2.24,1.94,3.4H467l0,0c2.77-2.36,3.55.6,4.85,1.93s.56,2.7-.67,3.72c-1.54,1.29-3.22,2-5,.45-1.64-1.39-1.49-3-.34-4.59.37-.52.78-1,1.18-1.51l0,0a.56.56,0,0,1-.05-.08c-2.38,0-4.78-.53-6.66,2-.9,1.21-2.77.56-3.93-.6A3.54,3.54,0,0,1,455.65,263.49Zm-11.34,9.31c.39-1.24.13-2.63,1.76-4.94-.36,3.64,5.28,3.85,2.22,7.52C446.35,277.7,443.36,275.85,444.31,272.8Zm-9.7-13.55a2.35,2.35,0,0,1,3.28-2c1.87.63,2.87,1.93,2,4-.18.43-.39.84-.59,1.25h.06s0,.06,0,.08a2.11,2.11,0,0,1,2.81,1.29c.25.52-.51,1.26-1.25,1.2-1.56-.14-1.84-1.17-1.56-2.49l-.1,0,.06-.12a10.07,10.07,0,0,1-1.91-.09C435.73,262.07,434.26,261.2,434.61,259.25Zm-2.88-25.08c1.48-.15,1.5,1.16,1.76,2.12-.2,1.16-.53,2-2,2s-1.85-1-1.85-2.07A2.09,2.09,0,0,1,431.73,234.17Zm-2.21,12.16a2.47,2.47,0,0,1,2.58,2.08c-.07,2.05-.84,3.29-2.55,3.34a2.33,2.33,0,0,1-2.49-2.51C427,247.55,427.71,246.35,429.52,246.33Zm-7.61,5.38c.39.13.62.72.82,1,0,1.05-.66,1-1,.8s-.62-.7-.92-1.07C421.17,252.16,421.65,251.62,421.91,251.71Zm-24.79-21.88A2.09,2.09,0,0,1,399,231a1.89,1.89,0,0,1-1.64,1.51c-1,.09-1.37-.71-1.47-1.48S396.46,229.89,397.12,229.83ZM391,234.28c.87-.13,1.47.63,1.47,1.52,0,1.19-.94,1.51-1.9,1.73-.69,0-1.36-.08-1.41-1A2,2,0,0,1,391,234.28Zm-6.71-4.71a1.82,1.82,0,0,1-2,1.48c-.87,0-1.64-.39-1.53-1.43a2,2,0,0,1,1.73-1.94C383.38,228,384.35,228.59,384.27,229.57Zm-4.12-11.74c1.56-.19,1.72.89,1.82,2,.16,1.38-.71,1.57-1.74,1.51-1.22-.09-2.16-.8-2.14-2C378.12,218.4,379.15,218,380.15,217.83Zm-7.77-11.89a2.11,2.11,0,0,1,2.41-1.7c1,.17,1.5,1,1.35,2.83a1.43,1.43,0,0,1-1.72.91C373.45,207.76,372.16,207.14,372.38,205.94Zm.7,3.52c-.31.51-.64,1.63-1.14,1.72-1,.17-1.56-.79-1.7-1.75-.11-.77.44-1.2,1.13-1.34C372.28,207.91,372.92,208.22,373.08,209.46Zm-5-11.59c.11-.82.64-1.5,1.6-1.3a1.5,1.5,0,0,1,1.24,1.74c-.13.72-.44,1.57-1.51,1.67A2.16,2.16,0,0,1,368.12,197.87Zm-2.35,12.65a1.7,1.7,0,0,1,1.91,2c-.13.77-1.06,1.4-1.6,2.06-1-.59-2-1-2-2.07A1.87,1.87,0,0,1,365.77,210.52Zm-2,98.81c-.77.26-1.26-.18-1.4-.91,0-.14.47-.51.75-.55a1,1,0,0,1,1.28.71C364.18,308.8,364,309.23,363.73,309.33Zm7.7,17.8c-.08,1.06-.53,1.84-1.7,1.75a1.64,1.64,0,0,1-1.66-1.84c.11-1.11.78-2.21,2-2.05A1.87,1.87,0,0,1,371.43,327.13Zm-2.86-19.25A1.36,1.36,0,0,1,370,309.4a2.46,2.46,0,0,1-1.33,2.13c-1-.46-1.77-1.12-1.85-2S367.59,307.9,368.57,307.88Zm-5.48-59.61a2.24,2.24,0,0,1,2.39-2.15c1.25.08,1.64,1.16,1.78,2.27a1.91,1.91,0,0,1-2.15,1.87C364.06,250.15,362.92,249.61,363.09,248.27Zm1.24,43.43c1.06,0,1.5,1,1.69,1.95-.35.88-.68,2-1.83,1.77a1.81,1.81,0,0,1-1.71-1.91A1.94,1.94,0,0,1,364.33,291.7Zm-5.32-77c2.28,0,3.34,1.28,3.53,3.62-.61,1.86-1.64,3.7-3.92,3.58-2.12-.11-3.84-1.42-3.7-3.85S356.68,214.64,359,214.69ZM357.2,281c2.29.11,3.29,1,3.14,3.07s-1.22,3.22-3,2.88c-2.58,0-3.86-1.15-3.67-3.12C353.82,282,354.87,280.86,357.2,281Zm-8.82-13.78a1.07,1.07,0,0,1-1.25-1.11,1.43,1.43,0,0,1,1.38-1.16c.82-.06,1.08.54,1.41,1.25A5.43,5.43,0,0,1,348.38,267.19ZM346.5,201.1c1.63.21,2.93.9,2.91,2.7a2.54,2.54,0,0,1-2.81,2.73c-1.42-.11-2.89-.85-3-2.68S345,201.48,346.5,201.1Zm-5.43,26.08a2.17,2.17,0,0,1,2.52-.78,2.44,2.44,0,0,1,1.76,2c.21,2.33-2.28,2.1-3.25,3.32,1.25,1.39,1.68,3.08-.26,3.81a2.9,2.9,0,0,1-3.77-2.08c-.45-2.37,1.3-2.81,3.25-2.65C340.56,229.64,339.91,228.42,341.07,227.18Zm-3.49-28.67c.57-.12,1,.06,1.51,1.3-.19.07-.66.29-1.15.44a.89.89,0,0,1-1.18-.62A1,1,0,0,1,337.58,198.51ZM319.88,159c.57.31,1.26.56,1.21,1.37s-.46,1.59-1.38,1.47a1.4,1.4,0,0,1-1.06-1.49C318.65,159.58,319.28,159.31,319.88,159Z"/><path class="cls-1" d="M361.47,164.92c-.71,1.9.22,2.24,1.28,3,5.27,3.72,10.6,7.37,15.75,11.26,1.64,1.23,2.72,1.24,4.51.3,8.68-4.59,17.52-8.86,26.92-11.8-1.26-2.19-2.21-4.24-5.72-3.43-2,.46-3.34-2-3.65-4.1s-.38-4.45-1.65-6.66c2.2,1.09,4.19.92,6.36.6,2.9-.43,5,2.05,4.51,5.17-.25,1.67-.85,2.75,1.68,3.23,1.83.34,1.3,2.22.39,3.56,1.26.43,2.33-.18,3.48-.57a264.71,264.71,0,0,1,32.61-8.93c1.56-.31,4,.37,2.78-2.84-.23-.61,1.07-1.47,2-1.58s1.81.46,1.8,1.27c0,2.2,1.17,1.76,2.54,1.53,2.56-.44,5.34-.09,7.21-2.61a1.58,1.58,0,0,1,2.49-.27c1.64,1.9,3.69,1.15,5.59,1a248.31,248.31,0,0,1,121.41,18.07c4.82,2,9.85,6.31,14.28,5.72,4.66-.61,8.73-5.79,13-9,4.78-3.56,9.52-7.16,14.58-11-5.55-2.88-10.5-5.59-15.57-8.05A275.69,275.69,0,0,0,500.83,120.6c-2.41,0-5-.67-6.77,2-.8,1.21-2.16.47-2.69-.43-1.08-1.8-2.64-1.51-4.24-1.48-15.3.24-30.38,2.42-45.35,5.28A259,259,0,0,0,398,138.57a271.55,271.55,0,0,0-41.2,19.62C361.8,161.91,362.41,162.38,361.47,164.92Zm255.84-2.07c1.08-.18,1.27.73,1.63,1.46-.22.92-.47,1.86-1.68,1.83-1,0-2.17-.54-2.19-1.35C615,163.7,616.18,163.05,617.31,162.85ZM600.14,161c.8,0,1.29.77,1.3,1.67s-.74,1.76-1.34,1.61a2.83,2.83,0,0,1-1.86-1.75C598.09,161.56,599.26,161,600.14,161Zm-37-17.72a2.25,2.25,0,0,1,2.66,1.93c0,1.92-1,2.72-2.24,2.73a2.43,2.43,0,0,1-2.7-2.41A2.12,2.12,0,0,1,563.17,143.3Zm-12.08-7.88a1.72,1.72,0,0,1,2.17-1.29,2.4,2.4,0,0,1,1.79,2,2.28,2.28,0,0,1-2.1,1.5C552,137.45,550.78,136.77,551.09,135.42Zm-12.58-.93a2.9,2.9,0,0,1,3,2.71c-.2,2.41-1.53,3.48-3.46,3.44a2.81,2.81,0,0,1-3-3.08A3,3,0,0,1,538.51,134.49Zm-31.07-3.79a2.34,2.34,0,0,1,2.76-1.93c.88-.12,1.41.31,1.2,1.36-.29,1.4-.93,2.67-2.55,2.59A1.53,1.53,0,0,1,507.44,130.7Zm1.62,8.13c1.49.43,3,1.2,3.15,3.16a1.92,1.92,0,0,1-2.36,1.49,3.33,3.33,0,0,1-3-3.19C506.76,139.29,508.18,138.58,509.06,138.83Zm-31.4,2.25c1.52,0,1.9,1.42,2,2.44.13,1.23-.91,1.79-2,1.65-1.43.17-2.26-.38-2.19-1.7A2.26,2.26,0,0,1,477.66,141.08Zm-38.22-6.57c.53.41.3,1-.14,1.28-1.05.78-1.49-.61-2.34-.73C437.82,134.46,438.61,133.87,439.44,134.51Zm-5.08,1.59a1.29,1.29,0,0,1,1.45,1.11c-.29.79-1.07.71-1.63.72a.94.94,0,0,1-1-1C433.26,136.21,433.82,136.13,434.36,136.1ZM421.51,153c1.35,0,2.42.56,2.39,2.06s-.81,2.38-2.54,2.32c-1.38-.06-2.34-.35-2.44-2.09A2.47,2.47,0,0,1,421.51,153Zm-28,7.26c.73.07,1.32.33,1.26,1.16a1.3,1.3,0,0,1-1.18,1.31c-.33,0-.77-.66-1-1.1C392.25,160.76,392.93,160.49,393.54,160.24Zm-11.9-.14c.59-.3,1,0,.93-.37.14,1.8-.27,2.35-1,2.29-.37,0-.7-.64-1.05-1A6,6,0,0,1,381.64,160.1Zm-3.3,12.29c-.15,1.1-.57,2-1.87,2-1.59,0-2.9-.37-2.94-2.35,0-1.39.74-2.63,1.94-2.45A3.29,3.29,0,0,1,378.34,172.39Zm-12.4-17.74c1.72-.27,3.53.28,4.57-2,.35-.76,1.39.18,1.59,1,.35,1.42.58,2.88.86,4.32,1.5-.67,2.78-.59,3.71,1,.58,1-.09,1.43-.77,1.85-2.09,1.29-2.67-.65-3.65-1.74-1.78,1-6.66-.45-7.28-2.19C364.61,155.91,364.84,154.82,365.94,154.65Z"/><path class="cls-1" d="M758.13,310.38l.07-.05,0,0-.08-.05S758.14,310.33,758.13,310.38Z"/><path class="cls-1" d="M758.24,310.3h0l0,0S758.23,310.32,758.24,310.3Z"/><path class="cls-1" d="M679.75,191.69c-2.72,8.69-5.35,17.42-8.37,26-1,2.87-.48,4.46,1.61,6.56q63,63.35,72.42,152.24c.14,1.31,0,2.2,1.89,2.78,3.25,1,3.63,4.67.73,6.45a3.29,3.29,0,0,0-1.77,3.48c.57,15.93.32,31.83-2.37,47.6-.42,2.46,1.26,3.23,2.79,4.34,1.26.91,2.18,1.81,3.52-.06.73-1,2.24-.87,3.3,0s1.45,2.32.36,3.14c-1.58,1.2-.64,1.59.28,2.24q7.89,5.6,15.78,11.19c.6.43,1.31,1.37,2,.5a2.47,2.47,0,0,0,.07-2.25c-.79-1.47-1.94-3.06-.26-4.31,3.15-2.34,2.18-5.71,3-8.75-3.84.41-8-.75-8.58-3.68-.61-3.17,4-3.28,6.51-3.76,1.9-.37,2.57-.88,3-2.55.93-4,2.25-7.91.25-12-.71-1.47-1.12-3.19.69-4.31,1.49-.92,1-2.37,1.09-3.61a276.34,276.34,0,0,0-10.28-88,17.89,17.89,0,0,0-6.19-9.48,6.29,6.29,0,0,1-2.89-5.19,1.42,1.42,0,0,0-.12.13h0l0,0c-1.2.77-2.33.71-3.07-.66-.54-1,.52-1.68,1.08-1.69,1.39-.05,2.43.56,2.06,2.2l.08.05c1.74-2,1.65-3.5-1.09-4.65-5.87-2.47-6.87-6.55-2.61-11.25a3.16,3.16,0,0,0,.68-4.13c-4.59-10.2-9.54-20.19-15.11-29.9a280,280,0,0,0-33.38-46,255.78,255.78,0,0,0-25.59-25.2A4.44,4.44,0,0,0,679.75,191.69Zm81.67,249.4a2.09,2.09,0,0,1-2.33-2.17c-.11-1.53,1-2,2.2-2.32,1.35.25,2.2.87,2.13,2.39A2.06,2.06,0,0,1,761.42,441.09Zm1.44-60.35a2.85,2.85,0,0,1-2.57-2.62,2,2,0,0,1,2.19-2.3,2.25,2.25,0,0,1,2.55,2.42A2.41,2.41,0,0,1,762.86,380.74ZM766,418.22c0,1.29-.44,2.26-1.26,2.06a5,5,0,0,1-3.47-4c-.22-.9.35-1.55,1.34-1.54C765.14,414.78,765,417.18,766,418.22Zm6.52-44.64c1.25-.17,1.61,1.06,2.18,1.81-.52,1.09-.81,2.38-2.08,2.24a2.18,2.18,0,0,1-1.91-2.19A2.13,2.13,0,0,1,772.52,373.58Zm-6.1,59.77c-1.36,0-1.83-1.08-2-2.08-.26-1.54,1-2,2.17-2.13s1.84.73,2,1.9C768.44,432.33,767.88,433.32,766.42,433.35Zm.85-23.41a1.29,1.29,0,0,1,1.19,1.3,1.55,1.55,0,0,1-1.37,1.68,2,2,0,0,1-1.3-1.68C765.71,410.33,766.36,409.82,767.27,409.94Zm-4-44.61c2.46.27,3.4,1.84,3.27,4.3-.87,1.23-.25,4.17-2.68,3.62-2.07-.47-4.37-2.26-4.4-4.66A3.32,3.32,0,0,1,763.22,365.33ZM758.12,417a1.86,1.86,0,0,1-1.64-1.87,1.33,1.33,0,0,1,1.42-1.5c.84.06,1.25.75,1.37,1.59A1.57,1.57,0,0,1,758.12,417Zm-.33-85.5c-1.11-.13-1.49-1.16-1.65-2a1.13,1.13,0,0,1,1.25-1.19c.94.23,1.41,1.13,1.8,2C758.88,330.84,758.56,331.54,757.79,331.45Zm-.9-11.48c1.39-.05,1.75.91,2,2-.25,1.25-.85,2.21-2.36,2-1.15-.13-2.15-.8-2-2A2.29,2.29,0,0,1,756.89,320ZM752,357.2c3,0,5.59,2.56,5.12,5.44-.36,2.19-.61,5.25-3.23,5.75-3,.57-6.15-2.63-6.12-6.19C748.16,360.34,748,357.18,752,357.2Zm-1.16-68.06c1.44-.24,1.86.69,2.22,1.68,0,1-.28,1.59-1.33,1.67a1.85,1.85,0,0,1-2.2-1.77C749.4,289.72,749.93,289.3,750.88,289.14Zm-6.83,10.39a2.39,2.39,0,0,1,2.72-2.29c1.85.16,2.19,1.62,2.47,3-.27,1.66-1.08,2.22-2.74,2.1C744.56,302.19,743.86,301.12,744.05,299.53Zm-.72,12.37c.5,0,1,.23,1,1.17l-1,1.23c-.35-.36-.87-.67-1-1.1C742.07,312.43,742.66,312,743.33,311.9Zm-6-45.29a.87.87,0,0,1,1-1c.7.05,1.34.33,1.06,1.39-.23.46-.38,1.22-1.26,1.13S737.38,267.22,737.36,266.61Zm-1.92-6.32c1-.13,1.37.89,1.23,1.65a8.38,8.38,0,0,1-1.28,2.21A9.84,9.84,0,0,1,734.1,262,1.42,1.42,0,0,1,735.44,260.29Zm-9-9.83a1.1,1.1,0,0,1,1.18,1.2,4.66,4.66,0,0,1-.87,1.6,1.65,1.65,0,0,1-1.31-1.37A1.25,1.25,0,0,1,726.42,250.46Zm-8.13,3.39c1.45.72,1.64,1.45.76,2.32a1.77,1.77,0,0,1-.87.35A2.82,2.82,0,0,1,718.29,253.85Zm.76,7.85c1.18-.16,1.69.51,1.72,1.29a1.13,1.13,0,0,1-1.32,1.12,1.65,1.65,0,0,1-1.62-1.36A1.13,1.13,0,0,1,719.05,261.7Zm-3.39,2.41c.81,0,1.47.18,1.32,1a2.17,2.17,0,0,1-1.5,1.7,1,1,0,0,1-1.43-.89C713.94,264.87,714.86,264.45,715.66,264.11ZM691.71,207.5a2.81,2.81,0,0,1,2.9,2.51c.06,1.81-.65,2.37-2.2,2.37a2.37,2.37,0,0,1-2.7-2.33A2.1,2.1,0,0,1,691.71,207.5Z"/><path class="cls-1" d="M758.08,310.4l0,0h0a.07.07,0,0,1,0-.05Z"/><path class="cls-1" d="M752.9,514.41c-1.55.59-2.84,2.72-4.8.44-1.76-2,2-1.83,1.31-3.07-5.79-1.73-10.5.78-15,3.57-1.72,1.07-2.35.12-3.39-.58-1.95-1.3.64-1.81.48-2.8l-7.94-.18c-2.41-.38-3.41,1-4.42,3a238,238,0,0,1-31,46.59c-2.44,2.89-4.92,5.75-7.64,8.93,3.57.65,6.82,0,9.48,2,1.06.8,2.33,1.35,1.8,3.15-1.52,5.22-4.4,6.64-9.47,4.78a9,9,0,0,1-4.57-3.12c-1.38-2-2.32-1.81-3.92-.14-5.41,5.65-11.42,10.67-17.23,15.89-8.81,7.93-19.05,13.93-28.35,21.2-3.38,2.64-8.35,4.31-12.51,6.52-22.25,11.83-45.54,20.92-70.43,24.79-9.39,1.45-13.91,5-15.58,14.23-1.27,7-4.19,13.63-6.5,20.83,8.38-.93,16.13-1.75,23.78-3.33a.77.77,0,0,0,0-.72c-3.47-2.08-4.27-6.64-1.6-9.31.43-.43,1.28-1,1.67-.81a11.81,11.81,0,0,1,5.34,4.67c1.26,1.93-.28,3.21-1.34,4.55a3.51,3.51,0,0,1,.06.79c2.8-.54,6-.11,7.74-3.23a1,1,0,0,1,1.67-.3c2.3,1.72,4.65.6,6.94,0A279.25,279.25,0,0,0,662.16,628c1.8-1.31,4.53-2.07,4.12-5.28a.94.94,0,0,1,1.4-.86c2.79,1.76,3.38-1,4.76-2.19-2.34-.2-4-.94-4-3.8,0-1.88.89-2.7,2.61-2.73,2.63-.06,3.77,1.49,4,3.94,1.64.34,2.34-1.08,3.38-1.83,5.49-3.92,9.94-9,14.76-13.64a273.43,273.43,0,0,0,59.29-83.89c.49-1.06,1.34-2.07,1-3.4l-.3.09ZM535.7,665.74a2.35,2.35,0,0,1-2.28-2.62c.07-1,.84-2.4,2.22-2.27s2.11,1.36,2.61,2.49C537.7,664.68,537,665.77,535.7,665.74Zm12.8-2.51a3.2,3.2,0,0,1,0-6.4,3.28,3.28,0,0,1,3.15,3.44A2.85,2.85,0,0,1,548.5,663.23Zm26-8.41a4.17,4.17,0,0,1-4.16,4.07c-3.52-.16-5.16-2-5.09-4.88a4.16,4.16,0,0,1,4.27-4.39C572,649.5,574.75,652.27,574.45,654.82Zm48.07-16.58a1.91,1.91,0,0,1-2-2,1.62,1.62,0,0,1,2-1.41,7.37,7.37,0,0,1,2.06,1.36C624.08,637.38,623.49,638.18,622.52,638.24Zm8-15.84c-1.79-.17-3.76-1.23-3.84-3.1-.06-1.25.79-3.72,3-3.65a3.64,3.64,0,0,1,3.78,3.42A2.79,2.79,0,0,1,630.48,622.4Zm5.9,14.13a3.81,3.81,0,0,1-2.28-2.62c.21-.91.69-1.5,1.67-1.34a2.28,2.28,0,0,1,2,2.58C637.77,636.06,637.47,636.88,636.38,636.53Zm19.81-11.41c-1.22-.53-3.05-.48-3.14-2.42,0-.93.79-.82,1.24-.86,1.61.27,3.09.63,3.56,2.14A1.27,1.27,0,0,1,656.19,625.12Zm3.19-23.5a3.84,3.84,0,0,1-3.75-4c0-2,1.12-3.17,3.33-3.14,2.47,0,3.22,1.53,3.48,3.63C662.24,600,661.44,601.71,659.38,601.62Zm9.63,8c-.89-.24-1.77-.89-1.32-2,.25-.65.46-1.79,1.47-1.48a2.64,2.64,0,0,1,1.53,2.18C670.43,609.17,669.93,609.92,669,609.67Zm15.46-16.73c-2.15,0-2.76-1.51-2.75-3.13s1.39-2.22,2.86-2.07a2.66,2.66,0,0,1,2.62,2.85C687.05,592.39,686.06,593,684.47,592.94Zm18.93-3.8a1.8,1.8,0,0,1-2.22-1.71c-.16-1.1.78-1.89,1.47-2.56,1.57.09,1.88,1.3,2.19,2.21C705.21,588.15,704.28,588.89,703.4,589.14ZM716.48,560c.6,1.22-.46,2.47-1.74,3.28-1.49.93-2.59.16-3.69-.59a3,3,0,0,1-1.24-3.9c.9-2,1.16-3.46-.32-5.46s2.42-7.72,4.6-7.15c2.58.67,1.62,3.54,2.63,5.63A7.89,7.89,0,0,0,716.48,560Zm12.75-29.68a1.7,1.7,0,0,1-1.52-1.48c-.06-.93.45-1.94,1.34-2s1.6.94,1.66,1.87S730.11,530.08,729.23,530.29Zm3.34,10.49a1.24,1.24,0,0,1-1.22-1.62c.19-.88.52-2,1.54-2s1.44,1,1.58,2A2,2,0,0,1,732.57,540.78Z"/><path class="cls-1" d="M223.05,460.55c.25,1.22.15,2.78,2.1,1.32,6.3-4.69,12.63-9.36,19.85-14.71-1.94,0-2.69,0-3.44,0-2.21-.14-4.66-.5-5.48-2.67s1.33-3.72,2.53-5.17c1.39-1.69,3.16.06,4.74.43A7.54,7.54,0,0,1,247,442.2c.71.76,1,2.51,2.71,1.53,1.49-.86,1.63-2,1.36-3.69a227.86,227.86,0,0,1-2.94-33.4c0-1.83.56-3.85-1.79-5-.65-.3-.89-1.91-.22-2,3.35-.58,1.92-3.12,2-4.76a222.15,222.15,0,0,1,1.58-22.18,3.05,3.05,0,0,0-1.58-3.58c-2.53-1.64-2.05-5.35.42-6.18,3.48-1.17,3.78-2.07,1.36-5.14-1.74-2.22-1.86-3.93,1.16-4.78,1.86-.52,1.92-1.86,2.23-3.36a243.3,243.3,0,0,1,27.64-72.4c1.27-2.17,0-4.32.74-5.84s3.55-1.18,4.95-3.49a236.22,236.22,0,0,1,23.06-31.14c3-3.55,8.4-6.14,8.73-10.66.32-4.34-2.5-8.91-3.95-13.37a5.94,5.94,0,0,1-.31-.75c-.51-3.07-1.88-2.48-3.2-.63-1.22,1.69-2.68,2.36-4.49,1.46a4.17,4.17,0,0,1-2.24-4.43c.34-2.88,1.26-5.72,4.26-6.81,2-.74,1.95-1.94,1.3-3.3s-.4-3-1.81-3.9c-.14.05-.3.06-.39.15a276.07,276.07,0,0,0-70.66,102.08c-.26.65-1.25,1.45-.43,2.13,2.79,2.33.76,3.38-1.13,4.33a4.34,4.34,0,0,0-2,2.83,294.8,294.8,0,0,0-10,34.47c-.43,1.89-.71,3.48,2.18,3.09,1-.14,2.39.2,2.07,1.67-.27,1.2-1.8,1-2.41.69-3.14-1.78-3.12.64-3.44,2.47a256,256,0,0,0-3.58,26c-.16,2.33-1.23,4.68,1.28,6.67,1.18.93.68,2.76-.53,3.52-1.86,1.18-1.72,2.89-1.83,4.59a257.66,257.66,0,0,0,.51,32.76A283.57,283.57,0,0,0,223.05,460.55Zm90.79-240.88c1.2.15,2.33.62,2.4,2.21-.35,1.36-1.24,2.51-2.63,2.46a2.41,2.41,0,0,1-2.31-2.72A2.17,2.17,0,0,1,313.84,219.67ZM304,222.19c2.49,0,5,.05,6.7,2.3.18.24-.21,1.32-.38,1.33-2.75.15-5-1.12-7.31-2.74C303.62,222.52,303.81,222.19,304,222.19Zm-8.11-5.08c2,.06,3.28.89,3.37,3,.05,1.11-.77,1.55-1.72,1.76-1.57-.78-3.21-1.55-3.5-3.47C293.84,217.08,294.9,217.08,295.89,217.11ZM261.1,312.77a1.45,1.45,0,0,1-1.85-1.3,1,1,0,0,1,1.13-1.23c1,.07,1.24.9,1.44,1.65S261.34,312.64,261.1,312.77Zm18.15-52.68a1.18,1.18,0,0,1,1.31,1.13,1.15,1.15,0,0,1-1.22,1.19,1.6,1.6,0,0,1-1-1C278,260.68,278.57,260.28,279.25,260.09Zm.14,3.23c1.62-.14,2.59.23,2.46,1.61-.1,1-.68,2.34-1.78,2.25s-2.53-.72-2.7-1.95C277.15,263.68,278.81,263.73,279.39,263.32Zm-5.15.79v.09c.73-.1,1.57-.4,2,.44.27.52-.22,1.06-.79,1.07-1,0-1.21-.69-1.21-1.51h-.11l.11-.1-.11.1s0-.08,0-.12c-.92-.13-2.09.15-2.24-1.24,0-.31.69-1,1-1,1.41.13,1.1,1.33,1.23,2.24ZM271,252.77a2.34,2.34,0,0,1,2.28,1.89c.11.72-.77,1.26-1.47,1.38a1.85,1.85,0,0,1-2-1.69C269.65,253.49,270,252.71,271,252.77Zm-7.67,30.76c1,0,1.4.68,1.45,1.45s-.41,1.22-1.51,1.27c-.4-.37-1.28-.8-1.43-1.41C261.65,284,262.47,283.57,263.35,283.53ZM260.52,294a14,14,0,0,1,5.47,3.19c.56.5-4.29,4.38-5.65,4.12-2.25-.44-3.37-2-3.64-4.25C257.08,294.93,258.47,293.43,260.52,294Zm-2.77,9.32c1.36,1.31,1.34,2.84-.49,4.79-.41-1.87-3-2.35-2-4.5A1.54,1.54,0,0,1,257.75,303.28Zm-4-3.51c1,0,1.06.92,1.49,1.25-.41,1.06-.62,2-1.6,1.88-.83-.1-1.23-1-1.32-1.72C252.21,300.25,252.81,299.74,253.75,299.77ZM223.62,431.44a2.63,2.63,0,0,1-3-2.87c0-1.81.72-3.09,2.67-3.31s2.74,1.16,3.13,2.49C226.38,430,225.37,431.27,223.62,431.44Zm5.12,3.12c-.26.68-.53,1.46-1.37,1.67a2,2,0,0,1-1.53-2.15,1.34,1.34,0,0,1,1.69-1.26C228.2,433,229.14,433.51,228.74,434.56Zm8.31-13.37a1.84,1.84,0,0,1-1.89-2.06,1.72,1.72,0,0,1,1.6-1.88c1.13.56,2.08,1.33,2,2.67A1.42,1.42,0,0,1,237.05,421.19Zm6.58-18.51a1.35,1.35,0,0,1,1.3,1.61c-.11.56-.66,1-1,1.55a2.44,2.44,0,0,1-1.41-1.89A1,1,0,0,1,243.63,402.68Zm-2.38,27.11a2.14,2.14,0,0,1,2.47,2.1c.12,1.29-.7,1.92-1.82,2.23a2.42,2.42,0,0,1-2.53-2.18A1.83,1.83,0,0,1,241.25,429.79Zm-7.38-43.7a2,2,0,0,1,1.91,2.09c.07,1.16-.73,1.56-1.8,1.5-1.36.06-1.87-.85-1.91-2A1.56,1.56,0,0,1,233.87,386.09Zm-10-14.66a4.82,4.82,0,0,1,4.08,4.3c0,2.23-1.07,2.86-2.6,2.62-2.71-.43-3.71-2.42-3.83-4.87A1.88,1.88,0,0,1,223.88,371.43Zm-3.43,18.07c.92-.17,1.46.44,1.76,1.26-.32.67-.47,1.59-1.41,1.59-.77,0-1.08-.7-1.26-1.36A1.1,1.1,0,0,1,220.45,389.5Zm-.84,11.28c.79-.87,1.28-.25,1.86.11.42-1.51-.52-4.66,3-2.44a10.89,10.89,0,0,1-.32-2.74,5.17,5.17,0,0,1,3.29-4.26c1.64-.57,1.85,1.54,2.76,2.4,2.47,2.36,4,5.48,6.8,7.65,1.72,1.36,2.22,3.65,2.23,5.84a3.85,3.85,0,0,1-2.89,3.92,4.67,4.67,0,0,1-5-1.64c-1.22-1.44-2.25-3-3.35-4.57l-.05,0,0-.12c-1,1.69-2.32,3.07-4.36,2.42s-1.7-2.36-1.25-4l-.78-.8c-.61.24-1.12,1.26-1.87.16C219.19,402.09,218.89,401.57,219.61,400.78Z"/><path class="cls-1" d="M457.31,649.34c-.66-2.15-2-2.67-3.8-2.93-6.54-.93-12.92-2.6-19.35-4.09-7.58-1.74-14.77-4.89-22.58-5.89-4.9-.62-8.52-4.43-13-6.34a242.68,242.68,0,0,1-53.41-31.5,246.43,246.43,0,0,1-65.34-75.67c-1.53-2.76-3.27-3.88-6.56-3.79-9.83.25-19.67.09-29.51.09l-.49,1.32c1.12,1.27.87,3.41,3.25,4,.79.18,2.06,1.56,1.42,2.52-1.28,1.93.21,3.06.87,4.36a186.5,186.5,0,0,0,12,20.56c1.48,2.16,1.8,5.79,5.71,5.64.21,0,.76,1,.62,1.22-1.57,2.28.57,3.5,1.52,4.86,2.52,3.66,5.19,7.23,8,10.67s5.22,9.44,9.19,9.25c8.37-.42,1.07,8.48,6.39,8.92a282.89,282.89,0,0,0,31.52,29c2.7,2.14,5.21,4.52,8.87,1.77a1.54,1.54,0,0,1,2.18.4c1.43,2.38,5.93,1.77,5.65,5.8,0,.18.55.52.88.56s.75,0,.41-.67c-1.33-2.53.87-1.68,1.64-1.43a7.22,7.22,0,0,0,5.45-.44c1.74-.76,4-.72,4.42,1.29.68,3.06,1.59,6.77.46,9.36-1.5,3.43,0,4,2.23,5.31a278.64,278.64,0,0,0,55.11,24.6,248.89,248.89,0,0,0,39.54,9.59c-.88-2.66-.36-4.78,2.05-5.86a3.92,3.92,0,0,1,4.53.5c2.19,2,1.13,4.13.08,6.42,2.55.32,4.95.59,7.34.94,2.11.3,2.55-.18,1.8-2.37Q461.66,663.38,457.31,649.34ZM256.45,525.65c-.57-.17-1.52-.77-1.47-1,.19-1,1.19-1.19,2-1.32s1,.61,1.14,1.24A1.19,1.19,0,0,1,256.45,525.65Zm23.25,10.49a4.32,4.32,0,0,1-4.07,4.28,3.66,3.66,0,0,1-2.86-4.18c.17-2.29,1.44-4.24,4-4.18C279.18,532.11,279.81,534.22,279.7,536.14Zm6.64,4.74c-1,.25-.81-.72-1-1.22-.38-.78.06-1.18.66-1.52.74.27,1.53.55,1.59,1.47S286.92,540.73,286.34,540.88Zm7.23,22.87c.05-2,3.56-6.37,5.07-6.24s2.73,1.19,2.23,2.7c-.82,2.49-.73,5.84-4.25,6.33C294.76,566.28,293.51,565.68,293.57,563.75Zm12.21,20.94c-.27,3-2.26,4.49-5,4.95-2.24.38-2.15-1.45-2.36-2.69.44-3,1.1-5.76,4.58-5.89C305.23,581,306,582.74,305.78,584.69Zm6.91,8.36a3.12,3.12,0,0,1-3.49-3.46A3.69,3.69,0,0,1,313,585.7a3.31,3.31,0,0,1,3.53,3.48C316.2,591.45,315.05,593,312.69,593.05Zm28.75,28.28c-.61.08-1.07-.12-1.09-.79a1.28,1.28,0,0,1,1.3-1.27,1.15,1.15,0,0,1,1.29,1.21C342.88,621.46,342.08,621.28,341.44,621.33Zm.08-7.37c-2.65.25-4.82-2.53-7.8-1.38-.5.19-1.29-1.33-1.17-2.28s1.07-2,1.9-1.66c1.91.79,2.54-.44,3.57-1.5a3.48,3.48,0,0,1,4.39-.78,3.92,3.92,0,0,1,2.44,3.79A3.48,3.48,0,0,1,341.52,614Zm6.15,12.12c-.88.23-1.47-.41-1.74-1.25a1.71,1.71,0,0,1,1.84-1.2c.89,0,1.81.4,1.73,1.2C349.46,625.32,348.37,625.89,347.67,626.08Zm73.11,27.37c-1.77-.32-3.06-1.29-3.23-3.11a2.49,2.49,0,0,1,2.69-2.85,3,3,0,0,1,3.16,3C423.49,652.31,422.49,653.2,420.78,653.45Zm14,18.7a3.17,3.17,0,0,1-3-3.17,2.07,2.07,0,0,1,2.49-2.34c1.79.24,2.54,1.62,2.79,3.3C436.86,671.34,436,672.29,434.73,672.15Zm5.84-14a1.42,1.42,0,0,1-1.44-1.16c-.13-1,.81-.85,1.31-1.18.62.21,1.39.24,1.43,1.13A1.17,1.17,0,0,1,440.57,658.1Zm7.5,13.34a1.59,1.59,0,0,1-1.27-2.09c.43-1.06,1.13-2.38,2.51-2.11,1.12.23,1.75,1.36,2.16,2.21C450.57,671,449.56,671.87,448.07,671.44Z"/><path class="cls-1" d="M466.72,279.17a5.46,5.46,0,0,0,1.61,5c.9.89,2-.8,2.83-1.54s2.38-.85,2.24-2.44l-3.37-2.3C468.79,278,467.15,277.31,466.72,279.17Z"/><path class="cls-1" d="M754.74,511.26a1.62,1.62,0,0,0-1.5-.05c-1.19.74.52,1.17.3,1.83a11.28,11.28,0,0,1-.64,1.37c.17-.37.38-.39.62-.06.69-.08.7-.66.83-1.14C754.53,512.55,755.73,512,754.74,511.26Z"/><path class="cls-1" d="M752.9,514.41l.32,0,.3-.09C753.28,514,753.07,514,752.9,514.41Z"/><path class="cls-1" d="M382.5,475.92a1.84,1.84,0,0,1-.62-.42c-2,.2-1.68,1.72-1.74,3a5.12,5.12,0,0,0,.87-.08C381.22,477.49,382.08,476.79,382.5,475.92Z"/><path class="cls-1" d="M381,478.45a5.12,5.12,0,0,1-.87.08l.93,1A2,2,0,0,1,381,478.45Z"/><path class="cls-1" d="M382.67,475.49a7,7,0,0,0-.79,0,1.84,1.84,0,0,0,.62.42A2.26,2.26,0,0,0,382.67,475.49Z"/><path class="cls-1" d="M547.27,676.4a.86.86,0,0,1-.25.71c1.38-.2,3,.54,4.09-.83a1.69,1.69,0,0,1-.33-.62A6.21,6.21,0,0,1,547.27,676.4Z"/><path class="cls-1" d="M550.78,675.66a1.69,1.69,0,0,0,.33.62,3.51,3.51,0,0,0-.06-.79A2,2,0,0,1,550.78,675.66Z"/><path class="cls-1" d="M547.27,676.4H547a.77.77,0,0,1,0,.72A.86.86,0,0,0,547.27,676.4Z"/><path class="cls-1" d="M483,655.74c-.77,0-1.6-.25-2.26.33l2.44.71A1.82,1.82,0,0,1,483,655.74Z"/><path class="cls-1" d="M483,655.74a1.82,1.82,0,0,0,.18,1c.26-.46.52-.92.79-1.38A1.57,1.57,0,0,1,483,655.74Z"/><path class="cls-1" d="M483,655.74c0-.15,0-.29,0-.43-.85-.17-1.71-.38-2.3.76C481.35,655.49,482.18,655.77,483,655.74Z"/><path class="cls-1" d="M483,655.31c0,.14,0,.28,0,.43a1.57,1.57,0,0,0,1-.34A3.71,3.71,0,0,1,483,655.31Z"/><path class="cls-1" d="M669.4,166.48a5.17,5.17,0,0,0,1,1.07c.16-.32.54-.74.44-.93a6.09,6.09,0,0,0-1.11-1.29C669.56,165.83,669.29,166.25,669.4,166.48Z"/><path class="cls-1" d="M643.07,401.46l-1.34-1.65-.14-.19c-1.2.55-2.28,1.52-3.76,1.11l-.08.06h0l0,0c0,.6.11,1.2.16,1.8l.74.81C639.72,401.07,641.22,400.41,643.07,401.46Z"/><path class="cls-1" d="M641.73,399.81l1.34,1.65a7.47,7.47,0,0,1,1.11.79l0-.38c-.52-.86-1-1.72-1.57-2.58a3.66,3.66,0,0,0-1,.33Z"/><path class="cls-1" d="M644.05,402.83a3.59,3.59,0,0,0-.4-.64c-.19-.25-.39-.49-.58-.73-1.85-1-3.35-.39-4.48,2C640.3,402.18,642,400.8,644.05,402.83Z"/><path class="cls-1" d="M644.18,402.25a7.47,7.47,0,0,0-1.11-.79c.19.24.39.48.58.73a3.59,3.59,0,0,1,.4.64l.07.07Z"/><path class="cls-1" d="M403.72,381.57a14.85,14.85,0,0,1-4.29.58,1.46,1.46,0,0,1,1,1.08C401.2,382,403,382.93,403.72,381.57Z"/><path class="cls-1" d="M398,381.47h0l.31.23a9.54,9.54,0,0,0,1.09.44,14.85,14.85,0,0,0,4.29-.58A14.45,14.45,0,0,1,398,381.47Z"/><path class="cls-1" d="M399.43,382.15c-.16,0-.32,0-.48,0l1.46,1.08A1.46,1.46,0,0,0,399.43,382.15Z"/><path class="cls-1" d="M399,382.15c.16,0,.32,0,.48,0a9.54,9.54,0,0,1-1.09-.44Z"/><path class="cls-1" d="M398,381.47h0Z"/><path class="cls-1" d="M556.66,433.14a.68.68,0,0,1,.28.23l3.18-.13A5.69,5.69,0,0,0,556.66,433.14Z"/><path class="cls-1" d="M555.27,432.61c.33.46,1,.3,1.39.53a5.69,5.69,0,0,1,3.46.1C558.63,432.07,556.88,432.87,555.27,432.61Z"/><path class="cls-1" d="M556.66,433.14c-.18.06-.35.13-.53.21.27,0,.55,0,.81,0A.68.68,0,0,0,556.66,433.14Z"/><path class="cls-1" d="M556.13,433.35c.18-.08.35-.15.53-.21-.44-.23-1.06-.07-1.39-.53A.83.83,0,0,0,556.13,433.35Z"/><path class="cls-1" d="M519.38,614.92c.27.59.63,1.2,1.35,1,.2-.06.28-.85.31-1.3.05-.77,0-1.55,0-2.32C520.2,613,521.57,615.11,519.38,614.92Z"/><path class="cls-1" d="M519.38,614.92c2.19.19.82-1.93,1.68-2.6C519.63,612.63,520.79,614.6,519.38,614.92Z"/><path class="cls-1" d="M226.85,401.49c-.4-.51-.81-1-1.21-1.51l-.24-.27-3.87,1.3v1.6l.78.8C223.56,401,225.08,400.4,226.85,401.49Z"/><path class="cls-1" d="M225.64,400c.4.5.81,1,1.21,1.51a7,7,0,0,1,1,.81c0-.13,0-.26,0-.38l-1.59-2.52-.93.31Z"/><path class="cls-1" d="M227.76,402.94a2.73,2.73,0,0,0-.34-.71l-.57-.74c-1.77-1.09-3.29-.54-4.55,1.92C224,402.19,225.76,400.68,227.76,402.94Z"/><path class="cls-1" d="M227.88,402.3a7,7,0,0,0-1-.81l.57.74a2.73,2.73,0,0,1,.34.71l.05.05C227.83,402.76,227.86,402.53,227.88,402.3Z"/><path class="cls-1" d="M644.42,402.55c.49.78.11,1.81.66,2.57,1.15-1.46.5-2.46-.87-3.25C644.46,402.11,644.52,402.34,644.42,402.55Z"/><path class="cls-1" d="M644.51,404.9a8.42,8.42,0,0,0-.36-1.81C644.21,403.72,643.93,404.49,644.51,404.9Z"/><path class="cls-1" d="M644.12,402.9l0,.19a8.42,8.42,0,0,1,.36,1.81,1.44,1.44,0,0,0,.57.22c-.55-.76-.17-1.79-.66-2.57A.8.8,0,0,1,644.12,402.9Z"/><path class="cls-1" d="M644.2,402.27a1.18,1.18,0,0,1,.22.28c.1-.21,0-.44-.21-.68l0,.38Z"/><path class="cls-1" d="M644.42,402.55a1.18,1.18,0,0,0-.22-.28l0,0-.06.65A.8.8,0,0,0,644.42,402.55Z"/><path class="cls-1" d="M227.94,405.07l.05,0,0,0Z"/><path class="cls-1" d="M227.92,401.92a.67.67,0,0,1,.24.64h0A2.33,2.33,0,0,1,228,405l0,0C230.55,404,229.3,403,227.92,401.92Z"/><path class="cls-1" d="M227.93,405v.09l0,0Z"/><path class="cls-1" d="M227.82,403.14c0,.51.06,1,.1,1.54v-.21A3.91,3.91,0,0,0,227.82,403.14Z"/><path class="cls-1" d="M227.81,403v.15a3.91,3.91,0,0,1,.1,1.33v.21c0,.1,0,.2,0,.3l0,0a2.33,2.33,0,0,0,.2-2.46h0A.85.85,0,0,1,227.81,403Z"/><path class="cls-1" d="M228.16,402.56a.67.67,0,0,0-.24-.64c0,.12,0,.25,0,.38Z"/><path class="cls-1" d="M227.81,403a.85.85,0,0,0,.35-.43l-.28-.26C227.86,402.53,227.83,402.76,227.81,403Z"/><path class="cls-1" d="M188.25,876.58v1.61a12.35,12.35,0,0,1-6.69-2.67,12.19,12.19,0,0,1-4-6,11.7,11.7,0,0,1,1.26-9.33,12.08,12.08,0,0,1,7.81-5.26,19.17,19.17,0,0,1,10.24,1.22c3.27,1.18,6.38,2.77,9.62,4a54.26,54.26,0,0,0,5.93,2,5.23,5.23,0,0,0,2.46-2.66,9.44,9.44,0,0,0,.52-3.63V813.51a32.55,32.55,0,0,1,.41-6.08,16.8,16.8,0,0,1,2.17-5.67c2.12-3.46,5.54-5.9,8.92-8.16l5.93-4,1.52,1.67a9.72,9.72,0,0,0-3.85,4.81,17.62,17.62,0,0,0-.81,6.18v42a77.57,77.57,0,0,1-21.28,23.4,13.81,13.81,0,0,1-2.38,1.46,9.15,9.15,0,0,1-2.68.76,22.18,22.18,0,0,1-5.57-.29l-9.32-1.22a8.16,8.16,0,0,0-1.91-.09,3.82,3.82,0,0,0-1.78.63,3.53,3.53,0,0,0-1.2,1.45,3.87,3.87,0,0,0-.28,1.87,4.64,4.64,0,0,0,1.66,3.07A5.18,5.18,0,0,0,188.25,876.58ZM184,829.14a12,12,0,0,0-.23,2.32,12.94,12.94,0,0,0,1.5,6h1.93a6.16,6.16,0,0,1,.07-2.6,5,5,0,0,1,2.09-3.05,4.92,4.92,0,0,1,1.76-.68A10,10,0,0,1,193,831h3.7v7.23a39,39,0,0,1-.24,5.29,14.29,14.29,0,0,1-1.62,5,11,11,0,0,1-4.42,4.34h3.34a36.94,36.94,0,0,0,8.92-3.9,15.55,15.55,0,0,0,5.59-5.6,12.41,12.41,0,0,0,1.27-3.78,25.37,25.37,0,0,0,.23-4V813.46a23.35,23.35,0,0,1,1.66-9.67,14.38,14.38,0,0,1,3.71-4.9c1.56-1.35,3.32-2.44,4.92-3.75a19,19,0,0,0,3.94-4.32l.15-2.69a11.83,11.83,0,0,1-3.9,2.44,14.32,14.32,0,0,1-6.33.75,50.45,50.45,0,0,1-7.38-1.56,23.31,23.31,0,0,0-7.47-.82,17,17,0,0,0-9.06,3.8,26.73,26.73,0,0,0-7.86,10.79h2.39a6.12,6.12,0,0,1,3.08-3.29,9,9,0,0,1,4-.76,42.81,42.81,0,0,1,6.36.86,34.45,34.45,0,0,0,6.4.56,24.25,24.25,0,0,0,6.71-1.13q-4,3.26-8.13,6.39a19.27,19.27,0,0,0-4.8,4.64,9.22,9.22,0,0,0-1.24,3.11,16.91,16.91,0,0,0-.24,3.34v2.67a24.44,24.44,0,0,0-7,1.77,10.21,10.21,0,0,0-3.73,3A10.68,10.68,0,0,0,184,829.14Z"/><path class="cls-1" d="M262.82,860.75l3.36-1.82,1.45,1.94-13.94,7.22L243,858.86l-3.88,2.43-1.46-1.94,6.8-4.37V830.23a6.9,6.9,0,0,0-.12-1.51,3.92,3.92,0,0,0-.6-1.39,4.36,4.36,0,0,0-1.8-1.49,5,5,0,0,0-2.34-.45v-1.46l16.52-16.55h1.94V819h12l-4.75,5.57h-7.29V856Z"/><path class="cls-1" d="M274.52,823.24a12.81,12.81,0,0,0,6.54-8.36,15.19,15.19,0,0,0-.38-8.32,11.21,11.21,0,0,0-2-3.7,6,6,0,0,0-3.52-2.17,4,4,0,0,0-1.72.12,5.7,5.7,0,0,0-1.55.8l-1.29.84-1.31-2.13,13.73-9a16.32,16.32,0,0,1,5.47,5.52,14.39,14.39,0,0,1,2,7.86,15.26,15.26,0,0,1-1.85,6.48,25,25,0,0,1-4.07,5.42,54.82,54.82,0,0,1-9.43,7.67Z"/><path class="cls-1" d="M331.51,827.2a22.64,22.64,0,0,1-2.93,4.83,27.58,27.58,0,0,1-3.07,3.14l8.71,6.45v15.3l-20,12.16a9.58,9.58,0,0,0-4.63-4.15,7.62,7.62,0,0,0-3.09-.59,5.43,5.43,0,0,0-3,.95,3.84,3.84,0,0,0-1.38,1.73,3.14,3.14,0,0,0,0,2.2,2.9,2.9,0,0,0,1.25,1.47l-1,2.66a10,10,0,0,1-5.49-5.32,11.2,11.2,0,0,1-.28-7.68c1.15-3.68,3.83-6.67,6.56-9.39.82-.81,1.65-1.6,2.5-2.38l-7.66-6V828.35L319,816.19a10.7,10.7,0,0,0,4.18,3.66,7.55,7.55,0,0,0,3.32.77,5.32,5.32,0,0,0,3.2-1.08,4.62,4.62,0,0,0,1.77-3.14h2.9A34.61,34.61,0,0,1,331.51,827.2ZM311.9,846.87q-3.43,2.94-6.68,6.08c-1,1-2,2-2.92,3a11.35,11.35,0,0,1,6.05-2.33,12.53,12.53,0,0,1,6.51,1.25,13.53,13.53,0,0,1,6.29,6.49V848.22l-5.61-4.48Zm10.85-13.06a27.3,27.3,0,0,0,3.55-3.5c.33-.4.63-.81.92-1.24a11.44,11.44,0,0,1-3.53,1.06,11.84,11.84,0,0,1-6.3-.89,12.1,12.1,0,0,1-6.29-6.49V836l4.18,4.27Z"/><path class="cls-1" d="M370.2,829.06a10.53,10.53,0,0,1,2-4.22,10.33,10.33,0,0,1,3.68-2.87,25.82,25.82,0,0,1,7.37-1.73v-4.55l0-12.56a12.21,12.21,0,0,0-.17-2.42,5.57,5.57,0,0,0-.95-2.22,4.85,4.85,0,0,0-1.88-1.51,5.08,5.08,0,0,0-2.37-.43A5.79,5.79,0,0,0,374.4,798a6.05,6.05,0,0,0-1.88,3.3H370a10.49,10.49,0,0,1,.91-5.27,12,12,0,0,1,6.25-5.91,15.75,15.75,0,0,1,8.64-1,14.39,14.39,0,0,1,6.34,2.63,12.46,12.46,0,0,1,4.1,5.48,20,20,0,0,1,1.09,6.62c.06,2.25,0,4.5,0,6.75v40a27.93,27.93,0,0,1,4.62,1.08V790h2.91v8.9l13.78-10.31,9.92,9.39v51.9l5.3,3.57q0-31.73,0-63.45h2.9V799l13.89-10.4,9.92,9.34V849L433.23,869.5l-17.4-11.83-13.6,11.13a23.38,23.38,0,0,0-31.81-2H368.5a27.76,27.76,0,0,1,14.74-14.35V831.7h-4a11.54,11.54,0,0,0-1.86.11,5.12,5.12,0,0,0-1.74.63,4.73,4.73,0,0,0-2.14,2.93,5.22,5.22,0,0,0-.07,2.19h-1.93A12.11,12.11,0,0,1,370.2,829.06Zm45.28-11.23V804.06l-6.54-5.44-4.09,3.07V823.2Zm-10.63,16,10.63-5.37v-7.38l-10.63,5.37Zm4.07,21.37,6.56-5.54V831.72l-10.63,5.37v15.8A26.8,26.8,0,0,1,408.92,855.2Zm27.84-.57h-1.07l5.85,3.93,6-4.31V831.67l-10.74,5.42Zm10.74-36.85V804.14L441,798.7l-4.19,3.14V823.2Zm-10.74,16.05,10.74-5.42V821l-10.74,5.42Z"/><path class="cls-1" d="M501.47,858.37l-14.57,10.2-9.71-8.74-3.4,2.43-1.45-1.94,6.31-4.37V829.24l-3.4-4.37-3.89,2.42-1.45-1.94,13.6-9.23,7.76,9.23V856l3.4,3.4,4.38-2.92ZM485.08,794l8.64,9.83-9.68,8.5-8.64-9.83Z"/><path class="cls-1" d="M527.06,860.75l3.35-1.82,1.46,1.94-14,7.22-10.68-9.23-3.89,2.43-1.45-1.94,6.8-4.37V830.23a6.9,6.9,0,0,0-.12-1.51,4.1,4.1,0,0,0-.6-1.39,4.49,4.49,0,0,0-1.8-1.49,5,5,0,0,0-2.34-.45v-1.46l16.51-16.55h1.94V819h12.05l-4.75,5.57h-7.3V856Z"/><path class="cls-1" d="M556.93,855.6a13.36,13.36,0,0,0,6.43,1.83l5.84-4.22,1.32,1.77-14.91,13.09h-1.42l-15.3-10.43V827.35l20.93-11.66,10.73,8.61-9.62,7.29-9-7.49v26.34A13.52,13.52,0,0,0,556.93,855.6Z"/><path class="cls-1" d="M598.16,859.25l3.15-2.19,1.82,2.29-12.63,8.74-10.41-8.84-3.89,2.43-1.73-2.33,6.8-4.37V808.84a7.57,7.57,0,0,0-.11-1.51,3.65,3.65,0,0,0-.61-1.38,5.14,5.14,0,0,0-1.8-1.5,12.39,12.39,0,0,0-2.33-1V802l16.51-11.65h1.94V828l12.63-11.83,10.71,9,4-3.24,1.79,2.21-4.36,3.53V854a47.09,47.09,0,0,1-.51,8.23,21.8,21.8,0,0,1-2.87,7.7,20.12,20.12,0,0,1-8.79,7.64,22,22,0,0,1-12.11,1.69v-2.43a12.39,12.39,0,0,0,5.91-3.18,15.78,15.78,0,0,0,3.87-6.43c1.3-3.92,1.39-8.12,1.39-12.24V830.69l-6-5L594.87,831v25Z"/><path class="cls-1" d="M650.14,855.6a13.39,13.39,0,0,0,6.43,1.83l5.85-4.22,1.31,1.77-14.91,13.09H647.4l-15.29-10.43V827.35L653,815.69l10.74,8.61-9.63,7.29-9-7.49v26.34A13.42,13.42,0,0,0,650.14,855.6Z"/><path class="cls-1" d="M700,857.63l-15.12,10.94-11.13-8.74-3.4,2.43-1.46-1.94,6.31-4.37V829.24l-3.4-4.37-3.88,2.42-1.46-1.94,13.6-9.23,7.43,8,7.06-8h1.05a5.51,5.51,0,0,0,4.39,2.5,5.44,5.44,0,0,0,4.76-2.5h3a38.31,38.31,0,0,1-1.08,5.61,16.52,16.52,0,0,1-1.91,4.54,9,9,0,0,1-3.63,3.26,8.24,8.24,0,0,1-3.79.74,10.91,10.91,0,0,1-3.77-.87,16.31,16.31,0,0,1-5-3.3V856l4,3.15,5.47-3.73Z"/><path class="cls-1" d="M754.36,858.87l-14.1,9.68-7.74-7.75-10.69,7.77A16.86,16.86,0,0,1,711,862.76a11.29,11.29,0,0,1-1.08-13.54,18.55,18.55,0,0,1,3.73-4.32,33.17,33.17,0,0,1,6.64-4.5c-.5-.2-1-.42-1.5-.66a13.72,13.72,0,0,1-5.89-4.77,8.06,8.06,0,0,1-1.29-3.79,7.36,7.36,0,0,1,.69-3.64,8.92,8.92,0,0,1,2.26-2.95,16.68,16.68,0,0,1,3.36-2.15l11.17-5.83,14.95,9.64,4.09-3.32,1.79,2.21-5.29,4.29V855l4.86,4.85,4.37-2.91ZM732,831.66l-12.62-7.77a9.09,9.09,0,0,0-2.12,1.21,7.44,7.44,0,0,0-2,2.23,5.71,5.71,0,0,0-.75,2.88,6.41,6.41,0,0,0,1.51,3.82,13.76,13.76,0,0,0,4.86,3.51,40.58,40.58,0,0,0,5.66,2.13q2.7.84,5.45,1.5Zm-6,10.65c-1.32-.39-2.64-.79-3.95-1.24a11.65,11.65,0,0,0-1.57,4.27,14.56,14.56,0,0,0,1.62,9,12,12,0,0,0,2.65,3.46,8.19,8.19,0,0,0,3.87,2,7.12,7.12,0,0,0,3.37-.21V844.1C730,843.49,728,842.91,726,842.31Z"/><path class="cls-1" d="M761.52,828.12a6.85,6.85,0,0,0-.12-1.43,4.05,4.05,0,0,0-.6-1.38,4.44,4.44,0,0,0-1.8-1.5,5,5,0,0,0-2.34-.45v-1.45l4.86-5.19v-13l22.57-12.76,13.56,8.39-12.49,7-11.06-6.94V817h13.06l-4.75,5.57H774.1V856l5.78,4.8,3.35-1.82,1.46,1.94-14,7.22-10.68-9.23-3.88,2.43-1.46-1.94,6.8-4.37Z"/><path class="cls-1" d="M815.61,860.75l3.35-1.82,1.46,1.94-13.95,7.22-10.68-9.23-3.88,2.43-1.46-1.94,6.8-4.37V830.23a6.9,6.9,0,0,0-.12-1.51,3.92,3.92,0,0,0-.6-1.39,4.43,4.43,0,0,0-1.8-1.49,5,5,0,0,0-2.34-.45v-1.46l16.51-16.55h1.94V819h12l-4.75,5.57h-7.3V856Z"/></svg>