<svg id="Capa_1" data-name="Capa 1" xmlns="http://www.w3.org/2000/svg" viewBox="0 0 1000 1000"><defs><style>.cls-1{fill:#fff}</style></defs><path class="cls-1" d="M321.84 498.47v.11l.06-.08zM322 498.51zM678 474.08V474v.11zM322 498.49v-.07zM162 607.1h-2.83a22.28 22.28 0 0 0 2.83 0zM678.14 474h-.1a.33.33 0 0 0 0 .1z"/><path class="cls-1" d="M879 589.05c-16.55-11.58-33-23.36-49.56-34.87-6.75-4.68-12.82-10.39-20.48-13.72.78 2.6.15 4.61-2.54 5.55a3.3 3.3 0 0 1-4.15-1.84c-1.12-2.25-.93-4.5 1.38-6.07.7-.48 1.43-.82 1.2-1.85-12.13-8.25-24.39-16.32-36.38-24.78-22.51-15.89-44.84-32-67.34-48-2.19-1.55-4-4.71-7.75-2.87-.72.36-2-.9-2-1.84.12-3.18-2.51-4-4.39-5.4-6-4.39-12.17-8.65-18.26-13-2.44-1.72-5.16-3.17-7.22-5.26s-5 .27-6.94-2.67c-1-1.58-1.77-3.67-3.67-5-11.71-8.14-23.27-16.49-34.86-24.8-1.32-.94-2.12-1.24-3.66.18-3.84 3.53-8.45 3.59-11.54.43-3.68-3.78-1.83-7.17 1.22-10.4-20.94-15.08-41.82-30.06-62.6-45.17-1.84-1.34-2.75-.75-4.14.35-4.81 3.82-9.92 7.28-14.5 11.35-3.65 3.24-7.44 3-12.44 2.43 1.45-1.18 2.2-1.82 3-2.4q29.05-21.41 58.09-42.81c1.4-1 3.24-1.69 3.62-3.83.56-3.13 2.52-4.56 5.7-4.1 1.52.21 2.46-.73 3.52-1.51l48.86-36c11.47-8.45 22.92-16.91 34.55-25.49.69 2.89-.56 5-1.24 7.16Q655.35 282 646.07 311c-5.38 16.83-10.85 33.63-16.28 50.44-.08.15-.12.36-.24.44-2.94 1.78-5.72 1-9.08.79-13.7-1-27.52-.29-41.29-.22 9.78 7.12 19.52 14.29 29.34 21.35 14 10 28 20 42.34 30.17.57-1.62 1-2.85 1.43-4.1q34.38-107.34 68.77-214.67a2.36 2.36 0 0 0-1-3.16c-4-3-6.38-7.38-8.45-11.85a4.07 4.07 0 0 1 1.42-5.31c1.71-1.27 3.47-.68 5 .68 2.3 2.09 4.59 4.2 7.21 6.6 2.66-8.56 5.16-16.76 7.79-24.91.59-1.81-1.53-3.63.11-5.19 1-1 3-1.8 1.4-3.3-1.11-1-2.28.75-3.3 1.5q-22.77 16.92-45.51 33.89c-2.77 2.07-7 3.56-3.72 8.46a2.25 2.25 0 0 1-.61 2.76c-1.2-.37-3.11-.37-3.61-1.21-2.07-3.49-3.7-1.38-5.58 0-5.57 4.17-11 8.49-16.85 12.33-2.63 1.75-2.92 4.22-4 6.66-1.44 3.25-4.85-.27-7.69 1.89-26.39 20.11-53.12 39.79-79.74 59.6-1.49 1.11-3.48 1.7-1.89 4.51.78 1.38-.87 3.09-2.63 1.85-2.22-1.55-3.51-.51-5.2.76q-31.89 23.85-63.84 47.61c-2.69 2-5.92 3.34-6.28 7.63-.17 2.08-2.72 3.63-4.92 3.57-4.8-.11-7.85 2.89-11.24 5.44-5.84 4.39-11.79 8.62-17.51 13.15a14.51 14.51 0 0 1-9.62 3.1c-23.78 0-47.57.46-71.35.1-4.59-.07-1.87 6.49-6.32 5.05a3.5 3.5 0 0 0-.46 1.26c0 .6 0 1.25 1.08.89 2.48-.84 4.1 0 3.75 2.77-.43 3.44-3.2 1.09-4.46 1.33v71.85c1.45-.66 3.08-1.37 4.68-2.14 3.61-1.74 5.93-1.5 6.1 3.34 0 1.49 0 3.56 1.74 4.4 4 1.9 5.69 5.36 6.87 9.27 1.4.13 2-2.62 3.76-1a1.24 1.24 0 0 1 .06 1.23c-1 .94-2 2.45-3.66 1 .16 2.2.53 4.57-2.69 4.81-3 .22-4.39-1.08-4.69-4.31-.22-2.36-.33-6-4.15-5.55a10.44 10.44 0 0 1-8.58-2.64v70.58c0 2.14-.89 4.62 2.22 5.81 1.27.49 1.11 2.27.14 3-3.21 2.26-2.35 5.51-2.36 8.53v24.42h1c1.25-.94 2.54-1.69 3.61.15.81 1.4-.46 2.09-1.3 2.69-1.29.94-2.53 2.08-4.28 2.13l-1.16-1.23c-1.57.46-3.27 1.35-4.26-.85s-2.87-2.32-5-2.29q-40.81.48-81.63.9c-2 0-4.43-.65-4.13 3a2.42 2.42 0 0 1-3.13 2.35c-1.77-.56-2.67-2-1.39-3.9-.37-1.68-1.73-1.23-2.8-1.24h-25.63a4.24 4.24 0 0 0-.65.28c-.43 1.51 1 2 1.09 3.09.16 2.32-1.33 3.23-3 4-.8.37-1.66 1.46-2.58.23-1.21-1.61-.49-3.4.38-4.61 1.19-1.65 1.85-3.85 4-4.71a23.92 23.92 0 0 1 2.14-2c19.35-14.27 38.79-28.42 58.05-42.8 10.12-7.62 20.79-14.45 30.19-22.94l-.13.06v-.11a3.08 3.08 0 0 1-1.18-.35c-1.93-1.48-4-3-3.57-5.82.25-1.47 2.06-1.45 2.79-.74 1.88 1.84 4.25 3.77 2.11 6.86v.07c10-5.86 18.53-13.73 28.16-20.09a2.79 2.79 0 0 0 1.3-2.52v-42.71c-.76.07-1.15 0-1.36.14q-43.69 32.51-87.36 65-36.12 26.87-72.3 53.64c-2.26 1.67-4 5.65-5.11 5.74-6 .48-8.55 5.78-13.17 7.84-2 .89-.14 4.61-2.9 3.91s-3.62 1.11-5.08 2.17q-21.62 15.74-43.14 31.6c-1 .76-2.63 1.42-2.15 3 .54 1.78 2.28.86 3.43.86h36.83c1.95-.2 3.91-.32 5.85-.61a12.14 12.14 0 0 1 2.48 0c1.07-.15 2.15-.3 3.23-.4.84-.52 1.36-1.59 1.26-3.74 0-.64 1-1.35 1.94-1.14 1.2.27 2.51 1.15 2.18 2.27-.48 1.64-.24 2.35.33 2.65.38 0 .75.12 1.13.2.56 0 1.17-.08 1.73-.08 4.13 0 8.25 0 12.38.07q83.58-1.53 167.16-3.13c3.35-.07 3.72 1.16 3.69 4-.14 11.15-.06 22.3-.05 33.45 0 1.77-.43 3.67 2.48 3.86 3.2.21 2.27-1.83 2.4-3.51.39-5 3.88-8.17 8.78-8 4.37.16 7.56 3.48 6.85 8.38-.49 3.36.93 3.07 3.06 3.07 11.81 0 23.63.17 35.44-.12 3.83-.1 5.46 1.08 6.63 4.7 14.62 45.16 29.45 90.24 44.08 135.4 1.15 3.57 2.05 5.66 6.26 3.57 1.3-.65 3.25 0 4.9.06-.27-1.29-2.32-2.37-.68-3.85 1.19-1.07 2.59-.29 3.68.41s4.17.72 2 3.47l-1 1.7c1.76 1.91 1.6 4.09 1.14 6.44-.39 2-.86 4.29-2.73 5s-3.11-1.45-4.58-2.48c-2.19-1.51-2.68-4.76-5.51-5.73-.23.46-.39.64-.36.75q12.33 37.68 24.67 75.34c.4 1.24.4 2.59 2.26 2.78 2.13.21 2.49-1.39 3-2.67 3.15-8.22 5.21-16.8 7.94-25.16 13.93-42.73 27.47-85.58 41.14-128.39 1.58-5 3.15-9.92 4.94-15.55-4.43 2-8.22 2.83-12.21 1.89 1.16 1.89 2.42 4-.78 4.95-1.38.43-3.71.79-3.86-1.57s.62-4.61 3.86-4.18c-2.21-5.15-1.51-8.27 2.41-10a8.27 8.27 0 0 1 8.87.84c3 2.24 4.05 1.36 5.1-2.12 4-13.45 8.45-26.79 12.73-40.16 1.84-5.74 5.73-7.09 11.9-5.91 3.79.72 9 3.52 11.47-3.21.64-1.74 4.32-2 4.85 1 .57 3.21 2.38 2.86 4.52 2.86 11 0 22-.13 32.92.07 3.26.06 4.19-.83 4.14-4.13-.2-12.47.08-24.94-.18-37.41-.08-3.74.91-4.68 4.64-4.71q45.39-.35 90.77-1.11c27.92-.46 55.84-1.12 83.76-1.66 2 0 4.06.16 4.68-2.42h-.1a.3.3 0 0 1 0-.08c-2.08.39-3.45-.39-3.13-2.64.16-1.16 1.45-2.83 2.71-2.07 1.72 1 2.44 2.9.58 4.67a.19.19 0 0 0 0 .07c3.26-1.5 4.85 2.46 8 2.34 13.57-.51 27.16-.52 40.74-.79 1.32 0 3.18.67 3.58-1.6.28-1.88-.68-2.87-2.24-3.94zM617.14 375.47c-1.67 0-3.06-.54-3.18-2.36-.14-2.06.94-3.52 3-3.62s2.75 1.74 2.88 3.27-1.05 2.59-2.7 2.71zM696 255.07a2 2 0 0 1-2.2 1.55c-1.15 0-2.17-.69-2.22-1.59s.91-1.57 2.13-1.49a2.37 2.37 0 0 1 2.29 1.53zm-7.15-44c2.42 1.29 4.63 2.93 5.17 6 .23 1.3-.58 2.05-1.69 1.68-2.64-.88-5.48-1.86-6.1-5-.23-1.36.87-2.46 2.61-2.75zm-2.06-6.21c-.11.91-.68 1.92-1.84 1.82s-2-.7-1.29-1.85c.39-.67-.35-2.22 1.32-2 .86.43 1.92.88 1.8 1.99zm-5.93-6.48a1.73 1.73 0 0 1 2.09-1.6 2 2 0 0 1 1.69 2.08c-.37 1-.8 2-2 1.92a1.89 1.89 0 0 1-1.79-2.44zm-7.26 100.51a2.47 2.47 0 0 1 1.28-1.32c.55-.21 1.35-.11 1.23 2 0-.16-.63.39-1.47.53a.91.91 0 0 1-1.04-1.21zm-10.38-18.81a2.69 2.69 0 0 1 3.12 2.36c0 1.36-1.61 1.83-2.46 2.32a2.12 2.12 0 0 1-2.69-1.87 2.25 2.25 0 0 1 2.03-2.81zM652 386.76c-2.05 0-2.78-1.47-3.11-3.19a2.37 2.37 0 0 1 2.36-3c2.2-.13 3 1.66 3.48 3.22-.11 1.95-.95 2.99-2.73 2.97zm6.73-57.35c-1.8-.2-2.34-1.64-2-3.34.33-1.5-.1-3.74 2.44-3.49 1.91.18 2.08 1.8 1.94 3.65-.28 1.26.14 3.46-2.41 3.18zm4.67 30c-.14.81-.44 1.66-1.43 1.79a1.66 1.66 0 0 1-1.86-1.27c-.15-1.12.76-1.72 1.83-2 .92.07 1.61.41 1.43 1.49zm-1.57-23.37c-1.45-.23-2.91-1-2.62-2.92a2.83 2.83 0 0 1 5.61.3c-.32 1.78-1.3 2.9-3.02 2.63zm3.57-43.57c-.74-.15-1.85-.68-2-1.21-.26-1.21 1.22-1.09 1.64-1.65 1.18-.1 1.89.33 2 1.23.25 1.25-.53 1.88-1.67 1.64zm1.87-64.58a2.28 2.28 0 0 1 1.73 2.24c-.35.32-.91 1.14-1.25 1.06a2.28 2.28 0 0 1-1.75-2.36.91.91 0 0 1 1.24-.93zm-19.33 14c.7.11 1.32.78 1.85 1.12-.1 1.26-.64 1.8-1.57 1.82a1.49 1.49 0 0 1-1.7-1.39c-.05-.74.48-1.65 1.39-1.5zm-20.86 19.9c.27-1.64 1.24-2.68 3-2.49 1.24.14 2.94.18 2.13 2.53-.11 1.87-1.91 2.24-3.35 2.39-1.18.16-2.04-1.02-1.81-2.38zm-63.82 29.39c.19-1.64.91-3.41 2.77-3.46 1.31 0 2.14 1.32 2.24 2.87-.28 1.46-.85 2.77-2.64 2.92-1.63.19-2.57-.73-2.4-2.28zm-37.66 19.57c4.2-.11 4.3 3.7 5 6.76.15 1.58 0 3-2.15 3-2.37 0-8.35-3.83-8.14-5.47.35-3.04 3.05-4.23 5.29-4.29zm-2.81 25.91a3.46 3.46 0 0 1 3.46 3.53c0 2.24-1.39 3.19-3.54 3.34a3.3 3.3 0 0 1-3.41-3.42 3.34 3.34 0 0 1 3.49-3.45zm-13.57 6.19c.06-1 .45-1.52 1.43-1.35s1.78.69 1.61 1.94c-.47.73-.61 2-1.78 1.73-.95-.24-1.33-1.23-1.26-2.32zM365.2 507a2.45 2.45 0 0 1-1.76-1.93c-.28-1.17.64-1.79 1.62-2 1.17-.18 1.78.71 1.83 1.73a2 2 0 0 1-1.69 2.2zm-41.43-21.55c1.2-.29 1.73.52 2 1.49-.1.89-.37 1.73-1.24 1.95-1.28.33-1.61-.84-1.93-1.66s.3-1.6 1.17-1.81zm-12.69 5.93a1.76 1.76 0 0 1 1.8-1.53c.63.76 1.69 1.42 1.52 2.64-.11.77-.68 1.69-1.6 1.47a2.16 2.16 0 0 1-1.72-2.61zm-39.51 11.18c1.1-3.82 4.39-3.85 7.29-3.1 2.15.55 4 1.09 6.17.16a3.14 3.14 0 0 1 4 .89 3 3 0 0 1 .37 3.28 3.51 3.51 0 0 1-4.17 1.85c-1.84-1.19-2.21 0-3.07 1.47-1.66 2.85-4.28 4.06-7.57 2.48-3.01-1.49-3.88-4.04-3.02-7.06zm1.2 12.68c3.32-.1 4.81 1.38 4.79 4.13a4.05 4.05 0 0 1-3.9 4.34c-2.92.14-4.64-1.9-4.64-4.67-.02-2.41 1.53-3.95 3.75-3.83zm-5.66 10c.67 0 1.28.08 1.44 1 0 .76-.56 1-1.25 1s-1.62-.24-1.67-.5c-.16-.97.57-1.42 1.48-1.48zm-21.94 2c1.51 0 1.73 1.19 2.47 1.79a2.53 2.53 0 0 1-2.54 2.14c-1.54.11-1.8-1.13-1.82-2.31s.72-1.62 1.89-1.65zm-2.28 18.22c.37-.09.93.58 1.59 1-.48.63-.74 1.32-1.2 1.49-1 .35-1.5-.56-1.57-1.25-.04-.4.68-1.15 1.18-1.27zm-80.41 49.22c-1.88 1.44-2.79 0-3.76-1.3h-.16a.17.17 0 0 1 0-.07c-1.56 1.11-3 1.25-3.81-.84-.49-1.22.55-2 1.43-2.12 2.37-.39 2.74 1.06 2.38 3h.07l.08.1a.59.59 0 0 0 .31-.08c1.38-1.14 2.76-1.67 4.13 0 .73.8-.33 1.02-.67 1.28zm13.42-23.71a1.9 1.9 0 0 1-1.69-2 2.5 2.5 0 0 1 1.7-1.46c1.2-.28 1.57.76 1.8 1.69-.15 1.05-.79 1.89-1.81 1.74zm4.72 16.3c-1.93-.42-2.93-1.48-3-3.38a2.89 2.89 0 0 1 2.84-3.28c2 0 3.23 1.42 3.22 3.51s-1.8 2.33-3.06 3.12zm26.41-31c.58.55 1.38 1 1.4 1.4A1.29 1.29 0 0 1 207 559a1.75 1.75 0 0 1-1.13-1.3c-.06-.44.67-.89 1.13-1.44zm-13.18 33a1.25 1.25 0 0 1-1.47-1 1.36 1.36 0 0 1 1-1.86c.88-.24 1.43.51 1.89 1.22a1.68 1.68 0 0 1-1.42 1.59zm1.82-7.48a1.61 1.61 0 0 1-1.67-1.47 1.89 1.89 0 0 1 1.7-2c1.16-.21 1.61.75 2 1.65a2.08 2.08 0 0 1-2.03 1.77zm8.71-.73c-2 .68-3.49-1.16-3.39-3.13s1.53-3.54 4.15-3.77c1.8 1.16 4.93 2.18 4.87 4.44-.07 2.8-3.66 1.76-5.63 2.4zm8.67 5.77c-1.34-.61-3.36-.9-2.87-3.13.19-.9.85-2.32 1.76-2 1.5.56 2.09 2.25 2.86 3.94-.6.36-1.42 1.3-1.75 1.14zm9.25 10.37c-2.06-.06-1.65-1.67-1.76-2.91-.12-1.48.67-2 2.07-2 1.79 0 2.12 1.24 2.46 2.54-.55 1.17-1.07 2.37-2.77 2.32zm32.09-7.95c-.28 1.14.15 3.42-2.45 2.93a4.11 4.11 0 0 1-3.25-4.28c.05-1.81 1.72-2.84 3.56-2.64 2.12.17 2.53 1.74 2.14 3.94zm-.53-17c-1 .13-2.05-.21-2.15-1.37a1.65 1.65 0 0 1 1.53-1.59c1.12-.2 1.73.61 2.25 1.46a1.84 1.84 0 0 1-1.63 1.42zm16.62 14.63c-.85-.37-2.05-.47-1.83-1.77s1.36-1 2.27-1 1.74.13 1.63 1.2-1.07 1.39-2.07 1.49zm12 14c-3-.09-4.85-1.87-4.94-5.38.3-2.44 1.17-4.34 4.54-4.31s5.41 1.42 5.45 4.86c.03 3.12-2.05 4.8-5.07 4.7zm28.47-20.52c-.63.11-1.36 0-1.57-.7-.27-1 .39-1.54 1.16-1.84s1.47.18 1.85.91a1.48 1.48 0 0 1-1.46 1.5zm7 18.73a3.07 3.07 0 0 1-3.34-3c-.16-1.69.73-2.78 2.74-2.91s2.9 1.08 3.14 2.88a2.51 2.51 0 0 1-2.55 2.94zm22.46-10.41c-1.25.2-1.6-1-1.84-1.78-.36-1.16.51-1.74 1.55-2 1.07.08 2.06.44 1.95 1.66a2.15 2.15 0 0 1-1.67 1.99zm4.69-16.49c-.53-.06-1.2-1-1.38-1.73-.32-1.21.9-1.07 1.58-1.36 1.15-.5 1.4.29 1.62 1.12-.24.91-.68 1.97-1.83 1.84zm7.56 25.24c-.18 1.65-1.54 2.05-3 1.78-1.16-.23-2.32-1-2.1-2.28a4 4 0 0 1 2.74-3c1.43.67 2.53 1.74 2.35 3.37zm405.79-70.08a2.7 2.7 0 0 1 2.55 1.75c-.17 1.38-1.26 1.8-2.36 2s-1.78-.64-1.91-1.67c-.14-1.17-.01-2.27 1.71-2.21zM756.37 545c.51.64 1.16 1.09 1.19 1.57 0 .75-.41 1.63-1.35 1.43a1.81 1.81 0 0 1-1.1-1.35c.01-.49.7-.96 1.26-1.65zm-10.87-32.14c2.13-.08 3.06 1.53 3.47 3.25 0 1.9-.68 3.16-2.49 3.2-2.18 0-3.21-1.49-3.48-3.43a2.49 2.49 0 0 1 2.5-3.02zm-19.11-10.71c2.57-.31 3.62 1 3.8 3a3 3 0 0 1-3.12 3.5c-2.1 0-3.16-1.46-3.21-3.53-.03-1.87.53-3.29 2.53-2.97zm-8.63-21.66a1.17 1.17 0 0 1 1.22-1.16 1.39 1.39 0 0 1 1.37 1.56c-.05.68-.45 1.57-2 1.28-.49-.17-.69-.86-.59-1.68zm-.13 16.68c-1.08 0-1.61-.84-1.65-1.9 0-.84.56-1 1-1 1.06.05 1.81.38 1.92 1.29a1.36 1.36 0 0 1-1.27 1.61zm.6-9.23c.07 1.76-.7 2.49-2.67 2.59-2.29.12-3.43-.63-3.66-2.79s1.09-2.91 3-3.26c1.95.26 3.25 1.33 3.33 3.46zm-4.64-5.46a10.58 10.58 0 0 1-1.39-2.2c-.26-.81.48-1.2 1.08-1a2.07 2.07 0 0 1 1.21 1.28c.09.44-.44 1.01-.9 1.92zm-.86-6.44c.48.2.8.82 1.35 1.44-.55.38-.86.73-1.23.81-.92.22-1.07-.6-1.06-1.15s-.08-1.5.94-1.14zm-3.46-3.75c1.19-.06 2 .24 1.75 1.63a1.56 1.56 0 0 1-1.21 1.87c-1.14.13-1.54-.93-1.74-1.88s.08-1.56 1.2-1.62zm-3.9 4.07c1 .28 1.83.89 1.6 2-.14.68-.88 1.76-1.31 1.74-1 0-1.42-1.15-1.61-2.06s.42-1.47 1.32-1.68zm-21.73-12.51c1.82-1.86 2.86-2 4.54.46a53.37 53.37 0 0 0 9.25 10.69c1.57 1.31 2.09 3.39 2.47 5.34.53 2.66-.11 5-2.74 6.32s-5 .29-6.78-1.56a30.79 30.79 0 0 1-3.31-4.91c-.76-.12-1.48-.39-2.14.43-1.21 1.49-2.84 2.29-4.67 1.37-2-1-1.54-2.92-1.19-4.68-.3-.33-.6-.67-.91-1-.77.42-1.49 1.57-2.38.16-.42-.66-1.13-1.3-.32-2.13s1.56-1.1 2.49-.36v.02h.09c-.08-2.64.75-4.39 3.9-3.89-1.02-2.53-.08-4.44 1.7-6.26zm15.77 33.45c.12 1.46-.9 1.94-2.24 2-1.41-.3-2.37-1.06-2.23-2.65.11-1.21.67-2.42 2.07-2.11a3.08 3.08 0 0 1 2.4 2.76zm-22.06-37.19c.87.27 1.85.77 1.52 1.9-.21.73-.5 2-1.78 1.69a2 2 0 0 1-1.44-2.22c.02-.87.63-1.43 1.7-1.37zm-5.41-12.73a3.89 3.89 0 0 1 4 4.13c.07 2.37-1.56 3.42-3.66 3.79-2.42-.56-4.07-1.93-4.12-4.33a3.35 3.35 0 0 1 3.78-3.59zm-29.26 137.49c0 2.08-2.21 2-3.18 3-1.34-.18-2.42-.86-2.34-1.77.16-1.83 1.84-2.56 3.39-2.9a1.89 1.89 0 0 1 2.13 1.67zm-9.63-147.55c.78 0 1.28.45 1.07 1.16a2.08 2.08 0 0 1-1.18 1.29c-.73.19-1.06-.49-1.13-1.19.19-.58.45-1.23 1.24-1.26zm-1 14.9c1.36.22 3 .48 3.13 1.88.21 1.83-1.47 2.17-2.95 2.44-1.89.35-2.16-.84-2.19-2.23s.64-2.12 2.01-2.09zm-.12 40c1.79 0 2.11 1.23 2.37 2.4-.24 1.41-.7 2.64-2.08 2.55a3.18 3.18 0 0 1-2.93-3.4c-.01-1.33 1.39-1.53 2.64-1.52zm-2.69 34.2c.12-.5.7-.9 1-1.28 1 .36 1.77.82 1.49 1.73-.15.51-.88 1.28-1.22 1.22a1.41 1.41 0 0 1-1.27-1.64zm2.29 26.82c2.05 0 2.7 1.51 2.83 3.21-.12 1.62-1 2.68-2.44 2.64-2 0-2.89-1.39-2.79-3.28.08-1.4.87-2.58 2.4-2.54zm-12-68.32a2.77 2.77 0 0 1 3 3.18c-.24 2.23-2.9 2.3-4 3.61-2.24-.48-2.61-1.88-2.56-3.44.1-2.19 1.63-3.19 3.58-3.27zm-17.08-18.51c.94-.29 1.46.37 1.67 1.25s-.43 1.76-1.32 1.58c-.63-.13-1.2-1-1.56-1.61-.06-.12.76-1.03 1.23-1.19zm-3.6-44.64c.72-.05 1.54.58 1.42 1.91a1.8 1.8 0 0 1-2 1.33c-.69-.11-1.82-.83-1.82-1.28 0-1.34 1.31-1.85 2.42-1.93zm-.33 37.64c-.42-.47-1.07-.87-1.2-1.4-.22-.93.63-1.5 1.36-1.59.4-.05 1.17.64 1.29 1.12.27.97-.65 1.34-1.43 1.9zm-6.36 19.28a2.11 2.11 0 0 1-1.56 2.13 2.33 2.33 0 0 1-1.91-2.08c-.23-1.07.59-1.45 1.43-1.61a1.62 1.62 0 0 1 2.06 1.59zm-3.89-87.15c1.15-.2 1.84.62 1.91 1.72s-.81 1.67-1.57 2.11c-1.19-.2-2.31-.63-2.48-1.6-.22-1.35 1.01-2 2.16-2.2zm-2.9 60.9a3.17 3.17 0 0 1 2.53 2.29c-.47.51-.93 1.47-1.53 1.56-1.46.22-1.83-1.23-2.22-2.22s.47-1.83 1.24-1.6zm-1.5 28.35a1.71 1.71 0 0 1 1.85 1.18c.33 1.08-.47 1.47-1.26 1.57a2.15 2.15 0 0 1-2.24-1.44 1.53 1.53 0 0 1 1.67-1.28zm-9.55-90.29c1.2-.14 1.43 1 1.89 1.46-.07 1.41-.66 2.21-1.68 2.31s-1.63-.94-1.8-1.87c-.2-1.11.61-1.75 1.61-1.87zm-18.29-10c1.16-2.23 2.86-1 4.53-.78-.6 2.49-2.07 3.08-4.07 2.45-.3-.06-.64-1.24-.44-1.63zm1 69.51c-.07 1.84-1.5 2.82-3.34 3-2.19-.6-3.66-1.87-3.47-4.21.16-1.84 1.36-3.16 3.32-2.9a3.81 3.81 0 0 1 3.55 4.15zm-4.05-46c2.25 1.83-.59 2.16-.88 3.24a3.06 3.06 0 0 0 .1 1c1 .49 2.82-2.54 3.13.77.2 2.11-.5 3.82-2.72 3.94-2.58.14-2.12-1.82-1.79-3.47-1.71-.13-1.85-1.71-2.47-2.79-.86-1.49-1.16-3.36.4-4.32s3.02.67 4.25 1.71zm-7.42-29.61c2 .17 3.71 1.1 4.07 3.57-.16 1.52-.75 2.52-2.73 2.55-2.29 0-3.39-1.06-3.6-3.11-.1-1.49.29-3.11 2.32-2.93zm-.16 11c1-.2 1.4.63 1.78 1.4a3 3 0 0 1-2.25 2.4 1.55 1.55 0 0 1-1.72-1.43 2.53 2.53 0 0 1 2.25-2.25zm-14.73 176.86c.38-3.88 2.46-6.41 6.2-6.64s5.25 2.29 5.35 5.73c.12 3.76-2.82 7-6.28 6.84-3.79-.19-4.84-2.84-5.27-5.93zm.93 71c.17-1.27.79-2.83 2.21-2.78 1 0 1.55 1.45 1.76 2.65a2.12 2.12 0 0 1-2.26 2 1.65 1.65 0 0 1-1.71-1.91zm-5.25-216.76c.13-2.48 1.89-3.59 4.82-3.35 2.21-.62 3.44.82 3.52 3.06.1 2.58-1.89 4-4.09 4.06s-4.38-1.14-4.25-3.77zm4 182.27c-.27 1.72-1.49 3.4-3 3.37-1.78 0-3.07-1.78-3.22-3.7-.17-2.25 1.56-2.56 3.22-2.72 1.84.28 3.34.85 2.99 3.05zm-1.88-199.59a2 2 0 0 1 2.68-1.53c1.5.42 2.71 1.14 2.84 2.74-.57 1.64-1.67 2.46-3.08 2s-2.71-1.6-2.45-3.21zm7.09 44.09a3.37 3.37 0 0 1 1-2.6 2.73 2.73 0 0 1 3.65.21c1.88 2 4.9 2.64 6.09 5-.12 1.92-4.89 4.12-6.57 3.2a8 8 0 0 1-4.18-5.81zm3.77-65.94c1.91.11 3.46 1.06 3.78 3.08s-1 3-3 3a3.3 3.3 0 0 1-3.6-3.28c-.11-1.65.86-2.72 2.81-2.8zm-3.71 7.28a6.92 6.92 0 0 1 6.17 5.88c-1.09 2.64-2.11 5.66-5.76 5.62s-5.46-2.54-5.43-5.88c.02-3.04 1.62-5.96 5.01-5.62zm-19 2.57c.48-2 2.15-3.64 4.47-2.75 3.17 1.2 2.85 3.54 1.29 6h2c2.78.19 6 1.07 5.31 4.2-.6 2.94-4.24 3-6.78 2.51-3.76-.7-2.67-3.35-1.57-5.72-3.01.07-5.72-.34-4.77-4.24zm-1.09 98.15c-.4-.42-1-.8-1.15-1.3a1.22 1.22 0 0 1 1.34-1.53 1.9 1.9 0 0 1 1.42 1.12c.2.97-.89 1.11-1.66 1.71zm.17-67.23a2.82 2.82 0 0 1-.57 4 31.21 31.21 0 0 1-5.66 4.84c-2.89 1.69-5.54.62-7.18-2.19s-.39-4.84 2.11-6.21c2.29-1.26 4.7-2.28 6.11-2.95 3.24-.59 4.12.82 5.14 2.51zm-4.27 62.34c-.18.1-.82.74-1.28.63-.66-.17-1.18-.87-1.76-1.34.43-.44.79-1.08 1.32-1.26.92-.33 1.36.38 1.67 1.97zm-4.69-96a5.5 5.5 0 0 1 4.52 4.57c.2 1.18-.51 2.65-1.86 2.35a6.23 6.23 0 0 1-4.59-4.66c-.38-1.21.39-2.21 1.88-2.29zm-11.93-46c2.6-1.48 5.47-2 9.82-3-2 2.16-4.57 2.87-1.67 5.29 1.27 1.06.38 4.72-2.38 5.46-2.14.57-5 2.07-6.6-.53-1.46-2.27-2.78-5.18.78-7.2zm-5.76 19c1.66.49 3.25 1.17 3.25 3.16a2.65 2.65 0 0 1-2.76 2.86 2.86 2.86 0 0 1-3.2-3c-.15-1.74 1.15-2.46 2.66-3.01zm-.34 157.42c-.21 1.87-1.22 3.23-3 3.25a2.55 2.55 0 0 1-2.64-2.9c.06-1.91.94-3 3-3s2.46 1.04 2.59 2.66zm-4.85 76.83c-1.84.12-2.85-1.31-3-3.49a3 3 0 0 1 2.69-3.17c2.22-.24 3.31 1.56 3.62 3.24.31 2.18-1.52 3.31-3.36 3.43zm-7-247.61c1.15-2.22 3.32-2.4 5.13-1.43 2 1.07 3 3 1.81 5.46-.4.78-.87 1.52-1.32 2.28h.06s0 .08-.05.13c1.36-.06 3-.58 3.4 1.37a1.53 1.53 0 0 1-1.93 1.58c-1.79-.37-2.19-1.41-1.47-2.95h-.09s.05-.09.08-.14c-1.29 0-2.57.05-3.72-.82-1.95-1.41-3.23-3.05-1.97-5.47zm-3.44 50.85a3.47 3.47 0 0 1 3.55-3.39 3.41 3.41 0 0 1 3.49 3.89c-.16 2.32-1.76 3.3-3.81 3.87-2.08-.78-3.46-2.12-3.3-4.36zm1.91 155c0 .91-.69 1.34-1.61 1.29-.73 0-1.3-.4-1-1.15s.5-1.51 1.66-1.54c.21.47.85.91.88 1.47zm.83-171.28c2.25.48 3.69 1.65 3.48 4.05a3.46 3.46 0 0 1-4 3.39 3.3 3.3 0 0 1-3.21-3.67c-.03-2.33 1.57-3.42 3.66-3.75zM468 557.84c3.25.5 5.61 2.25 5.65 6.07s-2.85 6.34-6.68 6.36c-4.2 0-5.4-2.74-5.54-6.1a6.24 6.24 0 0 1 6.57-6.33zm-5-79.42c1.88 2.6 3.76 5.39 2.09 8.69s-4.9 3.58-8.82 3.06c-6.16 3.53-7-1.61-8.72-6.07-1-2.59-2.77-4.88-4.17-7.31s-1.54-5.29.21-7.49 4.24-1.13 6.43-.45a25 25 0 0 1 12.98 9.57zm-1.74 72.23a1.51 1.51 0 0 1-1.57 1.49 1.92 1.92 0 0 1-1.28-1.18c-.28-.93.49-1.39 1.14-1.71 1.1-.02 1.75.55 1.73 1.4zm-22.83 12.16c1-.11 1.33.72 1.52 1.44a2.08 2.08 0 0 1-1.13 2.39c-1 .33-1.71-.72-1.91-1.69s.39-1.79 1.54-2.14zm-2-9.18c.12-1.2 1.14-1.49 2-1.73 1.31-.36 1.1.78 1.11 1.43a1.8 1.8 0 0 1-1.77 1.89c-.86-.17-1.46-.6-1.36-1.59zm1.24-98.72c.05-1.34 1-2.76 2.49-2.46s3.21.92 3.28 3.08c-.18 1.63-1.1 2.87-2.78 2.68a3.16 3.16 0 0 1-3.01-3.3zm5.12 31.92a2.66 2.66 0 0 1 2.61 2.75c.08 1.47-.23 2.7-2 2.7a3.09 3.09 0 0 1-3.28-3c-.21-1.74 1.36-1.91 2.65-2.45zm8.18 89.1c3.35-.43 6.39-.51 6.48 3.54.08 3.63-2.68 5.35-5.82 5.59-3.49.28-6.46-1.66-6.67-5.23-.26-4.27 3.25-4.18 6.04-3.9zm4.31-134.58a2.66 2.66 0 0 1-2.57-1.84c-.31-1.14.84-1.77 1.7-2 1.57-.33 2.12 1.09 2.86 2.08-.27 1.13-.93 1.82-2.01 1.76zm-1-14a1.66 1.66 0 0 1-1.79-1.88c.13-.93.6-2 1.81-2s2 .95 2.56 2.13a2.75 2.75 0 0 1-2.58 1.73zm-7.79-41c2.61 0 2.82 1.77 2.93 4.74a2.85 2.85 0 0 1-3 3.2c-2.37 0-2.55-2.44-2.68-4.16s.09-3.78 2.75-3.79zm2.53 12a7.29 7.29 0 0 1 7.32 7.64c0 4-4.23 8.25-7.84 8s-7.24-4.76-7.25-9.34c-.01-2.42 4.63-6.19 7.75-6.27zm-9.35-20.65c1.2-.27 1.31 1 1.83 1.38.14 1.26-.35 1.92-1.16 2.11-1.28.29-1.53-.89-1.83-1.71a1.39 1.39 0 0 1 1.16-1.75zm-.35 11.69c1.22-.06 2.28.09 2.78 1.7-.36.31-.87 1.1-1.5 1.22a2 2 0 0 1-2.45-1.72c-.15-.59.35-1.13 1.17-1.17zm-6.31-13a2.44 2.44 0 0 1 2.39 2.54 2.41 2.41 0 0 1-1.52 2.47c-1.89-.49-3.08-1.32-3.09-3.06a1.8 1.8 0 0 1 2.21-1.94zm-7.32-1.87a4.55 4.55 0 0 1 3.73 4.05c-.49 1.91-1.59 3-3.55 2.87-2.64-.2-3.83-2-3.73-4.37.09-2.01 1.78-2.85 3.55-2.54zm-5.63 109.91c.2.67 0 1.51-.73 1.45a3.24 3.24 0 0 1-3.18-2.53 1.42 1.42 0 0 1 1-1.88 3.74 3.74 0 0 1 2.91 2.97zm-6.49-49.31c1.13-.13 1.69.67 1.81 1.76 0 1.29-.54 2.31-1.79 2.43a2 2 0 0 1-2.2-2.05c-.04-1.34 1-2 2.18-2.13zm-5.2.35c-2.29-.06-3.82-1.06-4-3.42s1.2-4.2 3.61-4.38a3.76 3.76 0 0 1 4.31 3.7c.16 2.49-1.52 3.79-3.92 4.11zm4.88 118.07c.25-.54.6-1.42 1.62-1.13.75.21 1.58.72 1.18 1.71a1.61 1.61 0 0 1-2 1.07c-.7-.19-1.05-.67-.8-1.64zM414.33 389a4.88 4.88 0 0 1 4.7 4.87c.07 2.2-1.62 3.09-3.92 2.63-2.63 0-4.28-1.53-4.29-4.17a3.11 3.11 0 0 1 3.51-3.33zm-21.13 3.4c3-2.17 6.71-3.24 9.28-6.29 1.36-1.61 3.43-.47 4.86.75a3.78 3.78 0 0 1 1 4.53c-.71 1.8-2.24 2.31-4 2.05-1-.14-1.9-.42-3.34-.75.2 2.47.42 4.43.49 6.38.1 3.37-1.6 5.47-5 5.48s-5.71-1.6-6.17-5.16a7.17 7.17 0 0 1 2.88-6.98zm1.33 39.6c1.39 2-.75 3.38-2.25 5.24l-3.62-5.55c2.5-.99 4.75-1.3 5.87.31zm-12.24-27.84c2-.08 2.86 1.16 3.13 2.89a2.94 2.94 0 0 1-3.22 3 2.66 2.66 0 0 1-2.81-2.75 2.77 2.77 0 0 1 2.9-3.15zm3 48.28c-1.4 3.84-3.75 1-4.95.24-3-1.83 1.39-1.95 1.1-3.34-2.79-1.77-1.9-4.17-1.1-6.52.95-2.76 2.24-3 4.68-1.17s3.14 6.64 7.85 5.61c.56-.12.73.93.58 1.59-.56 2.58-2.86.64-4.07 1.54-.82 1.67-3.06.61-4.04 2.04zm-4.81 51.9c1-.26 2.06-.19 2 2.22a1.19 1.19 0 0 1-1.21.7 2.48 2.48 0 0 1-2.62-1.64c-.01-.25 1.18-1.1 1.88-1.29zm-9.18-20.81c1.85 0 2.91 1.19 3.1 3.06-.21 1.89-1.2 3.09-3.1 3.08a2.74 2.74 0 0 1-3-3 2.92 2.92 0 0 1 3.05-3.15zm-1.68 24.74a2.35 2.35 0 0 1 2.41 2c-.33 1.37-.91 2.83-2.35 2.84s-2.23-1.35-2.28-2.79a1.92 1.92 0 0 1 2.27-2.06zm.19 37.34a2.08 2.08 0 0 1-2-1.86c-.25-1.15.48-1.79 1.61-2.09a2.25 2.25 0 0 1 1.91 1.89 1.66 1.66 0 0 1-1.47 2.05zm12.94 9.18c.74 2.23 2.79 2.11 4.28 3 1.26.71 3.13.91 2.92 2.84s-2.17 1.76-3.47 2.28a9.07 9.07 0 0 1-5.19 0c-2.29.35-4.46 1.13-6.23-.8s-2.25-4-.36-6.19a15 15 0 0 1 2.19-2c1.71-1.27 2.23-4.6 4.36-4.27 2.44.35.95 3.35 1.55 5.13zm.44 22.46v-.22c0-.27-.2.18-.94.09-1.12-.14-1-1.08-1-1.83s0-1.35 1-1.17 1.16.87.94 2.91c.07.04.06.11.05.21zm-6.38 5.75a2.34 2.34 0 0 1-2-2.9 2.28 2.28 0 0 1 2.92-1.9c1.66.29 1.84 1.61 1.92 2.93a2.1 2.1 0 0 1-2.84 1.87zm7.11 24.17c-1.87.12-2.64-1.11-2.67-2.7s.94-2.32 2.67-2.32 2.11 1.13 2.22 2.41a2.23 2.23 0 0 1-2.22 2.57zm7.26-7.53c-.21 1.12-1 2.45-2.13 2.41a2.47 2.47 0 0 1-2.14-2.81c.07-1.21 1.1-1.91 2.4-2 1.23.28 2.12 1.05 1.87 2.36zm-4.89-5.08c-1.52.93-9.15-5.8-8.17-6.63 2.68-2.26 6-3.72 9.12-5.5.07 3.77 5.19 3.48 5.7 7.28-.84 3.16-4.3 3.36-6.65 4.81zm6.11-11.8c-.37-1.53 1-1.79 2.11-2.08 1.3.1 2.08.74 2 2.14s-.65 2.33-2 2.29-1.85-1.36-2.11-2.39zm5.69 17.72a2.6 2.6 0 0 1-1.69 1.44c-1.21.33-1-.93-1.26-1.56-.49-1.06.18-1.39 1-1.57.86.38 2.25.31 1.95 1.65zm-1.24-23.72c-.25-.67.52-1.42 1.61-1.57 1.1.31 2.45.72 2.59 2.19.05.49-.91 1.42-1.56 1.59-1.68.4-2.23-1.14-2.64-2.25zm4.27 31.33c-1.18-.08-.8-1.22-1.12-1.88s.27-.95.7-.92c1.2.08.72 1.26 1 1.75.44.82-.12 1.04-.58 1.01zm-14.69-74.76c-2.53-.46-3.64-1.38-4.49 1.67-.62 2.22-2.63 3.41-4.79 3.95-2.84.71-6.64-2.38-5.45-4.65 2.26-4.31 3.93-9.32 8.7-11.73 4.94-2.5 7.6-.52 8.41 5.94 3 .46 5.56-3.91 8.27-1.64s7.91.27 8.28 5.53h.49c1.51 0 3.24-1.14 4.41.63.2.29-.22 1.28-.62 1.65-1.94 1.79-2.71-.9-4.13-1.16-6.37 4.06-12.84.91-19.08-.23zm17.82 78.24c.06-3 1.91-4.28 4.31-4.25s5.07.9 5.14 4c.08 3.42-2.73 3-5.27 3-1.43-.47-4.26.95-4.18-2.79zm9.52 30.54a1.23 1.23 0 0 1-2.06-.08c-1.59-1.93-.22-3.27 1.25-5 1.22 1.8 2.82 3.15.81 5.04zm1.07-38.78c-2.48.21-3.21-1.59-3.28-3.43a2.53 2.53 0 0 1 2.91-2.69c1.95.13 2.79 1.45 3.06 3.2.12 1.97-.97 2.74-2.69 2.88zm2-10c-.92.19-1.52-.21-1.47-1.24s-.12-2.15 1.23-2.05c.59 0 1.11 1 1.56 1.39-.06 1.08-.51 1.71-1.37 1.88zm4.07 13c-1.25.22-1.47-1.08-1.6-2a1.54 1.54 0 0 1 1.66-1.91 1.81 1.81 0 0 1 1.57 1.68 2.3 2.3 0 0 1-1.68 2.16zm1.88-157a1.23 1.23 0 0 1-1.36 1.06 1.07 1.07 0 0 1-1.13-1.23c0-.83.66-.95 1.36-1 .42.23 1.34.13 1.08 1.12zm4.95-9c-1.87-.12-2.71-1.81-3-3.47a2.05 2.05 0 0 1 2.06-2.31c1.82 0 2.78 1.48 3.36 3.11-.33 1.34-1.05 2.69-2.47 2.6zm1.26-43.89c-1.67 0-6.93-4.27-6.47-5.53a4 4 0 0 1 3.19-2.3c2.89 1.07 3.76 3.77 4.66 6.35.3.85-.28 1.48-1.38 1.48zm1.55-7.42c-.49-1.63.44-2.56 2-2.57a2.4 2.4 0 0 1 2.53 2.48 3.65 3.65 0 0 1-2.35 3.5c-1.9-.35-1.73-2.11-2.17-3.43zm2.77 41.32a2.7 2.7 0 0 1 3-2.69 3.06 3.06 0 0 1 2.68 3.05c-.41 1.65-1.27 2.85-3.08 2.66a2.64 2.64 0 0 1-2.59-3.02zm.11 158.79a3.1 3.1 0 0 1 2.43-2.8c1.18-.22 1.77 1.22 2.35 2.27-.87.83-.76 2.61-2.5 2.57-1.32-.03-2.34-.71-2.27-2.04zm2.22 14.09c-.9-.08-1.38-.57-1.33-1.27.07-.89.68-1.58 1.59-1.28a2.1 2.1 0 0 1 1 1.5c.09.83-.76.89-1.25 1.05zm8.2 52.86a2.25 2.25 0 0 1-2.09-1.77 2.78 2.78 0 0 1 2.31-2.17 1.54 1.54 0 0 1 1.66 1.46c-.12 1.02-.41 2.4-1.87 2.48zm-3.37-53.2c-1.28-2-2-4.36-4.53-5.54-1.35-.63-2.18-2.33-.47-3.64 1.4-1.08 3.21-.91 3.63.88.7 3 2 1.19 3 .58 5.13-3 10.16-6.25 15.35-9.18 2.46-1.4 5.45-3.46 5.25 2.37-.06 1.55.49 5.26 4.36 3.9 1.06-.37 2.41.42 2.22 1.37-1.09 5.62 3.76 3.21 5.85 4.48-1.73-2.8-.58-4.93 1.95-7 .59 2.08 5.67 3.5.34 6.12 4.84 1.69 9.82-.85 11.82-6.12 1.45-3.81 1.32-7.84 1.32-11.82 0-27.45.08-54.89-.13-82.34 0-4.43 1.21-5.84 5.62-5.53a115.79 115.79 0 0 0 16.45 0c4.38-.32 5.21 1.38 5.13 5.35-.25 12.14-.1 24.28-.11 36.42 0 14.06 0 28.12-.09 42.18 0 2.62.16 4.33 3.4 4.66s4.43 2.82 4.32 5.77-2.1 5.23-5 5.24c-3.05 0-3.36 1.61-3.91 3.83-2.62 10.69-8.19 19.13-18.61 23.76-1 .44-2.24.56-2.49 2.09a2.54 2.54 0 0 1-2.61 1.94c-8.72-2.17-17.63 1-26.43-1.4-10.95-2.99-19.58-8.75-25.62-18.37zM517 632.59c3.14.62 4 3.81 5 6.25.4.93-1.58 2.32-3.49 2.48-2.87-.65-3.83-3.14-4.4-5.76a2.35 2.35 0 0 1 2.89-2.97zm-1.08-20.82c.07-.34.6-.71 1-.83.7-.23 1.3 0 1.31 1a1.2 1.2 0 0 1-1.24 1.15 1 1 0 0 1-1.09-1.32zm-2.76 21.57c-1.67 2.24-2.8 4.92-5.73 5.83-.81.25-1.81.19-2.08-.73a3 3 0 0 1 1.59-3.75c1.83-.9 3.07-3.12 5.52-2.63.27.06.42.78.68 1.28zm-46.78-8.67c0 1.23-.66 2-1.7 1.73-1.41-.31-3.05-.95-3.34-2.46-.24-1.26 1.1-1.72 2.21-1.86 1.82-.08 2.77.75 2.81 2.59zm-14.58 57.48c-1.05-.07-2.59.51-2.41-1.34a2.93 2.93 0 0 1 3-2.66c1.37-.06 1.84 1 2.09 2.22-.03 1.91-1.32 1.86-2.68 1.78zm57.8 112.42c-2.52 2.65-6.16 3.07-9.38 4.16-1.94.66-3.06-1.3-2.92-3.05.51-6.22-4.2-9.26-7.83-12.74-2.12-2-3.25-4-3.25-6.83-.49-.41-1-1.18-1.63-.68-1.15.92-2.07 2.25-3.77 1.13-.59-.39-1-1.17-.25-1.55 1.4-.74 2.51-3 4.57-1.14 0-2.87-.25-6.06 3.72-6.31 3.6-.23 5.57 1.32 6 5.46.62 6.52 1.77 7.08 8.23 6.94a8 8 0 0 1 8 4.9c1.39 3.38 1.24 6.85-1.49 9.71zm-24.43-77.9a2.11 2.11 0 0 1 2.08-2.22c1.33 0 2.86.9 2.82 2.12 0 1-1.43 2-2.71 2.38-1.11-.43-2.2-.95-2.19-2.28zm34 81.83a3.54 3.54 0 0 1-3.89-3.58c-.14-1.93 1-3 2.92-3.12 2.62-.23 3.61 1.53 4 3.55s-1.4 3.06-3.02 3.15zm-3.1-57.18a2.27 2.27 0 0 1 1.85-2.51 2.9 2.9 0 0 1 3.1 2.53c0 .92-1.57 1.88-2.34 2.72a2.71 2.71 0 0 1-2.6-2.74zm18-3.52c0 .57-.13 1.54-.39 1.6-.87.23-1.32-.52-1.66-1.24-1.45-.15-2.89-.38-4.34-.41-6.86-.14-10.57-3.38-11.47-10.1-.13-.91.27-2-.94-2.51-3.71 7.42-5.06 15.65-8 23.33-.48 1.23-.87 2.48-1.49 4.29-.74-2-1.36-3.47-1.81-5-.59-2-1.22-3.56-3.95-2.84-2.09.55-3.54-.69-3.92-2.81s.19-4.13 2.33-4.27c3-.2 1.59-1.53 1.16-2.8-4.07-12.2-8.2-24.38-12.12-36.62-.72-2.22-1.59-2.6-3.83-2.56-3.81.08-6.38-2-5.87-6.13.46-3.6-1.75-3.61-3.31-2.21-5.83 5.2-10.61-1.12-15.92-1.24-1.74 0-3.1-3.41-3.14-5.48 0-1.83 2.5-1.52 4-2 7.48-2.26 14.42 2 22 1.42-3.55-10.56-7.11-21.3-10.79-32-1-2.83-.82-3.79 2.74-4 5-.32 9.68-2.6 14.94-2 2.44.25 4.84-.47 6.93 1.52 1.32 1.26 3.18.67 4.8.68h40.28c-2.48 7.81-4.81 15.18-7.14 22.54-.64 2-1.4 3.57.73 5.69s1.23 5.1-2.11 5.43c-2.4.23-2.56 1.63-3.08 3.11-4.67 13.17-7.73 26.88-13.29 39.76a8.63 8.63 0 0 0-.14 2.94c2.31.65 2.55-1.71 3.68-2.67 5.66-4.81 12.15-5.65 16.23-1.88s3.68 9.07-1.08 15.61c.03.94.08 1.9.01 2.85zm7.76 4.56a1.85 1.85 0 0 1-1.58-2.06c.14-1 .48-2.38 2-2.24 1 .11 1.45 1.14 1.76 2.06-.25 1.22-.9 2.29-2.14 2.24zm2.29-20.05c3.55.55 3 4.23 3.82 6.7a2.17 2.17 0 0 1-2.44 2.8c-2.79-.71-2.94-3.52-3.48-5.87.31-1.54-.09-3.94 2.14-3.63zm-.65-35.31c-1.36.2-2.14-.68-2.22-2-.07-1.18.51-1.91 1.75-1.86a2.66 2.66 0 0 1 2.49 2 2.35 2.35 0 0 1-2.02 1.86zm7.32-9c-3.48.14-4.11-2.61-4.7-5.31.57-2.15.34-4.93 3.81-4.66 3.22.25 4.6 2.77 5 5.32a4 4 0 0 1-4.11 4.65zm75.44-99.49c-3.49-.64-2.9.2-2.48 3.19a33.12 33.12 0 0 1-6.52 25.24c1.67.81 4.71-1.37 5.08 2.23a2.56 2.56 0 0 1-2.06 3c-2.34.51-3.91-.27-4.18-2.87-18.57 18.26-54.78 16.79-74 .35 0 .65 0 1.3.11 2a2.07 2.07 0 0 1-1.77 2.53 2 2 0 0 1-2.16-.87c-.78-1.24-.09-2.16.63-3.12s1.7-.87 2.68-.91c-2.75-3.71-6.1-6.93-8.49-11-1.39-2.35-1.41-3.67 1.18-5 4.23-2.24 8.31-4.78 12.67-7.32-.82-1.09-1.51-2.1-2.3-3s-3.22-1.48-2.34-3.26 3.37-2.26 5.24-2.25c1.7 0 2.78 1.56 2.66 3.54-.09 1.54-.37 3 2.25 2.07 1.74-.61 2.24 1.57 3 2.69 7.89 11 18.5 14.48 31.45 11.57 5.12-1.15 8.71-4.24 9.88-9.39s-.92-9.49-5.24-12.5c-8.19-5.72-17.92-8.29-26.7-12.82.1.48 0 1.14.33 1.41 2.09 1.88 3.83 3.88 1.32 6.56-1.55 1.67-7.3.35-8.6-2.15-1.46-2.83-1.67-5.71 2.11-7.2-.69-2.32-2.88-3-4.58-4.26-12.93-9.26-17.69-21.9-15.63-37.41.21-1.62.82-3.21-.29-4.81a2.21 2.21 0 0 1 .4-2.77c6.64-7.5 12.14-16.23 22.63-19.35 11.2-3.33 22.27-3.45 33.3.41 8.37 2.94 14.3 8.81 19.06 16.1 1.14 1.75 1.33 2.75-.58 3.93-5.51 3.41-11 6.86-16.38 10.45-2.11 1.4-3.15.73-4.37-1.15-2.7-4.16-6.09-7.5-11.33-8.19l-3.93.16c.76 3.78-1.28 6.87-4.93 6.9-4.27 0-1.93-3.07-2.05-5-6.49 3.19-7.52 12.61-1.46 17.57 5 4.11 10.75 7.11 17.52 7.68 2.16.18 2.76 3 5 3.87a67.63 67.63 0 0 1 16 8.81 40 40 0 0 1 10.29 10.67c1.88 3 2.2 7.71 8.11 5.33 2.23-.89 4.2 1.9 4 4.51s-1.76 4.32-4.53 3.83zm-70.92 1c.16-2.31 1.52-4.22 4.05-4.26a3.38 3.38 0 0 1 3.65 3.81c-.21 2.15-1.3 4.16-4.07 4.19-2.53.01-3.78-1.48-3.63-3.74zm26.94 7.78c0-1.51 1.2-2.2 2.72-2.12a2.14 2.14 0 0 1 2.22 2.19c-.46 1.41-1.36 2.86-2.82 2.83-1.29-.02-2.17-1.56-2.12-2.9zm27.11-52.19c-.34 3.62-1.72 5.49-4.8 5.23s-4.56-2.24-4.45-5.38 1.81-4.9 5-4.69c3.42.23 3.64 3.08 4.25 4.84zm22.1 69.82c-.43 0-1.05-1.2-1.22-1.94a1.65 1.65 0 0 1 1.52-2.05c1.12-.16 1.72.63 1.91 1.7-.49 1.04-.93 2.3-2.21 2.29zm5-26.83c-1.36-.29-3.1-1-3.13-2.58 0-1 1.25-1.8 2.57-1.64s2.75.36 2.7 2.13c.01 1.24-.8 2.36-2.09 2.09zm3.54 58.52c-1.9.08-3-1.1-2.94-3.1s.88-4 3.18-4.26c1.93-.19 3.08 1.32 3.86 2.65-.59 2.62-1.48 4.6-4.05 4.71zm3.32-41.79a2.16 2.16 0 0 1-2.17-2.27 2.55 2.55 0 0 1 2.3-2.29c1.25-.13 1.65.84 1.71 2-.16 1.12-.62 2.43-1.79 2.56zm13.78-7.65c-1.26.22-2.38 0-2.32-1.69 0-1 .42-2.23 1.56-2.08 1 .13 1.86 1.07 2.73 1.61a2.27 2.27 0 0 1-1.92 2.16zm3.39-14.17c-.74.12-1.38-.71-1.55-1.55a1.37 1.37 0 0 1 1.25-1.74c.87-.08 1.43.57 1.68 1.77-.38.42-.8 1.4-1.38 1.52zM672 593.4l-.12.06v-.06c-1.66 1.15-3.06 1-3.75-1.06a1.65 1.65 0 0 1 1.59-2c2.36-.22 2.71 1.19 2.16 3.1h.06c1.69-.89 3.4-2.1 5 .22-1.76 2.5-3.39 1.6-4.94-.26zm10.75-24.14c-1.32.19-2.19-.26-1.91-1.47.14-.61 1.16-1.54 1.6-1.45.81.17 2 .9 2.11 1.55.14 1.05-.83 1.62-1.84 1.37zm6.77 1.65c-.58 0-1.47-.83-1.72-1.48-.48-1.26.9-1.45 1.56-2a1.77 1.77 0 0 1 .16 3.52zm4.65 16.28c-1.94-.29-3-1.33-3.08-3.23s1-3.34 2.79-3.38a3 3 0 0 1 3.27 3.41c-.1 1.91-1.31 2.85-3.02 3.2zm12.53 1.95a1.17 1.17 0 0 1-.85-1.51c.21-.9.72-1.46 1.77-1.06.61.23 1.24.42 1.54.52-.97 1.7-1.53 2.31-2.5 2.05zm-1.13-3.93c-1.38-.82-3.63-.73-3.59-3.56s1.78-3.81 4-4a3.39 3.39 0 0 1 3.9 3.48c.05 2.6-1.73 3.69-4.35 4.08zm12.29-4c-2.37-.3-3.54-1.56-3.41-3.31a3.68 3.68 0 0 1 3.77-3.73c2 0 2.91 1.24 2.9 3.15-.04 2.47-1.89 3.17-3.3 3.92zm15.94 12.83a1.37 1.37 0 0 1-1.6-1.4 1.84 1.84 0 0 1 1.36-1.19c.49 0 1 .67 1.42 1-.14.97-.46 1.55-1.22 1.62zm12.49-22c-.28 2.67-2.87 2.88-4.47 4-1.58-.44-1.68-1.55-1.55-2.75.25-2.28 1.19-4.58 3.41-4.93 1.32-.1 2.78 1.82 2.57 3.74zM749 579c0-1.26 1.24-2 2.39-2.22A2 2 0 0 1 754 579c0 1.24-1 2-2.24 2.32-1.22-.43-2.76-.63-2.76-2.32zm6.84 13.58c-1.78-.15-3.1-1.19-3-3.24.13-1.82.92-3.46 3-3.13a3.33 3.33 0 0 1 3.07 3.34c-.24 1.71-1.01 3.22-3.05 3.05zm8.15-31a3.71 3.71 0 0 1-3.85 1.72c-12.95-2.46-26-.76-39-.75-8.19 0-16.38.21-24.58.29-16 .14-31.91.2-47.87.43-2.66 0-3.69-.46-3.67-3.45.12-27.92.07-55.85.08-83.78a14.57 14.57 0 0 1 .31-1.86c13.12 9.5 25.91 18.82 38.76 28.05 5.22 3.74 10.13 7.93 15.82 11 .08-1.77.51-3.07 2.77-3.07 1.31 0 2.09.25 2.6 1.5 1 2.52-1.83 3-2.38 4.64q23.38 16.82 46.77 33.61c4.17 3 8.41 5.88 12.55 8.91.89.62 2.85 1.11 1.7 2.75zm3 10.6c-.91 0-1.81-.3-1.89-1.21-.11-1.15.78-1.74 1.89-1.72.93 0 1.4.76 1.82 1.49a2 2 0 0 1-1.76 1.43zm9.06 1a2.28 2.28 0 0 1-2.44-2.49 3.17 3.17 0 0 1 2.91-3.38c1.51-.11 2.33 1 2.37 2.84-.07 1.48-.79 2.94-2.78 3zm4.6-45.91c-.69 0-1.86.41-1.65-1 .08-.51.8-.93 1.38-1.56.57.54 1.23.87 1.39 1.37.3.75-.28 1.2-1.06 1.16zm16.8 21c-1.48 1-2.7 0-3.31-1.1-1.08-1.87-2.78-2.73-4.53-3.67a3.64 3.64 0 0 1-1.91-4.17 3.35 3.35 0 0 1 2.89-3 3.27 3.27 0 0 1 4 2.24c.76 3 4.59 3.34 5 6.23a4.73 4.73 0 0 1-2.08 3.48zm9.6 17c-2 .18-2.69-1.17-2.69-2.71a2.32 2.32 0 0 1 2.45-2.5c1.67 0 2.26 1 2.45 2.48-.11 1.33-.46 2.55-2.15 2.71zm12.6-2.89c-1.81 0-2.78-.67-2.85-2.49s.49-2.78 2.51-2.71 2.52 1.13 2.66 2.8c-.09 1.36-.44 2.39-2.26 2.38zm28 19.45c-.45 2.35-1.87 4.4-4.73 4.09-2-.22-3.39-1.57-3.06-3.75.36-2.43 2-3.69 4.41-3.87 2.11.37 3.87 1.31 3.46 3.51zm7.72 4.64c-.12.94-.56 2-1.7 2.08s-1.59-1-1.81-1.83c-.3-1.19.65-1.66 1.66-2 1.08.17 2.08.46 1.93 1.73z"/><path class="cls-1" d="M828.75 593.1h.1a.19.19 0 0 1 0-.07zM828.87 593zM828.7 593a.3.3 0 0 0 0 .08l.11-.1zM332.49 357.47a.56.56 0 0 0 0 .53 2.39 2.39 0 0 1 0-.53z"/><path class="cls-1" d="M284.43 210.47c3 9.28 5.59 18.74 9.18 27.8 3.48 8.81 3.35 19.17 10.9 26.29-1.92 10.33 4.56 18.61 6.92 27.88s5.82 18.32 8.7 27.19c2.47-.16 1.4-2.52 3.1-2.78.28.32.57.71.92 1 4 3.69 6.37 7.47.85 11.87a2.35 2.35 0 0 0-.6 2.75c1.46 4.18 1.66 9.21 7.41 10.42a20.24 20.24 0 0 1 4 1.89c1.76.82 3.36 1.9 2.69 4.11a4.37 4.37 0 0 1-4.5 3.25c-1.11 0-2.22-.69-3.66-1.19.8 2.47 1.46 4.47 2.11 6.48.63.42 1.18 1.35 2.06.71 1.11-.8 2.05-1 2.88.26a1.65 1.65 0 0 1-.06 2.21c-1.16 1.31-2.3.67-3.43-.07 1.13 6.21 3.6 12 5.51 18 3.69 11.54 7.53 23 11.31 34.55l.71-.16v-2.36c0-18.29.07-36.59-.08-54.88 0-3.21.74-4.38 4.09-4.15 4.31.3 8.65 0 13 .12 2.84.1 3.29-.52 2.32-3.36-5-14.65-9.8-29.39-14.66-44.09-.51-1.55-1-3.06-3.2-2.88-2.67.22-2.5-2.41-3-3.85-.75-2 .74-1.68 2.17-1.4.84.17.71-1.07.5-1.48-3-6-1.25-14.22-8.36-18.38-.58-.33-1-1.19-.18-1.54 3.15-1.4.92-3.36.5-5-1.45-5.65-4.13-10.95-5.2-17.42 1.45.9 2.27 1.43 3.11 1.92 4 2.35 7.07 6.78 12.73 5.23a2.16 2.16 0 0 1 2.57 1.89c.63 7 7.2 8.4 11.29 12.09 1.37 1.23 2.94 3.05 5.53 1.07 1.48-1.14 2.69.18 2.46 2.2-.43 3.91 1.54 5.13 5 4.11 1.87-.54 3.41.11 3.38 1.69-.1 4.75 3.22 5.29 6.51 5.63 3.11.31 4.41 2.06 4.65 5 2.13-1.44 2.86-4.24 5.53-4 .61.07 1.39 1.49 1.54 2.37.47 2.72-2.59 2.34-3.67 3.7.17.4.22.82.45 1q21 15.32 41.95 30.61c1.47 1.08 2.42 1.18 3.62-.41s3.28-2 4.74-.43c1.81 2-1 2.62-1.64 3.92a10.63 10.63 0 0 1-.82 1.17c3.84 2.81 7.53 5.63 11.34 8.27 3.11 2.15 6.16 1.61 9.19-.46 1.27-.87 1.71-1.89.55-2.69-3.57-2.46-2.2-6.76-3.93-9.95-1-1.82-1.28-4.8 1.13-6.32 2.24-1.42 4 .35 5.72 1.68a10.4 10.4 0 0 1 4.27 2.71c5.89 6.12 11 2.89 16-1.35a29.28 29.28 0 0 1 3.65-2.58c2-1.21 1.92-2.33.07-3.61-3.28-2.25-6.52-4.54-9.77-6.84q-17.39-12.3-34.83-24.68c-3.3 8.08-3.3 8-11.46 7.3-2.66-.22-4.37-1.7-4.52-3.83-.46-6.79 5.9-5.65 10.08-7.65-7.85-5.67-15.26-11.2-22.89-16.42-2.34-1.6-4.42-4.84-8.26-2.76-.44.24-2.43-.73-2.22-2.17.44-2.86-1.73-3.7-3.44-4.9-16.29-11.41-32.37-23.11-48.73-34.43-21.11-14.63-41.75-29.95-62.64-44.89-3.17-2.27-6-6.16-10.84-3.21-.17.1-.77-.5-1.17-.78-.25.19-.65.34-.71.58-.62 2.27-1.88 3.44-4.26 2.39a2.09 2.09 0 0 1-.93-2.94c1.11-2.5 3-1.85 4.84-.92-1.28-1.46 2-3.13-.38-4.73-5.71-3.86-11.27-7.94-16.89-11.93 2 9.9 5 19.09 8 28.28 3.02 9.5 6.13 18.89 9.2 28.28zm183.42 92.74a2.07 2.07 0 0 1 2.25-1.53 3.11 3.11 0 0 1 2.17 2.43c-.58.85-1.16 1.77-2.36 1.41s-2.36-.97-2.06-2.31zm-14.38 1.56c.94-1.76 2.54-2.79 4.55-2 2.24.88 4.17 1.93 6.89 1.58 2.21-.28 1.48 2.76 2.4 4.19h.15v.05c3.41-2.91 4.38.74 6 2.38s.69 3.33-.83 4.59c-1.9 1.59-4 2.42-6.19.55-2-1.71-1.83-3.66-.42-5.66.46-.64 1-1.24 1.46-1.86h-.05l-.06-.1c-2.93 0-5.9-.66-8.21 2.45-1.12 1.48-3.43.68-4.86-.75a4.36 4.36 0 0 1-.83-5.42zm-14 11.48c.47-1.54.16-3.25 2.17-6.09-.45 4.49 6.51 4.74 2.74 9.26-2.38 2.87-6.06.58-4.89-3.17zm-12-16.72a2.91 2.91 0 0 1 4.05-2.42c2.31.78 3.54 2.37 2.49 5-.22.53-.48 1-.73 1.55h.07v.1c1.68-.65 2.83.28 3.47 1.59.31.64-.64 1.55-1.54 1.47-1.93-.16-2.27-1.44-1.93-3.06h-.12c0-.05.05-.09.07-.14a12.19 12.19 0 0 1-2.35-.11c-2.04-.51-3.85-1.57-3.43-3.98zM424 268.61c1.82-.19 1.84 1.42 2.16 2.61-.25 1.43-.65 2.51-2.44 2.45s-2.28-1.22-2.28-2.56a2.57 2.57 0 0 1 2.56-2.5zm-2.73 15a3 3 0 0 1 3.18 2.56c-.09 2.53-1 4.05-3.15 4.12-1.84.06-3-1.16-3.06-3.1s.76-3.56 3.01-3.58zm-9.38 6.62c.48.17.76.89 1 1.22 0 1.29-.82 1.2-1.27 1s-.77-.87-1.14-1.33c.46-.33 1.06-1 1.39-.89zm-30.58-27a2.55 2.55 0 0 1 2.29 1.45 2.33 2.33 0 0 1-2 1.86c-1.22.11-1.7-.87-1.82-1.82s.69-1.4 1.51-1.47zm-7.57 5.5c1.08-.17 1.81.77 1.81 1.87 0 1.47-1.15 1.86-2.34 2.13-.85 0-1.67-.1-1.74-1.23a2.5 2.5 0 0 1 2.25-2.75zm-8.28-5.81a2.24 2.24 0 0 1-2.52 1.82c-1.08 0-2-.48-1.89-1.77a2.51 2.51 0 0 1 2.13-2.39c1.16.42 2.36 1.15 2.26 2.36zm-5.08-14.48c1.93-.24 2.13 1.1 2.25 2.47.19 1.69-.88 1.93-2.15 1.85-1.5-.1-2.67-1-2.63-2.41 0-1.19 1.28-1.74 2.51-1.89zm-9.58-14.67a2.61 2.61 0 0 1 3-2.1c1.29.22 1.85 1.26 1.67 3.49a1.77 1.77 0 0 1-2.13 1.13c-1.24-.29-2.83-1.02-2.56-2.5zm.87 4.35c-.39.62-.79 2-1.41 2.11-1.23.21-1.92-1-2.1-2.15-.14-.95.54-1.48 1.4-1.65 1.1-.2 1.89.18 2.09 1.71zm-6.12-14.3c.13-1 .79-1.85 2-1.6a1.85 1.85 0 0 1 1.53 2.15c-.16.88-.54 1.94-1.87 2.05a2.65 2.65 0 0 1-1.68-2.58zm-2.9 15.6a2.11 2.11 0 0 1 2.36 2.42c-.17.95-1.31 1.72-2 2.54-1.22-.73-2.47-1.27-2.44-2.55a2.33 2.33 0 0 1 2.06-2.39zm-2.52 121.85c-.95.33-1.55-.22-1.72-1.12 0-.17.57-.62.93-.68a1.2 1.2 0 0 1 1.57.88c-.24.29-.45.82-.8.94zm9.5 22c-.1 1.3-.65 2.26-2.09 2.15a2 2 0 0 1-2-2.27c.13-1.36 1-2.72 2.45-2.53a2.33 2.33 0 0 1 1.62 2.63zm-3.53-23.74a1.67 1.67 0 0 1 1.74 1.87 3 3 0 0 1-1.63 2.63c-1.24-.57-2.19-1.38-2.29-2.49-.14-1.31.95-2.01 2.16-2.03zM339.33 286a2.76 2.76 0 0 1 2.95-2.66c1.53.1 2 1.43 2.18 2.8a2.36 2.36 0 0 1-2.65 2.31c-1.29-.13-2.69-.8-2.48-2.45zm1.53 53.55c1.3 0 1.84 1.21 2.08 2.41-.43 1.08-.84 2.42-2.26 2.18a2.24 2.24 0 0 1-2.11-2.36 2.4 2.4 0 0 1 2.29-2.23zm-6.57-95c2.81.06 4.13 1.59 4.36 4.47-.76 2.29-2 4.56-4.84 4.41-2.61-.13-4.74-1.74-4.55-4.74s2.16-4.16 5.03-4.11zm-2.23 81.74c2.83.13 4.07 1.24 3.87 3.79s-1.5 4-3.72 3.55c-3.18 0-4.76-1.42-4.53-3.84.21-2.17 1.51-3.6 4.38-3.47zm-10.87-17a1.3 1.3 0 0 1-1.54-1.37 1.74 1.74 0 0 1 1.69-1.43c1-.08 1.34.67 1.75 1.54a7 7 0 0 1-1.9 1.3zm-2.33-81.51c2 .26 3.62 1.11 3.6 3.33a3.13 3.13 0 0 1-3.47 3.37c-1.75-.14-3.57-1-3.65-3.3s1.71-2.89 3.52-3.36zM312.17 260a2.66 2.66 0 0 1 3.11-1 3 3 0 0 1 2.17 2.48c.25 2.87-2.81 2.59-4 4.09 1.55 1.71 2.08 3.8-.32 4.7a3.59 3.59 0 0 1-4.65-2.57c-.56-2.92 1.6-3.46 4-3.26-.94-1.44-1.74-2.92-.31-4.44zm-4.3-35.35c.69-.14 1.2.08 1.85 1.61-.22.09-.8.35-1.41.54a1.1 1.1 0 0 1-1.45-.77 1.19 1.19 0 0 1 1.01-1.4zM286 176c.7.39 1.55.69 1.5 1.69s-.58 2-1.71 1.82a1.74 1.74 0 0 1-1.31-1.84c.04-1.05.82-1.38 1.52-1.67zM337.32 183.21c-.86 2.34.28 2.76 1.58 3.67 6.51 4.59 13.08 9.1 19.43 13.88 2 1.53 3.35 1.54 5.56.37 10.7-5.66 21.6-10.91 33.2-14.55-1.55-2.7-2.73-5.22-7-4.23-2.48.58-4.13-2.46-4.51-5s-.47-5.48-2-8.22c2.71 1.35 5.17 1.14 7.84.75 3.58-.53 6.15 2.53 5.57 6.37-.31 2.07-1.05 3.39 2.07 4 2.25.43 1.6 2.75.48 4.4 1.56.53 2.88-.22 4.29-.71a326.65 326.65 0 0 1 40.22-11c1.91-.4 4.9.45 3.42-3.51-.28-.75 1.32-1.82 2.53-2s2.23.56 2.21 1.56c0 2.72 1.45 2.18 3.14 1.89 3.16-.54 6.58-.1 8.89-3.21a1.94 1.94 0 0 1 3.07-.33c2 2.33 4.56 1.41 6.9 1.18a306.18 306.18 0 0 1 149.72 22.28c5.95 2.47 12.14 7.78 17.61 7.06 5.75-.76 10.77-7.15 16.09-11.12 5.88-4.39 11.74-8.82 18-13.51-6.85-3.55-12.95-6.89-19.2-9.93-46.46-22.53-95.47-34.29-147.14-34.73-3 0-6.17-.82-8.34 2.48-1 1.49-2.66.58-3.32-.53-1.33-2.22-3.26-1.86-5.23-1.83-18.86.3-37.46 3-55.92 6.51a320.36 320.36 0 0 0-54 15.53 335.55 335.55 0 0 0-50.81 24.19c6.07 4.57 6.82 5.15 5.65 8.29zm315.51-2.55c1.33-.23 1.56.9 2 1.8-.27 1.12-.58 2.29-2.07 2.25-1.2 0-2.68-.67-2.7-1.66-.06-1.35 1.38-2.15 2.77-2.39zm-21.17-2.26c1 0 1.59.95 1.6 2.06-.15 1-.91 2.17-1.65 2a3.51 3.51 0 0 1-2.3-2.15c-.18-1.24 1.26-1.92 2.35-1.91zm-45.6-21.86c2-.12 3.07.91 3.28 2.39 0 2.36-1.19 3.34-2.76 3.37a3 3 0 0 1-3.33-3c-.06-1.74 1.13-2.66 2.81-2.76zm-14.89-9.71a2.11 2.11 0 0 1 2.67-1.6 3 3 0 0 1 2.21 2.42 2.8 2.8 0 0 1-2.59 1.85c-1.15-.16-2.67-1.01-2.29-2.67zm-15.52-1.15a3.58 3.58 0 0 1 3.77 3.34c-.25 3-1.88 4.29-4.27 4.25a3.48 3.48 0 0 1-3.71-3.8c.14-2.41 1.49-3.89 4.21-3.79zM517.34 141a2.89 2.89 0 0 1 3.41-2.37c1.08-.15 1.73.37 1.47 1.68-.35 1.73-1.14 3.29-3.14 3.19a1.9 1.9 0 0 1-1.74-2.5zm2 10c1.83.53 3.68 1.47 3.89 3.9-.37 1.52-1.5 2-2.92 1.82a4.07 4.07 0 0 1-3.67-3.93c-.14-1.19 1.62-2.06 2.7-1.79zm-38.72 2.77c1.87-.06 2.34 1.75 2.48 3 .17 1.52-1.12 2.2-2.5 2-1.76.21-2.79-.47-2.7-2.09a2.8 2.8 0 0 1 2.72-2.87zm-47.13-8.1c.64.5.36 1.17-.18 1.57-1.3 1-1.84-.74-2.89-.89 1.06-.7 2.03-1.44 3.07-.64zm-6.28 2A1.6 1.6 0 0 1 429 149c-.35 1-1.31.88-2 .89a1.18 1.18 0 0 1-1.22-1.28c.08-.8.77-.9 1.43-.94zm-15.85 20.82c1.68 0 3 .69 3 2.54s-1 2.93-3.14 2.85c-1.7-.07-2.88-.42-3-2.57a3 3 0 0 1 3.14-2.82zm-34.49 8.95c.91.09 1.63.4 1.56 1.42a1.63 1.63 0 0 1-1.46 1.63c-.4 0-1-.82-1.2-1.37-.48-1.05.36-1.38 1.1-1.68zm-14.67-.18c.72-.37 1.18 0 1.15-.45.17 2.22-.33 2.89-1.22 2.82-.46 0-.87-.79-1.3-1.22a7.4 7.4 0 0 1 1.37-1.15zm-4.07 15.16c-.19 1.35-.7 2.4-2.3 2.4-2 0-3.58-.45-3.62-2.9 0-1.7.9-3.24 2.38-3a4.09 4.09 0 0 1 3.54 3.5zm-15.29-21.88c2.12-.33 4.36.35 5.63-2.43.44-.94 1.72.23 2 1.25.42 1.76.72 3.55 1.06 5.33 1.85-.84 3.43-.74 4.57 1.2.72 1.23-.11 1.76-.95 2.28-2.58 1.6-3.29-.79-4.49-2.14-2.2 1.22-8.22-.55-9-2.69-.46-1.24-.17-2.59 1.18-2.8zM826.49 362.59l.08-.06-.09-.06a.76.76 0 0 0 .01.12zM826.63 362.5z"/><path class="cls-1" d="M729.83 216.22c-3.35 10.72-6.6 21.48-10.32 32.08-1.24 3.53-.59 5.49 2 8.08q77.68 78.12 89.31 187.74c.17 1.62 0 2.73 2.33 3.44 4 1.24 4.47 5.75.89 8-1.93 1.19-2.24 2.36-2.17 4.28.7 19.65.39 39.26-2.93 58.7-.52 3 1.56 4 3.44 5.35 1.55 1.12 2.69 2.24 4.34-.07.9-1.25 2.77-1.07 4.07 0s1.79 2.86.45 3.87c-2 1.48-.79 2 .34 2.76q9.73 6.9 19.46 13.81c.75.53 1.62 1.69 2.46.62a3.17 3.17 0 0 0 .09-2.79c-1-1.81-2.4-3.76-.33-5.31 3.88-2.88 2.69-7 3.67-10.79-4.75.51-9.88-.92-10.58-4.53-.76-3.92 5-4.06 8-4.65 2.34-.45 3.17-1.07 3.64-3.14 1.14-4.91 2.78-9.75.31-14.78-.88-1.8-1.38-3.93.85-5.3 1.84-1.14 1.29-2.93 1.35-4.46a341.21 341.21 0 0 0-12.69-108.49 22 22 0 0 0-7.63-11.7 7.72 7.72 0 0 1-3.56-6.39l-.15.15c-1.48.94-2.87.87-3.79-.82-.66-1.22.65-2.07 1.34-2.09 1.72 0 3 .7 2.54 2.72l.09.06c2.16-2.44 2-4.31-1.34-5.74-7.24-3-8.47-8.07-3.22-13.86 1.61-1.77 1.8-3 .84-5.1-5.66-12.57-11.76-24.9-18.63-36.87a344.66 344.66 0 0 0-41.17-56.75 315.06 315.06 0 0 0-31.56-31.09 5.61 5.61 0 0 0-1.74 3.06zm100.72 307.56a2.56 2.56 0 0 1-2.87-2.67c-.14-1.89 1.18-2.5 2.71-2.86 1.66.3 2.72 1.07 2.62 2.94a2.53 2.53 0 0 1-2.46 2.59zm1.78-74.42c-1.75-.38-3.09-1.41-3.17-3.23a2.53 2.53 0 0 1 2.7-2.84 2.78 2.78 0 0 1 3.14 3c0 1.71-1 2.71-2.67 3.07zm3.87 46.22c0 1.59-.54 2.79-1.55 2.54-2.44-.61-3.72-2.61-4.28-4.95-.27-1.11.43-1.91 1.65-1.89 3.11.06 2.98 3.02 4.18 4.3zm8-55.06c1.54-.19 2 1.31 2.69 2.24-.64 1.35-1 2.94-2.56 2.76a2.67 2.67 0 0 1-2.36-2.69 2.64 2.64 0 0 1 2.27-2.31zm-7.53 73.71c-1.67 0-2.25-1.32-2.46-2.56-.32-1.89 1.25-2.42 2.68-2.62 1.61-.23 2.26.9 2.49 2.34-.18 1.61-.86 2.81-2.67 2.84zm1.06-28.87a1.62 1.62 0 0 1 1.47 1.61 1.92 1.92 0 0 1-1.7 2.07 2.42 2.42 0 0 1-1.61-2.07c-.05-1.12.75-1.75 1.88-1.61zm-5-55c3 .33 4.19 2.26 4 5.3-1.07 1.52-.3 5.14-3.3 4.46-2.55-.58-5.39-2.78-5.43-5.75a4.09 4.09 0 0 1 4.77-4.01zM826.48 494a2.29 2.29 0 0 1-2-2.3 1.66 1.66 0 0 1 1.76-1.86c1 .08 1.55.94 1.69 2a1.93 1.93 0 0 1-1.45 2.16zm-.41-105.44c-1.37-.16-1.83-1.42-2-2.48a1.38 1.38 0 0 1 1.54-1.46c1.16.28 1.74 1.39 2.22 2.45-.42.75-.83 1.61-1.76 1.5zM825 374.41c1.72-.06 2.16 1.13 2.43 2.52-.31 1.55-1 2.73-2.9 2.52-1.42-.16-2.66-1-2.54-2.44a2.85 2.85 0 0 1 3.01-2.6zm-6 45.92c3.67 0 6.9 3.15 6.32 6.7-.44 2.7-.75 6.48-4 7.1-3.68.7-7.58-3.25-7.55-7.64.42-2.29.17-6.18 5.23-6.16zm-1.43-83.93c1.78-.3 2.29.85 2.74 2.06 0 1.24-.35 2-1.64 2.07a2.27 2.27 0 0 1-2.71-2.18c-.23-1.24.42-1.75 1.59-1.95zm-8.43 12.81a3 3 0 0 1 3.36-2.83c2.28.2 2.7 2 3 3.67-.33 2.06-1.33 2.74-3.39 2.6-2.35-.16-3.22-1.48-2.99-3.44zm-.88 15.26c.62-.07 1.24.28 1.27 1.44l-1.26 1.51c-.43-.44-1.07-.82-1.25-1.35-.33-.95.39-1.51 1.22-1.6zm-7.36-55.86a1.08 1.08 0 0 1 1.2-1.22c.86.06 1.64.41 1.3 1.72-.28.56-.47 1.5-1.56 1.39-1.26-.12-.93-1.13-.96-1.89zm-2.37-7.8c1.25-.15 1.69 1.11 1.51 2.05a9.69 9.69 0 0 1-1.58 2.71 12 12 0 0 1-1.58-2.69 1.77 1.77 0 0 1 1.63-2.07zm-11.12-12.12a1.37 1.37 0 0 1 1.46 1.49 5.89 5.89 0 0 1-1.08 2 2 2 0 0 1-1.61-1.69 1.54 1.54 0 0 1 1.21-1.8zm-10 4.18c1.79.89 2 1.8.94 2.87a2.27 2.27 0 0 1-1.07.43 3.49 3.49 0 0 1 .08-3.3zm.94 9.69c1.46-.2 2.09.62 2.12 1.58a1.39 1.39 0 0 1-1.62 1.39 2 2 0 0 1-2-1.67 1.4 1.4 0 0 1 1.45-1.3zm-4.18 3c1 0 1.82.22 1.63 1.29a2.69 2.69 0 0 1-1.86 2.08 1.28 1.28 0 0 1-1.76-1.09c-.18-1.37.95-1.84 1.94-2.31zm-29.54-69.81a3.46 3.46 0 0 1 3.58 3.09c.08 2.24-.8 2.92-2.72 2.93a2.94 2.94 0 0 1-3.33-2.88 2.6 2.6 0 0 1 2.42-3.17z"/><path class="cls-1" d="M826.43 362.62a.11.11 0 0 1 0-.06zM820.05 614.2c-1.91.72-3.51 3.35-5.93.55-2.16-2.52 2.42-2.26 1.61-3.79-7.13-2.14-12.94 1-18.46 4.4-2.12 1.32-2.91.15-4.19-.72-2.39-1.6.79-2.23.59-3.45l-9.79-.22c-3-.47-4.2 1.21-5.45 3.68a292.5 292.5 0 0 1-38.23 57.46c-3 3.56-6.06 7.09-9.42 11 4.41.8 8.41 0 11.69 2.48 1.31 1 2.87 1.67 2.23 3.89-1.88 6.44-5.43 8.19-11.68 5.89a11.07 11.07 0 0 1-5.64-3.84c-1.7-2.46-2.86-2.24-4.83-.18-6.67 7-14.09 13.16-21.25 19.6-10.87 9.77-23.49 17.18-35 26.14-4.16 3.25-10.29 5.32-15.42 8-27.44 14.58-56.16 25.8-86.86 30.56-11.57 1.8-17.15 6.24-19.21 17.56-1.56 8.58-5.16 16.8-8 25.68 10.34-1.15 19.9-2.16 29.33-4.11a1 1 0 0 0 0-.88c-4.27-2.56-5.27-8.19-2-11.48.52-.53 1.58-1.2 2.06-1a14.52 14.52 0 0 1 6.58 5.75c1.56 2.38-.35 4-1.65 5.62a4.49 4.49 0 0 1 .08 1c3.45-.66 7.38-.13 9.54-4a1.27 1.27 0 0 1 2.06-.37c2.83 2.12 5.73.73 8.56 0a344.32 344.32 0 0 0 116.78-55.15c2.22-1.62 5.59-2.55 5.08-6.51a1.16 1.16 0 0 1 1.73-1.06c3.44 2.17 4.17-1.27 5.87-2.71-2.89-.24-5-1.16-4.91-4.68.08-2.31 1.08-3.31 3.2-3.31 3.25-.07 4.66 1.84 4.92 4.86 2 .42 2.88-1.34 4.17-2.26 6.77-4.83 12.26-11.11 18.2-16.81 31-29.75 55.17-64.44 73.11-103.46.6-1.31 1.66-2.56 1.28-4.19l-.37.11zM552.19 800.83a2.93 2.93 0 0 1-2.82-3.24c.09-1.21 1-3 2.75-2.8s2.6 1.69 3.22 3.07c-.69 1.66-1.53 3-3.15 2.97zm15.78-3.1a3.76 3.76 0 0 1-3.73-3.9c0-2.23 1.26-3.69 3.74-4a4 4 0 0 1 3.88 4.23 3.52 3.52 0 0 1-3.86 3.67zm32-10.37c-.38 3.22-2.39 4.91-5.14 5-4.34-.2-6.35-2.44-6.28-6a5.15 5.15 0 0 1 5.28-5.42c3.17-.15 6.51 3.27 6.17 6.42zm59.28-20.46a2.35 2.35 0 0 1-2.49-2.42 2 2 0 0 1 2.46-1.74 9.47 9.47 0 0 1 2.54 1.67c-.58 1.43-1.3 2.43-2.5 2.49zm9.82-19.52c-2.22-.22-4.64-1.52-4.74-3.83-.07-1.54 1-4.58 3.64-4.5a4.5 4.5 0 0 1 4.67 4.22c.16 2.07-.64 3.94-3.56 4.11zm7.27 17.43a4.7 4.7 0 0 1-2.81-3.24c.26-1.12.85-1.85 2.05-1.65a2.81 2.81 0 0 1 2.49 3.18c-.01 1.12-.38 2.13-1.72 1.71zm24.43-14.08c-1.51-.66-3.77-.59-3.88-3 0-1.14 1-1 1.53-1.06 2 .34 3.81.78 4.4 2.64a1.57 1.57 0 0 1-2.04 1.42zm3.94-29a4.73 4.73 0 0 1-4.63-5c0-2.49 1.38-3.91 4.11-3.88 3 0 4 1.89 4.28 4.47-.24 2.39-1.22 4.54-3.75 4.43zm11.87 9.93c-1.1-.3-2.18-1.11-1.63-2.53.31-.8.57-2.21 1.81-1.82a3.24 3.24 0 0 1 1.9 2.69c-.33 1.06-.94 2-2.07 1.68zm19.07-20.63c-2.66 0-3.41-1.87-3.4-3.87s1.72-2.74 3.52-2.55a3.29 3.29 0 0 1 3.25 3.52c-.19 2.24-1.41 2.93-3.36 2.92zm23.35-4.67c-1.6.44-2.55-.84-2.74-2.11s1-2.33 1.81-3.15c1.94.11 2.32 1.6 2.7 2.72.46 1.31-.68 2.24-1.77 2.54zm16.12-36c.75 1.51-.55 3.06-2.14 4-1.83 1.15-3.19.2-4.55-.73a3.7 3.7 0 0 1-1.53-4.8c1.11-2.42 1.44-4.28-.39-6.74-1.71-2.3 3-9.52 5.67-8.82 3.18.83 2 4.37 3.25 6.95-2.01 3.26-2.07 6.6-.31 10.16zm15.73-36.59A2.1 2.1 0 0 1 789 632c-.08-1.14.55-2.39 1.65-2.43s2 1.16 2 2.31-.72 1.65-1.8 1.91zm4.15 12.95a1.54 1.54 0 0 1-1.51-2c.24-1.08.65-2.51 1.91-2.48s1.77 1.22 1.94 2.42a2.43 2.43 0 0 1-2.34 2.06zM166.63 547.78c.3 1.51.18 3.42 2.58 1.63 7.78-5.79 15.58-11.54 24.48-18.14-2.39 0-3.32.05-4.24 0-2.72-.17-5.74-.63-6.76-3.3s1.65-4.59 3.12-6.38c1.72-2.08 3.9.09 5.85.54a9.28 9.28 0 0 1 4.46 3c.89.93 1.21 3.1 3.34 1.88 1.85-1 2-2.41 1.68-4.54a281.4 281.4 0 0 1-3.62-41.19c0-2.26.69-4.75-2.21-6.11-.79-.38-1.09-2.36-.27-2.51 4.13-.71 2.36-3.85 2.42-5.87.26-9.15.78-18.28 1.94-27.36.25-1.92.08-3.1-2-4.41-3.11-2-2.52-6.6.52-7.62 4.3-1.44 4.66-2.55 1.68-6.34-2.14-2.73-2.29-4.84 1.43-5.89 2.3-.65 2.37-2.3 2.76-4.14a299.89 299.89 0 0 1 34.08-89.29c1.56-2.67-.06-5.33.92-7.2s4.38-1.45 6.09-4.3c8.24-13.69 18.07-26.25 28.44-38.41 3.73-4.38 10.36-7.57 10.77-13.14.4-5.35-3.09-11-4.88-16.5a6.55 6.55 0 0 1-.37-.92c-.63-3.78-2.33-3-3.95-.78-1.5 2.08-3.3 2.91-5.54 1.8a5.15 5.15 0 0 1-2.76-5.46c.42-3.55 1.55-7 5.25-8.4 2.5-.91 2.41-2.39 1.61-4.06s-.5-3.69-2.23-4.81a1.35 1.35 0 0 0-.49.18 340.48 340.48 0 0 0-87.13 125.88c-.33.81-1.54 1.79-.54 2.64 3.44 2.87.95 4.16-1.39 5.33-1.54.78-2 2.08-2.5 3.49a363.21 363.21 0 0 0-12.38 42.51c-.54 2.33-.87 4.3 2.69 3.82 1.28-.18 2.95.24 2.55 2.05-.33 1.48-2.22 1.28-3 .85-3.87-2.2-3.85.79-4.24 3.05-1.83 10.64-3.67 21.28-4.41 32.07-.19 2.87-1.51 5.78 1.58 8.23 1.46 1.15.83 3.41-.65 4.34-2.3 1.45-2.13 3.56-2.26 5.66-.84 13.48-.25 26.95.62 40.4a351.81 351.81 0 0 0 6.96 47.72zm112-297c1.48.18 2.87.76 3 2.73-.43 1.67-1.53 3.09-3.24 3a3 3 0 0 1-2.86-3.36 2.67 2.67 0 0 1 3.06-2.42zm-12.13 3.1c3.06 0 6.18.06 8.26 2.84.22.29-.27 1.63-.47 1.64-3.39.19-6.15-1.38-9-3.38.71-.74.94-1.15 1.17-1.15zm-10-6.26c2.46.07 4 1.1 4.15 3.69.06 1.38-.95 1.91-2.12 2.18-1.94-1-4-1.92-4.32-4.28-.28-1.67 1.02-1.67 2.25-1.64zm-42.91 118a1.78 1.78 0 0 1-2.28-1.6 1.22 1.22 0 0 1 1.4-1.52c1.21.08 1.52 1.1 1.77 2s-.63.87-.93 1.04zm22.38-65a1.45 1.45 0 0 1 1.61 1.39 1.42 1.42 0 0 1-1.5 1.48 2 2 0 0 1-1.28-1.21c-.37-.97.29-1.47 1.13-1.71zm.17 4c2-.16 3.2.29 3 2-.13 1.28-.83 2.89-2.19 2.78s-3.12-.89-3.33-2.41c-.27-1.99 1.77-1.92 2.48-2.44zm-6.35 1v.12c.91-.12 1.94-.49 2.47.54.33.64-.27 1.31-1 1.33-1.24 0-1.5-.86-1.5-1.87h-.13l.13-.14-.14.14a.86.86 0 0 1 0-.16c-1.14-.16-2.59.19-2.77-1.52 0-.39.85-1.28 1.25-1.24 1.73.17 1.35 1.64 1.52 2.76zm-4-14a2.9 2.9 0 0 1 2.82 2.34c.13.88-1 1.54-1.82 1.7a2.28 2.28 0 0 1-2.51-2.09c-.18-1.14.24-2.1 1.5-2.03zm-9.45 37.94c1.26-.05 1.73.84 1.79 1.79s-.52 1.5-1.87 1.57c-.49-.46-1.58-1-1.76-1.75-.27-1.17.74-1.64 1.83-1.69zm-3.5 12.86a17.32 17.32 0 0 1 6.75 3.94c.69.61-5.29 5.39-7 5.07-2.77-.53-4.15-2.42-4.49-5.24.49-2.65 2.21-4.5 4.73-3.85zm-3.41 11.49c1.67 1.62 1.66 3.51-.6 5.91-.51-2.3-3.68-2.9-2.44-5.55a1.91 1.91 0 0 1 3.03-.44zm-4.93-4.32c1.21 0 1.3 1.13 1.83 1.54-.5 1.3-.76 2.48-2 2.32-1-.13-1.51-1.2-1.63-2.12-.12-1.23.63-1.86 1.79-1.82zm-37.17 162.29c-2.21.22-3.7-1.13-3.75-3.53 0-2.24.89-3.81 3.29-4.09 2.57-.29 3.38 1.43 3.86 3.07 0 2.74-1.24 4.34-3.4 4.55zm6.32 3.85c-.32.84-.67 1.8-1.7 2.06a2.47 2.47 0 0 1-1.88-2.65 1.65 1.65 0 0 1 2.08-1.55c.85.27 1.99.85 1.5 2.14zm10.24-16.49a2.27 2.27 0 0 1-2.33-2.54 2.12 2.12 0 0 1 2-2.31c1.4.69 2.57 1.63 2.44 3.29a1.74 1.74 0 0 1-2.11 1.56zm8.11-22.82a1.67 1.67 0 0 1 1.61 2c-.13.7-.81 1.28-1.23 1.91a3 3 0 0 1-1.74-2.33 1.27 1.27 0 0 1 1.36-1.58zm-2.93 33.43a2.64 2.64 0 0 1 3.05 2.58c.15 1.6-.87 2.38-2.25 2.75a3 3 0 0 1-3.11-2.68 2.24 2.24 0 0 1 2.31-2.65zM180 456a2.43 2.43 0 0 1 2.36 2.57c.08 1.44-.9 1.93-2.23 1.86-1.67.06-2.29-1.05-2.35-2.43a1.92 1.92 0 0 1 2.22-2zm-12.32-18.09a6 6 0 0 1 5 5.31c0 2.75-1.32 3.52-3.21 3.23-3.33-.52-4.56-3-4.72-6a2.33 2.33 0 0 1 2.9-2.58zm-4.23 22.29c1.14-.21 1.8.54 2.18 1.56-.41.82-.59 2-1.75 2-.94 0-1.33-.86-1.56-1.68a1.37 1.37 0 0 1 1.1-1.92zm-1 13.92c1-1.08 1.58-.32 2.3.13.52-1.87-.64-5.74 3.75-3a12.82 12.82 0 0 1-.39-3.38 6.35 6.35 0 0 1 4.05-5.25c2-.71 2.29 1.89 3.4 2.95 3 2.91 5 6.76 8.39 9.44 2.12 1.67 2.74 4.5 2.75 7.2a4.75 4.75 0 0 1-3.56 4.83 5.74 5.74 0 0 1-6.23-2c-1.49-1.78-2.76-3.74-4.12-5.63h-.06v-.16c-1.21 2.08-2.87 3.79-5.39 3s-2.09-2.91-1.54-4.89l-1-1c-.75.29-1.39 1.55-2.31.2-.62-.87-1-1.51-.11-2.48zM455.52 780.59c-.82-2.65-2.5-3.29-4.69-3.6-8.07-1.16-15.93-3.22-23.86-5-9.35-2.16-18.21-6-27.85-7.27-6-.77-10.51-5.47-16-7.82a299.09 299.09 0 0 1-65.86-38.9c-33.11-25.68-60.26-56.6-80.58-93.3-1.89-3.41-4-4.79-8.08-4.68-12.12.31-24.26.11-36.39.11l-.61 1.63c1.39 1.56 1.07 4.2 4 4.91 1 .23 2.54 1.92 1.75 3.11-1.58 2.38.26 3.77 1.08 5.37a227.45 227.45 0 0 0 14.78 25.36c1.82 2.66 2.21 7.14 7 7 .26 0 .93 1.27.77 1.5-1.94 2.82.7 4.33 1.86 6 3.12 4.51 6.41 8.92 9.88 13.16s6.45 11.64 11.34 11.4c10.32-.51 1.32 10.47 7.88 11a348.36 348.36 0 0 0 38.87 35.79c3.33 2.63 6.43 5.57 10.94 2.17a1.91 1.91 0 0 1 2.69.5c1.77 2.94 7.31 2.18 7 7.15 0 .22.69.64 1.09.7s.93 0 .51-.84c-1.64-3.12 1.07-2.07 2-1.76a8.9 8.9 0 0 0 6.72-.54c2.16-.94 4.91-.89 5.46 1.59.84 3.77 2 8.36.57 11.54-1.85 4.23 0 4.95 2.74 6.56 21.49 12.73 44.31 22.52 68 30.33a306.34 306.34 0 0 0 48.76 11.83c-1.09-3.28-.45-5.9 2.53-7.23a4.81 4.81 0 0 1 5.58.61c2.71 2.48 1.4 5.1.11 7.92 3.14.4 6.1.73 9.05 1.16 2.6.37 3.14-.22 2.21-2.93q-5.89-17.19-11.25-34.53zm-247.7-152.53c-.7-.21-1.88-.94-1.82-1.24.24-1.19 1.47-1.47 2.5-1.63s1.24.75 1.4 1.53a1.47 1.47 0 0 1-2.08 1.34zM236.49 641c-.17 2.85-1.84 4.82-5 5.27-2.66-.64-3.72-2.74-3.53-5.15.21-2.83 1.78-5.22 4.94-5.15 2.95.03 3.72 2.66 3.59 5.03zm8.19 5.84c-1.25.32-1-.88-1.3-1.51-.47-1 .08-1.45.81-1.87.92.34 1.89.68 2 1.82.02.94-.79 1.38-1.51 1.56zm8.91 28.21c.06-2.41 4.39-7.85 6.26-7.69s3.36 1.46 2.75 3.32c-1 3.08-.9 7.2-5.25 7.81-2.29-.32-3.83-1.06-3.76-3.44zm15.06 25.82c-.33 3.67-2.79 5.54-6.17 6.11-2.75.46-2.65-1.79-2.9-3.33.53-3.7 1.35-7.09 5.64-7.26 2.78-.1 3.64 2.08 3.43 4.48zm8.52 10.32a3.86 3.86 0 0 1-4.3-4.28c.09-2.68 1.77-4.79 4.62-4.8a4.09 4.09 0 0 1 4.36 4.29c-.36 2.8-1.77 4.68-4.68 4.79zm35.46 34.87c-.76.1-1.32-.15-1.35-1a1.58 1.58 0 0 1 1.61-1.56 1.41 1.41 0 0 1 1.58 1.49c-.06 1.23-1.06 1.01-1.84 1.07zm.1-9.1c-3.28.32-6-3.11-9.62-1.69-.62.23-1.59-1.64-1.45-2.82s1.32-2.46 2.35-2c2.35 1 3.13-.54 4.39-1.85a4.32 4.32 0 0 1 5.42-1 4.84 4.84 0 0 1 3 4.68c-.02 2.72-1.47 4.43-4.09 4.72zm7.57 14.95c-1.07.29-1.8-.5-2.14-1.53a2.11 2.11 0 0 1 2.27-1.49c1.1 0 2.23.5 2.14 1.48-.06.63-1.39 1.31-2.27 1.54zm90.17 33.76c-2.18-.4-3.77-1.6-4-3.84a3.07 3.07 0 0 1 3.33-3.51 3.64 3.64 0 0 1 3.89 3.7c.12 2.24-1.11 3.33-3.22 3.65zm17.21 23.06a3.92 3.92 0 0 1-3.69-3.91 2.56 2.56 0 0 1 3.07-2.89c2.22.3 3.14 2 3.44 4.08-.2 1.72-1.24 2.89-2.82 2.72zm7.19-17.33a1.74 1.74 0 0 1-1.77-1.4c-.16-1.2 1-1.06 1.61-1.46.77.25 1.72.29 1.77 1.38a1.45 1.45 0 0 1-1.61 1.48zm9.25 16.45a2 2 0 0 1-1.56-2.58c.53-1.3 1.39-2.93 3.09-2.59 1.38.27 2.16 1.67 2.67 2.72-1.11 1.96-2.32 2.98-4.2 2.45zM467.12 324.1a6.77 6.77 0 0 0 2 6.22c1.12 1.09 2.5-1 3.5-1.9s2.93-1.05 2.76-3l-4.15-2.82c-1.56.05-3.57-.79-4.11 1.5z"/><path class="cls-1" d="M822.31 610.32a2 2 0 0 0-1.85-.07c-1.46.92.64 1.44.37 2.26a13.57 13.57 0 0 1-.78 1.69c.21-.45.46-.47.75-.07.86-.1.87-.82 1-1.41.25-.81 1.73-1.45.51-2.4z"/><path class="cls-1" d="M820.05 614.2h.38l.37-.11c-.29-.36-.54-.34-.75.11zM363.27 566.74a2.26 2.26 0 0 1-.77-.53c-2.44.26-2.07 2.12-2.15 3.74a6.57 6.57 0 0 0 1.08-.1c.25-1.18 1.31-2.04 1.84-3.11z"/><path class="cls-1" d="M361.43 569.85a6.57 6.57 0 0 1-1.08.1l1.15 1.23a2.46 2.46 0 0 1-.07-1.33zM363.47 566.21h-1a2.26 2.26 0 0 0 .77.53 3.39 3.39 0 0 0 .23-.53zM566.45 814a1 1 0 0 1-.3.87c1.7-.24 3.64.67 5.05-1a2.19 2.19 0 0 1-.42-.76 7.74 7.74 0 0 1-4.33.89z"/><path class="cls-1" d="M570.78 813.06a2.19 2.19 0 0 0 .42.76 4.49 4.49 0 0 0-.08-1 3.87 3.87 0 0 1-.34.24zM566.45 814h-.35a1 1 0 0 1 0 .88 1 1 0 0 0 .35-.88zM487.14 788.49c-.95 0-2-.31-2.79.4l3 .88a2.23 2.23 0 0 1-.21-1.28z"/><path class="cls-1" d="M487.14 788.49a2.23 2.23 0 0 0 .22 1.28l1-1.7a1.86 1.86 0 0 1-1.22.42z"/><path class="cls-1" d="M487.14 788.49c0-.18 0-.36.05-.53-1.05-.21-2.12-.47-2.84.93.81-.71 1.84-.36 2.79-.4zM487.19 788c0 .17 0 .35-.05.53a1.86 1.86 0 0 0 1.19-.42 4.45 4.45 0 0 1-1.14-.11zM717.07 185.13a6 6 0 0 0 1.21 1.31c.2-.38.66-.9.54-1.14a7.33 7.33 0 0 0-1.36-1.58c-.19.61-.53 1.13-.39 1.41zM684.59 474.91c-.54-.68-1.1-1.35-1.64-2l-.17-.24c-1.48.68-2.82 1.88-4.64 1.37l-.1.07-.07.05c.07.74.14 1.48.2 2.22.31.33.61.67.91 1q2.09-4.38 5.51-2.47zM683 472.88c.54.68 1.1 1.35 1.64 2a8.34 8.34 0 0 1 1.38 1v-.47l-1.94-3.18a4.22 4.22 0 0 0-1.29.41z"/><path class="cls-1" d="M685.8 476.6a3.59 3.59 0 0 0-.49-.8c-.23-.3-.47-.6-.72-.89q-3.42-1.94-5.52 2.44c2.12-1.56 4.22-3.26 6.73-.75z"/><path class="cls-1" d="M686 475.88a8.34 8.34 0 0 0-1.38-1c.25.29.49.59.72.89a3.59 3.59 0 0 1 .49.8l.09.09c0-.24.02-.51.08-.78zM389.43 450.38a18.6 18.6 0 0 1-5.29.72 1.74 1.74 0 0 1 1.2 1.33c.98-1.43 3.22-.37 4.09-2.05z"/><path class="cls-1" d="m382.39 450.26.37.28a11.55 11.55 0 0 0 1.35.55 18.6 18.6 0 0 0 5.29-.72 17.57 17.57 0 0 1-7.01-.11zM384.14 451.1h-.6l1.8 1.33a1.74 1.74 0 0 0-1.2-1.33z"/><path class="cls-1" d="M383.54 451.1h.6a11.55 11.55 0 0 1-1.35-.55zM382.39 450.25zM578 514a.85.85 0 0 1 .34.29l3.93-.16A6.87 6.87 0 0 0 578 514z"/><path class="cls-1" d="M576.32 513.32c.41.57 1.17.38 1.72.66a6.87 6.87 0 0 1 4.27.13c-1.84-1.45-4-.46-5.99-.79zM578 514a5.12 5.12 0 0 0-.65.25h1a.85.85 0 0 0-.35-.25z"/><path class="cls-1" d="M577.39 514.23a5.12 5.12 0 0 1 .61-.23c-.55-.28-1.31-.09-1.72-.66a1 1 0 0 0 1.11.89zM532.06 738.16c.34.72.79 1.47 1.66 1.24.26-.06.36-1 .39-1.6.07-.95 0-1.91 0-2.86-1.03.84.66 3.44-2.05 3.22z"/><path class="cls-1" d="M532.06 738.16c2.71.22 1-2.38 2.07-3.22-1.76.38-.33 2.82-2.07 3.22zM171.31 475c-.49-.63-1-1.24-1.49-1.87l-.3-.32-4.77 1.6v2l1 1c1.5-3.13 3.39-3.81 5.56-2.41z"/><path class="cls-1" d="M169.82 473.08c.49.63 1 1.24 1.49 1.87a8.29 8.29 0 0 1 1.27 1v-.47l-1.95-3.1-1.16.39zM172.44 476.73a3.52 3.52 0 0 0-.43-.87c-.22-.31-.46-.61-.7-.91-2.17-1.35-4.06-.67-5.61 2.36 2.15-1.5 4.3-3.31 6.74-.58z"/><path class="cls-1" d="M172.58 475.94a8.29 8.29 0 0 0-1.27-1c.24.3.48.6.7.91a3.52 3.52 0 0 1 .43.87l.06.07c.03-.28.06-.56.08-.85zM686.27 476.26c.59.95.13 2.23.8 3.17 1.42-1.81.63-3-1.06-4a.72.72 0 0 1 .26.83zM686.38 479.15a11.75 11.75 0 0 0-.45-2.23c.07.78-.27 1.73.45 2.23z"/><path class="cls-1" d="M685.89 476.69a1.57 1.57 0 0 1 0 .23 11.75 11.75 0 0 1 .45 2.23 1.77 1.77 0 0 0 .69.28c-.67-.94-.21-2.22-.8-3.17a1.06 1.06 0 0 1-.34.43zM686 475.9a1.59 1.59 0 0 1 .28.36.72.72 0 0 0-.26-.85v.47z"/><path class="cls-1" d="M686.27 476.26a1.59 1.59 0 0 0-.28-.36c0 .27-.05.54-.08.81a1.06 1.06 0 0 0 .36-.45zM172.66 479.37h.06zM172.63 475.47a.8.8 0 0 1 .29.79 2.88 2.88 0 0 1-.24 3c3.2-1.26 1.66-2.51-.05-3.79zM172.65 479.25v.12-.06z"/><path class="cls-1" d="m172.51 477 .12 1.9v-.26a4.7 4.7 0 0 0-.12-1.64z"/><path class="cls-1" d="M172.5 476.8v.2a4.7 4.7 0 0 1 .12 1.64v.69a2.88 2.88 0 0 0 .24-3 1 1 0 0 1-.36.47zM172.92 476.26a.8.8 0 0 0-.29-.79v.47z"/><path class="cls-1" d="M172.5 476.8a1 1 0 0 0 .42-.54l-.34-.32c-.02.29-.05.57-.08.86z"/></svg>