<svg id="Capa_1" data-name="Capa 1" xmlns="http://www.w3.org/2000/svg" viewBox="0 0 1000 1000"><defs><style>.cls-1{fill:#f7df1e}</style></defs><path class="cls-1" d="M97.88 555.2v2.08a15.77 15.77 0 0 1-8.63-3.44 15.57 15.57 0 0 1-5.16-7.72 15 15 0 0 1 1.62-12 15.49 15.49 0 0 1 10.07-6.8c4.41-.88 9 0 13.21 1.57s8.23 3.58 12.41 5.23a76 76 0 0 0 7.64 2.55 6.73 6.73 0 0 0 3.18-3.43 12.2 12.2 0 0 0 .68-4.7V473.8a42.82 42.82 0 0 1 .52-7.84 21.86 21.86 0 0 1 2.79-7.32c2.75-4.47 7.16-7.62 11.52-10.53l7.65-5.1 2 2.16a12.51 12.51 0 0 0-5 6.2 22.84 22.84 0 0 0-1 8v54.26a100.38 100.38 0 0 1-27.45 30.2 18 18 0 0 1-3.07 1.89 11.89 11.89 0 0 1-3.46 1 28.48 28.48 0 0 1-7.19-.37l-12-1.57a10.69 10.69 0 0 0-2.46-.12 4.9 4.9 0 0 0-2.3.81 4.55 4.55 0 0 0-1.54 1.88 5 5 0 0 0-.37 2.41 6 6 0 0 0 2.15 4 6.62 6.62 0 0 0 4.19 1.44zM92.32 494a15.89 15.89 0 0 0-.29 3 16.67 16.67 0 0 0 1.97 7.7h2.5a8.1 8.1 0 0 1 .08-3.36 6.52 6.52 0 0 1 2.7-3.93 6.43 6.43 0 0 1 2.27-.88 13.23 13.23 0 0 1 2.44-.16h4.77v9.32a48.67 48.67 0 0 1-.32 6.83 18.43 18.43 0 0 1-2.07 6.48 14.24 14.24 0 0 1-5.71 5.6h4.31a46.77 46.77 0 0 0 11.5-5 20 20 0 0 0 7.21-7.23 16.16 16.16 0 0 0 1.64-4.88 31.66 31.66 0 0 0 .3-5.15v-28.6c0-4.26.39-8.6 2.15-12.48a18.51 18.51 0 0 1 4.77-6.32c2-1.74 4.3-3.16 6.36-4.85a24.63 24.63 0 0 0 5.07-5.57l.2-3.47a15.39 15.39 0 0 1-5 3.14 18.43 18.43 0 0 1-8.17 1 64.9 64.9 0 0 1-9.51-2 30.27 30.27 0 0 0-9.64-1.06A21.94 21.94 0 0 0 100.1 447 34.39 34.39 0 0 0 90 460.93h3a7.94 7.94 0 0 1 4-4.25 11.38 11.38 0 0 1 5.16-1 57.24 57.24 0 0 1 8.21 1.12 44.86 44.86 0 0 0 8.25.72 31.36 31.36 0 0 0 8.65-1.46q-5.17 4.2-10.47 8.25c-2.3 1.76-4.66 3.55-6.2 6a12.08 12.08 0 0 0-1.6 4 21.51 21.51 0 0 0-.31 4.32v3.45c-3.11.48-6.26.91-9.08 2.28a13.3 13.3 0 0 0-4.82 3.92 13.87 13.87 0 0 0-2.47 5.72zM194.06 534.77l4.33-2.34 1.88 2.51-18 9.31-13.77-11.91-5 3.13-1.89-2.47 8.77-5.64v-31.98a9.12 9.12 0 0 0-.16-1.95 5 5 0 0 0-.77-1.78 5.68 5.68 0 0 0-2.32-1.94 6.54 6.54 0 0 0-3-.57v-1.88l21.3-21.37h2.51v15h15.54l-6.13 7.19h-9.41v40.46zM209.16 486.36a16.53 16.53 0 0 0 8.43-10.79 19.72 19.72 0 0 0-.49-10.74 14.3 14.3 0 0 0-2.56-4.77 7.68 7.68 0 0 0-4.53-2.8 5.1 5.1 0 0 0-2.23.15 8.07 8.07 0 0 0-2 1l-1.65 1.09-1.7-2.75 17.71-11.61a20.88 20.88 0 0 1 7.05 7.12 18.48 18.48 0 0 1 2.62 10.14 19.71 19.71 0 0 1-2.4 8.36 32 32 0 0 1-5.25 7 70.58 70.58 0 0 1-12.15 9.9zM282.67 491.47a28.9 28.9 0 0 1-3.79 6.23 33.75 33.75 0 0 1-4 4.06l11.24 8.33v19.75l-25.8 15.69a12.35 12.35 0 0 0-6-5.36 9.89 9.89 0 0 0-4-.76 7.08 7.08 0 0 0-3.84 1.22 5 5 0 0 0-1.77 2.24 4 4 0 0 0 0 2.83 3.68 3.68 0 0 0 1.62 1.9l-1.22 3.4a12.86 12.86 0 0 1-7.08-6.87 14.49 14.49 0 0 1-.36-9.91c1.49-4.75 4.94-8.61 8.47-12.12 1.05-1 2.13-2.06 3.22-3.07l-9.89-7.8V493l27-15.69a13.62 13.62 0 0 0 5.39 4.71 9.54 9.54 0 0 0 4.28 1 6.89 6.89 0 0 0 4.13-1.39 6 6 0 0 0 2.28-4.06h3.74a44.77 44.77 0 0 1-3.62 13.9zm-25.3 25.39q-4.43 3.79-8.62 7.85c-1.3 1.27-2.59 2.55-3.77 3.94a14.72 14.72 0 0 1 7.81-3 16.29 16.29 0 0 1 8.4 1.62 17.46 17.46 0 0 1 8.11 8.38v-17l-7.24-5.77zm14-16.85a36.3 36.3 0 0 0 4.59-4.52c.41-.52.81-1.05 1.18-1.6a15.06 15.06 0 0 1-4.55 1.37 15.31 15.31 0 0 1-8.13-1.15 15.66 15.66 0 0 1-8.12-8.38v17l5.4 5.52zM332.57 493.88a13.5 13.5 0 0 1 2.57-5.45 13.25 13.25 0 0 1 4.75-3.7c2.95-1.4 6.26-1.77 9.49-2.24V460.41a15.6 15.6 0 0 0-.21-3.13 7.24 7.24 0 0 0-1.23-2.86 6.29 6.29 0 0 0-2.42-1.95 6.59 6.59 0 0 0-3.06-.56 7.49 7.49 0 0 0-4.46 1.89 7.89 7.89 0 0 0-2.42 4.26h-3.27a13.69 13.69 0 0 1 1.18-6.8 15.54 15.54 0 0 1 8.07-7.63 20.2 20.2 0 0 1 11.14-1.27 18.51 18.51 0 0 1 8.18 3.4 16 16 0 0 1 5.28 7.06 25.83 25.83 0 0 1 1.41 8.56c.08 2.9 0 5.8 0 8.7v51.7a36.83 36.83 0 0 1 6 1.39v-79.78h3.75v11.5l17.79-13.32 12.79 12.13v67l6.84 4.6v-81.91h3.75v11.69l17.91-13.41 12.8 12.05v65.93l-35.27 26.43-22.5-15.28-17.54 14.37a30.15 30.15 0 0 0-41-2.64h-2.49a35.84 35.84 0 0 1 19-18.51v-26.74h-5.19a13.76 13.76 0 0 0-2.4.15 6.45 6.45 0 0 0-2.25.8 6.15 6.15 0 0 0-2.75 3.79 6.75 6.75 0 0 0-.09 2.83h-2.5a15.77 15.77 0 0 1-1.65-10.97zm58.43-14.5v-17.77l-8.44-7-5.28 4v27.76zM377.26 500l13.74-6.9v-9.52l-13.72 6.93zm5.25 27.57 8.47-7.14V497.3l-13.72 6.93v20.4a34.8 34.8 0 0 1 5.25 2.98zm35.92-.73h-1.38l7.54 5.07 7.69-5.56v-29.11l-13.85 7zm13.85-47.57v-17.6l-8.45-7-5.4 4.05v27.57zM418.43 500l13.85-7v-9.53l-13.85 7zM501.9 531.71l-18.79 13.16-12.53-11.28-4.39 3.14-1.88-2.51 8.15-5.64V494.1l-4.39-5.64-5 3.13-1.88-2.5 17.54-11.91 10 11.91v39.49l4.38 4.38 5.64-3.76zm-21.14-83.14 11.13 12.69-12.48 11-11.14-12.69zM534.9 534.77l4.33-2.34 1.88 2.51-18 9.31-13.78-11.91-5 3.13-1.88-2.47 8.77-5.64v-31.98a9.12 9.12 0 0 0-.16-1.95 5 5 0 0 0-.77-1.78 5.74 5.74 0 0 0-2.32-1.94 6.54 6.54 0 0 0-3-.57v-1.88l21.3-21.37h2.51v15h15.53l-6.12 7.19h-9.41v40.46zM573.43 528.14a17.45 17.45 0 0 0 8.3 2.35l7.54-5.45 1.69 2.29-19.23 16.89h-1.83l-19.73-13.45v-39.1l27-15.05L591 487.73l-12.42 9.41-11.58-9.67v34a17.42 17.42 0 0 0 6.43 6.67zM626.62 532.84l4.06-2.82L633 533l-16.28 11.29-13.42-11.45-5 3.14-2.23-3 8.77-5.64v-59.56a9.06 9.06 0 0 0-.15-1.95 4.69 4.69 0 0 0-.77-1.79 6.71 6.71 0 0 0-2.33-1.93 16.12 16.12 0 0 0-3-1.23V459l21.3-15h2.5v48.48l16.29-15.26 13.82 11.56 5.16-4.18 2.3 2.84-5.64 4.56v34.1a60.8 60.8 0 0 1-.66 10.62 28.19 28.19 0 0 1-3.69 9.93 26 26 0 0 1-11.35 9.87 28.29 28.29 0 0 1-15.62 2.14v-3.13a15.89 15.89 0 0 0 7.63-4.11 20.28 20.28 0 0 0 5-8.3c1.68-5 1.79-10.48 1.79-15.8V496l-7.77-6.44-7.27 6.81v32.23zM693.67 528.14a17.42 17.42 0 0 0 8.3 2.35l7.53-5.49 1.7 2.29-19.2 16.93h-1.83l-19.73-13.45v-39.1l27-15.05 13.85 11.11-12.41 9.41-11.63-9.67v34a17.42 17.42 0 0 0 6.42 6.67zM758 530.75l-19.51 14.12-14.36-11.28-4.39 3.14-1.87-2.51 8.14-5.64V494.1l-4.39-5.64-5 3.13-1.87-2.5 17.53-11.91 9.58 10.31 9.14-10.35h1.35a7.13 7.13 0 0 0 5.67 3.22 7 7 0 0 0 3.49-.8 7.08 7.08 0 0 0 2.65-2.42H768a49.11 49.11 0 0 1-1.4 7.23 21.31 21.31 0 0 1-2.46 5.86 11.51 11.51 0 0 1-4.68 4.21 10.67 10.67 0 0 1-4.89 1 14.41 14.41 0 0 1-4.87-1.13 20.86 20.86 0 0 1-6.38-4.26v38.57l5.16 4.07 7.06-4.82zM828.1 532.34l-18.19 12.5-10-10-13.79 10a21.75 21.75 0 0 1-13.95-7.49 14.63 14.63 0 0 1-1.39-17.49 24.42 24.42 0 0 1 4.81-5.58 43.84 43.84 0 0 1 8.58-5.8c-.66-.26-1.31-.55-2-.85a17.77 17.77 0 0 1-7.59-6.16 10.43 10.43 0 0 1-1.67-4.89 9.64 9.64 0 0 1 .89-4.7 11.65 11.65 0 0 1 2.92-3.8 21.43 21.43 0 0 1 4.33-2.78l14.41-7.53 19.29 12.45 5.27-4.28 2.31 2.84-6.82 5.54v33l6.26 6.27 5.64-3.76zm-28.81-35.11-16.29-10a11.52 11.52 0 0 0-2.73 1.55 9.7 9.7 0 0 0-2.57 2.88 7.34 7.34 0 0 0-1 3.71 8.17 8.17 0 0 0 1.94 4.93 17.78 17.78 0 0 0 6.28 4.54 53.76 53.76 0 0 0 7.29 2.75c2.33.73 4.67 1.36 7 1.93zM791.56 511c-1.7-.51-3.41-1-5.09-1.61a15.36 15.36 0 0 0-2 5.51 18.81 18.81 0 0 0 2.09 11.6 15.56 15.56 0 0 0 3.42 4.46 10.52 10.52 0 0 0 5 2.51 9.07 9.07 0 0 0 4.36-.26v-19.9c-2.62-.81-5.2-1.57-7.78-2.31zM837.33 492.66a8.68 8.68 0 0 0-.15-1.84 5.28 5.28 0 0 0-.77-1.79 5.76 5.76 0 0 0-2.33-1.93 6.51 6.51 0 0 0-3-.58v-1.88l6.26-6.69v-16.83l29.12-16.48L884 455.48l-16.12 9-14.27-9v22.76h16.85l-6.13 7.19h-10.77v43.07l7.46 6.19 4.32-2.34 1.88 2.51-18 9.31-13.79-11.91-5 3.13-1.87-2.39 8.77-5.64z"/><path class="cls-1" d="m907.1 534.77 4.33-2.34 1.88 2.51-18 9.31-13.78-11.91-5 3.13-1.88-2.47 8.77-5.64v-31.98a9.11 9.11 0 0 0-.15-1.95 5.44 5.44 0 0 0-.77-1.78 5.71 5.71 0 0 0-2.33-1.94 6.5 6.5 0 0 0-3-.57v-1.88l21.3-21.37H901v15h15.5l-6.13 7.19H901v40.46z"/></svg>